<svg width="100" height="30" viewBox="0 0 100 30" fill="none" xmlns="http://www.w3.org/2000/svg">
<path d="M100 13.7418H88.7744V17.4441H100V13.7418Z" fill="#0762C7"/>
<path d="M95.8098 1.89949L86.0881 7.47896L87.9504 10.6853L97.672 5.10581L95.8098 1.89949Z" fill="#26D07C"/>
<path d="M87.9518 20.4999L86.0896 23.7062L95.8113 29.2857L97.6735 26.0794L87.9518 20.4999Z" fill="#FF9E1B"/>
<path d="M33.8794 16.3348C33.8794 19.016 31.6933 21.1892 28.996 21.1892C26.2988 21.1892 24.1126 19.016 24.1126 16.3348V6.29375H20.3882V16.3348C20.3882 21.0611 24.2422 24.8922 28.9968 24.8922C33.7513 24.8922 37.6046 21.0611 37.6046 16.3348V6.29375H33.8801V16.3348H33.8794Z" fill="#08068D"/>
<path d="M9.35446 6.29375H5.63V9.99608H9.35446V10.0132C12.4547 10.0132 14.9673 12.5115 14.9673 15.5926C14.9673 18.6737 12.454 21.1721 9.35446 21.1721C6.25492 21.1721 3.74164 18.6745 3.74164 15.5926H3.72446V0.714287H0V15.5926C0 20.7281 4.18832 24.8915 9.35446 24.8915C14.5206 24.8915 18.7089 20.7281 18.7089 15.5926C18.7089 10.4572 14.5213 6.29375 9.35446 6.29375Z" fill="#08068D"/>
<path d="M55.3645 6.29375H51.64V9.99608H55.3645V10.0132C58.464 10.0132 60.9773 12.5115 60.9773 15.5926C60.9773 18.6737 58.4647 21.1721 55.3645 21.1721C52.2642 21.1721 49.7517 18.6745 49.7517 15.5926H49.7345V0.714287H46.01V15.5926C46.01 20.7281 50.1983 24.8915 55.3645 24.8915C60.5306 24.8915 64.7189 20.7281 64.7189 15.5926C64.7189 10.4572 60.5306 6.29375 55.3645 6.29375Z" fill="#08068D"/>
<path d="M43.6693 0.714287H39.9448V24.1579H43.6693V0.714287Z" fill="#08068D"/>
<path d="M73.807 17.4441H84.8465C84.9682 16.8457 85.0327 16.2266 85.0327 15.5926C85.0327 10.4572 80.8443 6.29375 75.6782 6.29375C70.512 6.29375 66.3237 10.4572 66.3237 15.5926C66.3237 20.7281 70.512 24.8922 75.6782 24.8922H79.4027V21.1899H75.6782V21.1728C72.5786 21.1728 70.0654 18.6745 70.0654 15.5933C70.0654 12.5122 72.5779 10.0139 75.6782 10.0139C78.1242 10.0139 80.1994 11.5722 80.9682 13.7418H73.8077V17.4441H73.807Z" fill="#08068D"/>
</svg>
