<svg width="22" height="22" viewBox="0 0 22 22" fill="none" xmlns="http://www.w3.org/2000/svg">
<path d="M8.25008 9.625L10.0834 11.4583L14.2084 7.33333M18.3334 19.25V7.15C18.3334 5.60986 18.3334 4.83978 18.0337 4.25153C17.77 3.73408 17.3493 3.31338 16.8319 3.04973C16.2436 2.75 15.4736 2.75 13.9334 2.75H8.06675C6.5266 2.75 5.75653 2.75 5.16827 3.04973C4.65083 3.31338 4.23013 3.73408 3.96648 4.25153C3.66675 4.83978 3.66675 5.60986 3.66675 7.15V19.25L6.18758 17.4167L8.47925 19.25L11.0001 17.4167L13.5209 19.25L15.8126 17.4167L18.3334 19.25Z" stroke="#08068D" stroke-width="2" stroke-linecap="round" stroke-linejoin="round"/>
</svg>
