<svg width="22" height="22" viewBox="0 0 22 22" fill="none" xmlns="http://www.w3.org/2000/svg">
<path d="M8.24992 14.2083H6.87492C5.59565 14.2083 4.95602 14.2083 4.43554 14.3662C3.26367 14.7217 2.34662 15.6388 1.99114 16.8106C1.83325 17.3311 1.83325 17.9707 1.83325 19.25M13.2916 6.875C13.2916 9.15317 11.4448 11 9.16658 11C6.88841 11 5.04159 9.15317 5.04159 6.875C5.04159 4.59683 6.88841 2.75 9.16658 2.75C11.4448 2.75 13.2916 4.59683 13.2916 6.875ZM10.0833 19.25L12.9262 18.4377C13.0623 18.3988 13.1304 18.3794 13.1939 18.3502C13.2502 18.3244 13.3038 18.2928 13.3538 18.2561C13.4101 18.2148 13.4602 18.1647 13.5603 18.0646L19.4791 12.1459C20.112 11.513 20.112 10.487 19.4791 9.85414C18.8463 9.22133 17.8203 9.22133 17.1874 9.85416L11.2687 15.7729C11.1685 15.873 11.1185 15.9231 11.0771 15.9794C11.0404 16.0294 11.0089 16.083 10.983 16.1394C10.9539 16.2029 10.9344 16.271 10.8955 16.4071L10.0833 19.25Z" stroke="#3E4D5B" stroke-width="2" stroke-linecap="round" stroke-linejoin="round"/>
</svg>
