<svg width="180" height="61" viewBox="0 0 180 61" fill="none" xmlns="http://www.w3.org/2000/svg">
<path d="M180 23.5896H159.794V30.2936H180V23.5896Z" fill="#0762C7"/>
<path d="M172.458 2.14619L154.959 12.2493L158.311 18.0551L175.81 7.95206L172.458 2.14619Z" fill="#26D07C"/>
<path d="M158.312 35.8257L154.96 41.6316L172.459 51.7347L175.811 45.9288L158.312 35.8257Z" fill="#FF9E1B"/>
<path d="M60.9832 28.285C60.9832 33.14 57.0482 37.0751 52.1931 37.0751C47.3381 37.0751 43.403 33.14 43.403 28.285V10.103H36.699V28.285C36.699 36.8431 43.6362 43.7804 52.1944 43.7804C60.7526 43.7804 67.6885 36.8431 67.6885 28.285V10.103H60.9845V28.285H60.9832Z" fill="#08068D"/>
<path d="M16.838 10.1031H10.134V16.8071H16.838V16.838C22.4185 16.838 26.9411 21.3619 26.9411 26.9411C26.9411 32.5203 22.4172 37.0442 16.838 37.0442C11.2589 37.0442 6.73496 32.5216 6.73496 26.9411H6.70403V0H0V26.9411C0 36.2402 7.53898 43.7791 16.838 43.7791C26.1371 43.7791 33.6761 36.2402 33.6761 26.9411C33.6761 17.6421 26.1384 10.1031 16.838 10.1031Z" fill="#08068D"/>
<path d="M99.6559 10.1031H92.9519V16.8071H99.6559V16.838C105.235 16.838 109.759 21.3619 109.759 26.9411C109.759 32.5203 105.236 37.0442 99.6559 37.0442C94.0754 37.0442 89.5528 32.5216 89.5528 26.9411H89.5219V0H82.8179V26.9411C82.8179 36.2402 90.3568 43.7791 99.6559 43.7791C108.955 43.7791 116.494 36.2402 116.494 26.9411C116.494 17.6421 108.955 10.1031 99.6559 10.1031Z" fill="#08068D"/>
<path d="M78.6044 0H71.9004V42.4507H78.6044V0Z" fill="#08068D"/>
<path d="M132.853 30.2937H152.724C152.943 29.2101 153.059 28.0891 153.059 26.9411C153.059 17.642 145.52 10.103 136.221 10.103C126.922 10.103 119.383 17.642 119.383 26.9411C119.383 36.2401 126.922 43.7791 136.221 43.7791H142.925V37.0751H136.221V37.0441C130.642 37.0441 126.118 32.5202 126.118 26.9411C126.118 21.3619 130.64 16.838 136.221 16.838C140.624 16.838 144.359 19.6598 145.743 23.5884H132.854V30.2924L132.853 30.2937Z" fill="#08068D"/>
<path d="M2.56926 57.2272C1.65185 57.2272 0.796289 56.9618 0 56.4309L0.398145 55.7429C1.12228 56.2093 1.85028 56.4425 2.58214 56.4425C3.01636 56.4425 3.36812 56.3485 3.63742 56.159C3.90671 55.9709 4.04201 55.7274 4.04201 55.4298C4.04201 55.1321 3.92346 54.9195 3.68638 54.7662C3.4493 54.6141 3.04085 54.493 2.46102 54.4041C0.957351 54.1786 0.204871 53.6117 0.204871 52.7033C0.204871 52.2047 0.420049 51.7988 0.850406 51.4857C1.28076 51.1713 1.83739 51.0154 2.52158 51.0154C3.31787 51.0154 4.03299 51.2087 4.6695 51.5939L4.35511 52.2936C3.74436 51.9483 3.12846 51.7743 2.50999 51.7743C2.06803 51.7743 1.72014 51.8555 1.46631 52.0165C1.21247 52.1776 1.0862 52.3979 1.0862 52.6801C1.0862 52.9378 1.20216 53.1453 1.43538 53.3025C1.66989 53.4584 2.04226 53.5782 2.55766 53.6581C3.4261 53.7947 4.03943 53.9982 4.39763 54.2675C4.75583 54.5368 4.93493 54.9285 4.93493 55.4439C4.93493 55.9593 4.71718 56.4052 4.28295 56.735C3.84873 57.0649 3.27793 57.2298 2.57054 57.2298" fill="#08068D"/>
<path d="M8.86606 57.1665C8.08524 57.1665 7.47063 56.9217 7.01965 56.4308C6.56868 55.9399 6.34448 55.2776 6.34448 54.4401V51.1106H7.23612V54.4156C7.23612 55.0263 7.39332 55.5031 7.70642 55.8458C8.02081 56.1873 8.4589 56.3586 9.02197 56.3586C9.58504 56.3586 10.045 56.1654 10.4032 55.7788C10.7601 55.3923 10.9405 54.9104 10.9405 54.3318V51.1119H11.8322V57.0712H10.9998C10.9998 56.5725 11.0088 56.2027 11.0243 55.9618H10.9882C10.8104 56.3393 10.5334 56.6357 10.1558 56.8483C9.77832 57.0609 9.34796 57.1678 8.86478 57.1678" fill="#08068D"/>
<path d="M15.8614 51.0142C16.7298 51.0142 17.4179 51.1997 17.9242 51.5695C18.4306 51.9393 18.6845 52.5178 18.6845 53.3064V57.0701H17.8882C17.8882 56.5392 17.8972 56.1449 17.9127 55.8872H17.8882C17.6949 56.2815 17.3882 56.5933 16.9669 56.8227C16.5443 57.052 16.0843 57.1667 15.5843 57.1667C14.9246 57.1667 14.3757 57.0005 13.9376 56.6655C13.4996 56.3318 13.2805 55.8628 13.2805 55.2597C13.2805 54.6567 13.5099 54.1723 13.9673 53.8308C14.4247 53.4894 15.0007 53.318 15.6926 53.318C16.4966 53.318 17.1962 53.4829 17.7915 53.8128V53.3064C17.7915 52.8 17.615 52.4225 17.2607 52.1725C16.9063 51.9238 16.4244 51.7989 15.8137 51.7989C15.2339 51.7989 14.6193 51.9406 13.9673 52.2215L13.7263 51.4973C14.4415 51.1752 15.1527 51.0142 15.8614 51.0142ZM15.7287 56.4065C16.284 56.4065 16.7595 56.2416 17.1576 55.9117C17.5557 55.5819 17.7735 55.1399 17.8147 54.5846C17.2272 54.2315 16.5675 54.0537 15.8356 54.0537C15.346 54.0537 14.9453 54.1581 14.636 54.3668C14.3255 54.5756 14.1709 54.8655 14.1709 55.2353C14.1709 55.6051 14.3216 55.8834 14.6231 56.0921C14.9246 56.3008 15.2931 56.4052 15.7274 56.4052" fill="#08068D"/>
<path d="M23.6903 59.9046V51.1106H24.5832C24.5832 51.3438 24.5665 51.7497 24.5343 52.3282H24.5588C24.6953 51.9584 24.9788 51.6428 25.4092 51.3812C25.8395 51.1196 26.3356 50.9895 26.8987 50.9895C27.7594 50.9895 28.4668 51.2768 29.0221 51.8515C29.5762 52.4262 29.8532 53.1722 29.8532 54.0883C29.8532 55.0044 29.5736 55.7621 29.0144 56.3329C28.4552 56.9037 27.7465 57.1897 26.8858 57.1897C26.3304 57.1897 25.8434 57.0609 25.4259 56.8032C25.0072 56.5468 24.7224 56.2324 24.5691 55.8626H24.5446C24.5691 56.2002 24.5807 56.6834 24.5807 57.3109V59.9046H23.6877H23.6903ZM26.7544 56.3702C27.4063 56.3702 27.9372 56.1615 28.3469 55.7428C28.758 55.3253 28.9628 54.7777 28.9628 54.1025C28.9628 53.4273 28.758 52.8655 28.3469 52.4442C27.9372 52.0229 27.4141 51.8116 26.7788 51.8116C26.1436 51.8116 25.5986 52.0203 25.1927 52.4391C24.7868 52.8578 24.5832 53.4041 24.5832 54.0793C24.5832 54.7545 24.7868 55.3163 25.1927 55.7376C25.5986 56.1602 26.1191 56.3702 26.7544 56.3702Z" fill="#08068D"/>
<path d="M31.3748 57.0701V51.1108H32.22C32.22 51.6249 32.211 52.0076 32.1955 52.2563H32.22C32.3566 51.9097 32.5962 51.6172 32.9377 51.3762C33.2792 51.134 33.6786 51.0142 34.1386 51.0142C34.4195 51.0142 34.6926 51.0593 34.9581 51.1469L34.7042 51.9432C34.5354 51.8787 34.3267 51.8465 34.078 51.8465C33.5549 51.8465 33.1232 52.045 32.7805 52.4431C32.4391 52.8412 32.269 53.3502 32.269 53.9687V57.0688H31.376L31.3748 57.0701Z" fill="#08068D"/>
<path d="M38.7579 57.1912C37.865 57.1912 37.1305 56.9039 36.5559 56.3292C35.9799 55.7545 35.6938 55.0123 35.6938 54.104C35.6938 53.1956 35.9876 52.4392 36.5739 51.8607C37.1602 51.2822 37.9088 50.9922 38.8172 50.9922C39.7255 50.9922 40.4458 51.2796 41.0256 51.8542C41.6042 52.4289 41.8941 53.1711 41.8941 54.0795C41.8941 54.9879 41.599 55.7442 41.0076 56.324C40.4175 56.9026 39.6663 57.1925 38.7579 57.1925M38.7824 56.3846C39.4176 56.3846 39.9459 56.1694 40.3685 55.7391C40.7911 55.3087 41.0024 54.765 41.0024 54.1052C41.0024 53.4455 40.7924 52.8889 40.3749 52.4586C39.9575 52.0282 39.4305 51.813 38.794 51.813C38.1574 51.813 37.633 52.0256 37.2143 52.4521C36.7968 52.8786 36.5868 53.4211 36.5868 54.0808C36.5868 54.7405 36.7968 55.2997 37.2143 55.7339C37.6317 56.1681 38.1549 56.3859 38.7824 56.3859M38.1909 50.1972L39.0826 48.6292H40.1688L39.0349 50.1972H38.1897H38.1909Z" fill="#08068D"/>
<path d="M45.9231 53.9698L48.1548 57.0699H47.0686L46.3212 55.9837C45.7749 55.1719 45.4605 54.6978 45.3806 54.5612H45.3562C45.2273 54.7776 44.9103 55.2531 44.404 55.9837L43.6553 57.0699H42.582L44.7892 53.9814L42.7263 51.1106H43.8241L44.6681 52.3656C44.9748 52.7921 45.2041 53.1335 45.3562 53.3912H45.3806C45.5404 53.1181 45.7698 52.7715 46.0687 52.354L46.9127 51.1119H47.986L45.9244 53.971L45.9231 53.9698Z" fill="#08068D"/>
<path d="M49.7346 49.9409C49.549 49.9409 49.397 49.8829 49.2758 49.7657C49.1547 49.6497 49.0955 49.499 49.0955 49.3134C49.0955 49.1279 49.1547 48.9758 49.2758 48.8547C49.397 48.7336 49.549 48.6743 49.7346 48.6743C49.9201 48.6743 50.085 48.7349 50.2049 48.8547C50.326 48.9758 50.3865 49.1279 50.3865 49.3134C50.3865 49.499 50.326 49.6497 50.2049 49.7657C50.085 49.8829 49.9278 49.9409 49.7346 49.9409ZM49.3003 51.1109H50.192V57.0701H49.3003V51.1109Z" fill="#08068D"/>
<path d="M59.1793 51.0142C59.9279 51.0142 60.5129 51.2422 60.9342 51.6958C61.3556 52.1506 61.5669 52.7588 61.5669 53.5229V57.0688H60.6753V53.6311C60.6753 53.0757 60.5361 52.6364 60.2591 52.3104C59.982 51.9844 59.5852 51.822 59.0711 51.822C58.557 51.822 58.1356 51.9986 57.8096 52.3529C57.4849 52.7072 57.3213 53.1531 57.3213 53.6916V57.0701H56.4284V53.6569C56.4284 53.0861 56.2854 52.6377 56.0006 52.3117C55.7158 51.9857 55.3151 51.8233 54.801 51.8233C54.2869 51.8233 53.8797 51.9986 53.5576 52.3477C53.2368 52.6969 53.0757 53.1466 53.0757 53.6929V57.0714H52.1841V51.1121H53.028C53.028 51.554 53.0036 51.9483 52.9559 52.2936H52.9804C53.1092 51.8994 53.354 51.5888 53.7161 51.3595C54.0769 51.1301 54.484 51.0154 54.9337 51.0154C55.9864 51.0154 56.6706 51.4664 56.985 52.3671C57.186 51.9174 57.4837 51.5785 57.8779 51.3543C58.2722 51.1288 58.7051 51.0167 59.1793 51.0167" fill="#08068D"/>
<path d="M65.4876 51.0142C66.356 51.0142 67.0441 51.1997 67.5505 51.5695C68.0568 51.9393 68.3107 52.5178 68.3107 53.3064V57.0701H67.5144C67.5144 56.5392 67.5234 56.1449 67.5389 55.8872H67.5144C67.3211 56.2815 67.0145 56.5933 66.5931 56.8227C66.1705 57.052 65.7105 57.1667 65.2106 57.1667C64.5509 57.1667 64.002 57.0005 63.5639 56.6655C63.1258 56.3318 62.9067 55.8628 62.9067 55.2597C62.9067 54.6567 63.1361 54.1723 63.5935 53.8308C64.0522 53.4894 64.6269 53.318 65.3188 53.318C66.1228 53.318 66.8225 53.4829 67.4178 53.8128V53.3064C67.4178 52.8 67.2412 52.4225 66.8869 52.1725C66.5326 51.9238 66.0507 51.7989 65.4399 51.7989C64.8601 51.7989 64.2455 51.9406 63.5935 52.2215L63.3526 51.4973C64.0677 51.1752 64.7789 51.0142 65.4876 51.0142ZM65.3549 56.4065C65.9102 56.4065 66.3857 56.2416 66.7838 55.9117C67.182 55.5819 67.3997 55.1399 67.4409 54.5846C66.8534 54.2315 66.1937 54.0537 65.4618 54.0537C64.9722 54.0537 64.5715 54.1581 64.2622 54.3668C63.9517 54.5756 63.7971 54.8655 63.7971 55.2353C63.7971 55.6051 63.9478 55.8834 64.2494 56.0921C64.5509 56.3008 64.9194 56.4052 65.3536 56.4052" fill="#08068D"/>
<path d="M78.6972 53.9453C78.6972 54.0419 78.6882 54.203 78.6727 54.4285H73.7622C73.8022 55.0315 74.0174 55.5108 74.4078 55.8639C74.7982 56.2182 75.2943 56.3947 75.8973 56.3947C76.7013 56.3947 77.3778 56.1383 77.9241 55.6229L78.3944 56.2259C77.7746 56.8689 76.9384 57.191 75.8857 57.191C74.985 57.191 74.257 56.9063 73.7017 56.3342C73.1476 55.7634 72.8706 55.0148 72.8706 54.0896C72.8706 53.1645 73.1515 52.4378 73.7146 51.8579C74.2776 51.2794 75.0018 50.9895 75.887 50.9895C76.7722 50.9895 77.4203 51.2472 77.9305 51.7613C78.4421 52.2754 78.6972 53.0034 78.6972 53.944M75.8509 51.7845C75.2956 51.7845 74.8304 51.9533 74.458 52.2909C74.0831 52.6285 73.8563 53.091 73.7764 53.6786H77.8661C77.8416 53.0678 77.6535 52.5988 77.2992 52.2728C76.9448 51.9469 76.4629 51.7845 75.8522 51.7845" fill="#08068D"/>
<path d="M80.1199 57.0701V51.1108H80.9651C80.9651 51.4651 80.9535 51.8581 80.9291 52.2923H80.9651C81.1416 51.8903 81.4277 51.5772 81.8207 51.3517C82.215 51.1263 82.6685 51.0142 83.1839 51.0142C83.9879 51.0142 84.6064 51.2474 85.0419 51.7138C85.4761 52.1802 85.6926 52.8361 85.6926 53.68V57.0701H84.801V53.7522C84.801 53.1415 84.6502 52.666 84.3487 52.3284C84.0472 51.9908 83.6065 51.822 83.028 51.822C82.4495 51.822 81.9586 52.0153 81.5797 52.4019C81.2022 52.7884 81.0128 53.2703 81.0128 53.8488V57.0701H80.1212H80.1199Z" fill="#08068D"/>
<path d="M92.9674 53.9453C92.9674 54.0419 92.9584 54.203 92.9429 54.4285H88.0337C88.0737 55.0315 88.2888 55.5108 88.6793 55.8639C89.0697 56.2182 89.5657 56.3947 90.1688 56.3947C90.9728 56.3947 91.648 56.1383 92.1956 55.6229L92.6659 56.2259C92.0461 56.8689 91.2099 57.191 90.1572 57.191C89.2565 57.191 88.5285 56.9063 87.9732 56.3342C87.4191 55.7634 87.1421 55.0148 87.1421 54.0896C87.1421 53.1645 87.423 52.4378 87.9861 51.8579C88.5491 51.2794 89.2733 50.9895 90.1585 50.9895C91.0436 50.9895 91.6918 51.2472 92.202 51.7613C92.7135 52.2754 92.9687 53.0034 92.9687 53.944M90.1211 51.7845C89.5657 51.7845 89.1019 51.9533 88.7282 52.2909C88.3546 52.6285 88.1265 53.091 88.0466 53.6786H92.1363C92.1118 53.0678 91.9224 52.5988 91.5694 52.2728C91.215 51.9469 90.7331 51.7845 90.1224 51.7845" fill="#08068D"/>
<path d="M94.3911 57.0701V51.1108H95.2364C95.2364 51.6249 95.2273 52.0076 95.2119 52.2563H95.2364C95.3717 51.9097 95.6113 51.6172 95.9541 51.3762C96.2955 51.134 96.6962 51.0142 97.1549 51.0142C97.4358 51.0142 97.7103 51.0593 97.9757 51.1469L97.7219 51.9432C97.5531 51.8787 97.3443 51.8465 97.0944 51.8465C96.5725 51.8465 96.1396 52.045 95.7981 52.4431C95.4567 52.8412 95.2853 53.3502 95.2853 53.9687V57.0688H94.3937L94.3911 57.0701Z" fill="#08068D"/>
<path d="M101.894 60.0619C100.872 60.0619 99.9562 59.8287 99.1431 59.3622L99.4936 58.6136C100.322 59.0234 101.117 59.2295 101.882 59.2295C102.509 59.2295 103.006 59.062 103.372 58.7283C103.738 58.3946 103.929 57.9294 103.945 57.3354C103.97 56.6281 103.989 56.1371 104.005 55.864H103.98C103.82 56.2505 103.532 56.5662 103.118 56.811C102.705 57.0558 102.228 57.1795 101.689 57.1795C100.813 57.1795 100.098 56.8922 99.5426 56.3175C98.9872 55.7429 98.7102 55.0046 98.7102 54.1039C98.7102 53.2032 98.9859 52.4392 99.5361 51.8606C100.088 51.2808 100.8 50.9922 101.678 50.9922C102.224 50.9922 102.71 51.1185 103.136 51.3723C103.561 51.6261 103.851 51.9495 104.005 52.3438H104.029C104.014 52.0707 104.005 51.6596 104.005 51.1133H104.849V57.1563C104.849 58.0647 104.587 58.7773 104.064 59.2914C103.542 59.8055 102.818 60.0632 101.893 60.0632M101.783 56.3601C102.443 56.3601 102.971 56.1513 103.369 55.7326C103.768 55.3151 103.967 54.7636 103.967 54.0794C103.967 53.3952 103.764 52.8566 103.358 52.4392C102.952 52.0217 102.428 51.8117 101.785 51.8117C101.142 51.8117 100.617 52.023 100.21 52.4456C99.8041 52.8682 99.6006 53.4133 99.6006 54.0794C99.6006 54.7456 99.8041 55.2945 100.21 55.721C100.616 56.1475 101.14 56.3601 101.785 56.3601" fill="#08068D"/>
<path d="M107.274 49.9409C107.088 49.9409 106.936 49.8829 106.815 49.7657C106.694 49.6497 106.635 49.499 106.635 49.3134C106.635 49.1279 106.694 48.9758 106.815 48.8547C106.936 48.7336 107.088 48.6743 107.274 48.6743C107.459 48.6743 107.624 48.7349 107.744 48.8547C107.865 48.9758 107.926 49.1279 107.926 49.3134C107.926 49.499 107.865 49.6497 107.744 49.7657C107.624 49.8829 107.467 49.9409 107.274 49.9409ZM106.839 51.1109H107.731V57.0701H106.839V51.1109Z" fill="#08068D"/>
<path d="M111.761 51.0142C112.63 51.0142 113.318 51.1997 113.824 51.5695C114.331 51.9393 114.584 52.5178 114.584 53.3064V57.0701H113.788C113.788 56.5392 113.796 56.1449 113.813 55.8872H113.788C113.595 56.2815 113.287 56.5933 112.866 56.8227C112.444 57.052 111.983 57.1667 111.484 57.1667C110.825 57.1667 110.276 57.0005 109.838 56.6655C109.398 56.3318 109.18 55.8628 109.18 55.2597C109.18 54.6567 109.41 54.1723 109.867 53.8308C110.326 53.4894 110.901 53.318 111.592 53.318C112.397 53.318 113.096 53.4829 113.69 53.8128V53.3064C113.69 52.8 113.514 52.4225 113.159 52.1725C112.805 51.9238 112.323 51.7989 111.712 51.7989C111.132 51.7989 110.518 51.9406 109.866 52.2215L109.625 51.4973C110.341 51.1752 111.053 51.0142 111.76 51.0142M111.627 56.4065C112.183 56.4065 112.659 56.2416 113.056 55.9117C113.454 55.5819 113.673 55.1399 113.713 54.5846C113.127 54.2315 112.467 54.0537 111.736 54.0537C111.245 54.0537 110.845 54.1581 110.535 54.3668C110.225 54.5756 110.071 54.8655 110.071 55.2353C110.071 55.6051 110.22 55.8834 110.523 56.0921C110.825 56.3008 111.193 56.4052 111.627 56.4052" fill="#08068D"/>
</svg>
