<svg width="90" height="80" viewBox="0 0 90 80" fill="none" xmlns="http://www.w3.org/2000/svg">
<path d="M46.0001 19L37.0936 29.6879C36.7448 30.1064 36.5703 30.3157 36.5677 30.4925C36.5654 30.6461 36.6338 30.7923 36.7534 30.8889C36.8909 31 37.1633 31 37.7081 31H45.0001L44.0001 39L52.9067 28.3121C53.2555 27.8936 53.4299 27.6843 53.4325 27.5075C53.4348 27.3539 53.3664 27.2077 53.2468 27.1111C53.1094 27 52.8369 27 52.2921 27H45.0001L46.0001 19Z" stroke="#C2CCD6" stroke-width="2" stroke-linecap="round" stroke-linejoin="round"/>
<path d="M15.9186 53.812C15.9186 52.996 16.1066 52.264 16.4826 51.616C16.8666 50.968 17.3826 50.464 18.0306 50.104C18.6866 49.736 19.4026 49.552 20.1786 49.552C21.0666 49.552 21.8546 49.772 22.5426 50.212C23.2386 50.644 23.7426 51.26 24.0546 52.06H22.4106C22.1946 51.62 21.8946 51.292 21.5106 51.076C21.1266 50.86 20.6826 50.752 20.1786 50.752C19.6266 50.752 19.1346 50.876 18.7026 51.124C18.2706 51.372 17.9306 51.728 17.6826 52.192C17.4426 52.656 17.3226 53.196 17.3226 53.812C17.3226 54.428 17.4426 54.968 17.6826 55.432C17.9306 55.896 18.2706 56.256 18.7026 56.512C19.1346 56.76 19.6266 56.884 20.1786 56.884C20.6826 56.884 21.1266 56.776 21.5106 56.56C21.8946 56.344 22.1946 56.016 22.4106 55.576H24.0546C23.7426 56.376 23.2386 56.992 22.5426 57.424C21.8546 57.856 21.0666 58.072 20.1786 58.072C19.3946 58.072 18.6786 57.892 18.0306 57.532C17.3826 57.164 16.8666 56.656 16.4826 56.008C16.1066 55.36 15.9186 54.628 15.9186 53.812ZM28.5239 58.108C27.8999 58.108 27.3359 57.968 26.8319 57.688C26.3279 57.4 25.9319 57 25.6439 56.488C25.3559 55.968 25.2119 55.368 25.2119 54.688C25.2119 54.016 25.3599 53.42 25.6559 52.9C25.9519 52.38 26.3559 51.98 26.8679 51.7C27.3799 51.42 27.9519 51.28 28.5839 51.28C29.2159 51.28 29.7879 51.42 30.2999 51.7C30.8119 51.98 31.2159 52.38 31.5119 52.9C31.8079 53.42 31.9559 54.016 31.9559 54.688C31.9559 55.36 31.8039 55.956 31.4999 56.476C31.1959 56.996 30.7799 57.4 30.2519 57.688C29.7319 57.968 29.1559 58.108 28.5239 58.108ZM28.5239 56.92C28.8759 56.92 29.2039 56.836 29.5079 56.668C29.8199 56.5 30.0719 56.248 30.2639 55.912C30.4559 55.576 30.5519 55.168 30.5519 54.688C30.5519 54.208 30.4599 53.804 30.2759 53.476C30.0919 53.14 29.8479 52.888 29.5439 52.72C29.2399 52.552 28.9119 52.468 28.5599 52.468C28.2079 52.468 27.8799 52.552 27.5759 52.72C27.2799 52.888 27.0439 53.14 26.8679 53.476C26.6919 53.804 26.6039 54.208 26.6039 54.688C26.6039 55.4 26.7839 55.952 27.1439 56.344C27.5119 56.728 27.9719 56.92 28.5239 56.92ZM36.6442 51.28C37.1642 51.28 37.6282 51.388 38.0362 51.604C38.4522 51.82 38.7762 52.14 39.0082 52.564C39.2402 52.988 39.3562 53.5 39.3562 54.1V58H38.0002V54.304C38.0002 53.712 37.8522 53.26 37.5562 52.948C37.2602 52.628 36.8562 52.468 36.3442 52.468C35.8322 52.468 35.4242 52.628 35.1202 52.948C34.8242 53.26 34.6762 53.712 34.6762 54.304V58H33.3082V51.388H34.6762V52.144C34.9002 51.872 35.1842 51.66 35.5282 51.508C35.8802 51.356 36.2522 51.28 36.6442 51.28ZM43.5012 58.108C42.9812 58.108 42.5132 58.016 42.0972 57.832C41.6892 57.64 41.3652 57.384 41.1252 57.064C40.8852 56.736 40.7572 56.372 40.7412 55.972H42.1572C42.1812 56.252 42.3132 56.488 42.5532 56.68C42.8012 56.864 43.1092 56.956 43.4772 56.956C43.8612 56.956 44.1572 56.884 44.3652 56.74C44.5812 56.588 44.6892 56.396 44.6892 56.164C44.6892 55.916 44.5692 55.732 44.3292 55.612C44.0972 55.492 43.7252 55.36 43.2132 55.216C42.7172 55.08 42.3132 54.948 42.0012 54.82C41.6892 54.692 41.4172 54.496 41.1852 54.232C40.9612 53.968 40.8492 53.62 40.8492 53.188C40.8492 52.836 40.9532 52.516 41.1612 52.228C41.3692 51.932 41.6652 51.7 42.0492 51.532C42.4412 51.364 42.8892 51.28 43.3932 51.28C44.1452 51.28 44.7492 51.472 45.2052 51.856C45.6692 52.232 45.9172 52.748 45.9492 53.404H44.5812C44.5572 53.108 44.4372 52.872 44.2212 52.696C44.0052 52.52 43.7132 52.432 43.3452 52.432C42.9852 52.432 42.7092 52.5 42.5172 52.636C42.3252 52.772 42.2292 52.952 42.2292 53.176C42.2292 53.352 42.2932 53.5 42.4212 53.62C42.5492 53.74 42.7052 53.836 42.8892 53.908C43.0732 53.972 43.3452 54.056 43.7052 54.16C44.1852 54.288 44.5772 54.42 44.8812 54.556C45.1932 54.684 45.4612 54.876 45.6852 55.132C45.9092 55.388 46.0252 55.728 46.0332 56.152C46.0332 56.528 45.9292 56.864 45.7212 57.16C45.5132 57.456 45.2172 57.688 44.8332 57.856C44.4572 58.024 44.0132 58.108 43.5012 58.108ZM53.4993 51.388V58H52.1313V57.22C51.9153 57.492 51.6313 57.708 51.2793 57.868C50.9353 58.02 50.5673 58.096 50.1753 58.096C49.6553 58.096 49.1873 57.988 48.7713 57.772C48.3633 57.556 48.0393 57.236 47.7993 56.812C47.5673 56.388 47.4513 55.876 47.4513 55.276V51.388H48.8073V55.072C48.8073 55.664 48.9553 56.12 49.2513 56.44C49.5473 56.752 49.9513 56.908 50.4633 56.908C50.9753 56.908 51.3793 56.752 51.6753 56.44C51.9793 56.12 52.1313 55.664 52.1313 55.072V51.388H53.4993ZM63.3083 51.28C63.8283 51.28 64.2923 51.388 64.7003 51.604C65.1163 51.82 65.4403 52.14 65.6723 52.564C65.9123 52.988 66.0323 53.5 66.0323 54.1V58H64.6763V54.304C64.6763 53.712 64.5283 53.26 64.2323 52.948C63.9363 52.628 63.5323 52.468 63.0203 52.468C62.5083 52.468 62.1003 52.628 61.7963 52.948C61.5003 53.26 61.3523 53.712 61.3523 54.304V58H59.9963V54.304C59.9963 53.712 59.8483 53.26 59.5523 52.948C59.2563 52.628 58.8523 52.468 58.3403 52.468C57.8283 52.468 57.4203 52.628 57.1163 52.948C56.8203 53.26 56.6723 53.712 56.6723 54.304V58H55.3043V51.388H56.6723V52.144C56.8963 51.872 57.1803 51.66 57.5243 51.508C57.8683 51.356 58.2363 51.28 58.6283 51.28C59.1563 51.28 59.6283 51.392 60.0443 51.616C60.4603 51.84 60.7803 52.164 61.0043 52.588C61.2043 52.188 61.5163 51.872 61.9403 51.64C62.3643 51.4 62.8203 51.28 63.3083 51.28ZM70.641 58.108C70.017 58.108 69.453 57.968 68.949 57.688C68.445 57.4 68.049 57 67.761 56.488C67.473 55.968 67.329 55.368 67.329 54.688C67.329 54.016 67.477 53.42 67.773 52.9C68.069 52.38 68.473 51.98 68.985 51.7C69.497 51.42 70.069 51.28 70.701 51.28C71.333 51.28 71.905 51.42 72.417 51.7C72.929 51.98 73.333 52.38 73.629 52.9C73.925 53.42 74.073 54.016 74.073 54.688C74.073 55.36 73.921 55.956 73.617 56.476C73.313 56.996 72.897 57.4 72.369 57.688C71.849 57.968 71.273 58.108 70.641 58.108ZM70.641 56.92C70.993 56.92 71.321 56.836 71.625 56.668C71.937 56.5 72.189 56.248 72.381 55.912C72.573 55.576 72.669 55.168 72.669 54.688C72.669 54.208 72.577 53.804 72.393 53.476C72.209 53.14 71.965 52.888 71.661 52.72C71.357 52.552 71.029 52.468 70.677 52.468C70.325 52.468 69.997 52.552 69.693 52.72C69.397 52.888 69.161 53.14 68.985 53.476C68.809 53.804 68.721 54.208 68.721 54.688C68.721 55.4 68.901 55.952 69.261 56.344C69.629 56.728 70.089 56.92 70.641 56.92Z" fill="#C2CCD6"/>
</svg>
