<svg width="90" height="80" viewBox="0 0 90 80" fill="none" xmlns="http://www.w3.org/2000/svg">
<mask id="path-1-inside-1_84_3492" fill="white">
<path d="M0 0H90V80H0V0Z"/>
</mask>
<path d="M0 0V2H90V0V-2H0V0Z" fill="#08068D" mask="url(#path-1-inside-1_84_3492)"/>
<path d="M16.3679 53.716C16.8159 53.796 17.1959 54.032 17.5079 54.424C17.8199 54.816 17.9759 55.26 17.9759 55.756C17.9759 56.18 17.8639 56.564 17.6399 56.908C17.4239 57.244 17.1079 57.512 16.6919 57.712C16.2759 57.904 15.7919 58 15.2399 58H11.9039V49.66H15.0839C15.6519 49.66 16.1399 49.756 16.5479 49.948C16.9559 50.14 17.2639 50.4 17.4719 50.728C17.6799 51.048 17.7839 51.408 17.7839 51.808C17.7839 52.288 17.6559 52.688 17.3999 53.008C17.1439 53.328 16.7999 53.564 16.3679 53.716ZM13.2719 53.164H14.9639C15.4119 53.164 15.7599 53.064 16.0079 52.864C16.2639 52.656 16.3919 52.36 16.3919 51.976C16.3919 51.6 16.2639 51.308 16.0079 51.1C15.7599 50.884 15.4119 50.776 14.9639 50.776H13.2719V53.164ZM15.1199 56.884C15.5839 56.884 15.9479 56.772 16.2119 56.548C16.4759 56.324 16.6079 56.012 16.6079 55.612C16.6079 55.204 16.4679 54.88 16.1879 54.64C15.9079 54.4 15.5359 54.28 15.0719 54.28H13.2719V56.884H15.1199ZM25.4505 51.388V58H24.0825V57.22C23.8665 57.492 23.5825 57.708 23.2305 57.868C22.8865 58.02 22.5185 58.096 22.1265 58.096C21.6065 58.096 21.1385 57.988 20.7225 57.772C20.3145 57.556 19.9905 57.236 19.7505 56.812C19.5185 56.388 19.4025 55.876 19.4025 55.276V51.388H20.7585V55.072C20.7585 55.664 20.9065 56.12 21.2025 56.44C21.4985 56.752 21.9025 56.908 22.4145 56.908C22.9265 56.908 23.3305 56.752 23.6265 56.44C23.9305 56.12 24.0825 55.664 24.0825 55.072V51.388H25.4505ZM28.6235 49.12V58H27.2555V49.12H28.6235ZM31.7875 52.372C32.0195 52.052 32.3355 51.792 32.7355 51.592C33.1435 51.384 33.5955 51.28 34.0915 51.28C34.6755 51.28 35.2035 51.42 35.6755 51.7C36.1475 51.98 36.5195 52.38 36.7915 52.9C37.0635 53.412 37.1995 54 37.1995 54.664C37.1995 55.328 37.0635 55.924 36.7915 56.452C36.5195 56.972 36.1435 57.38 35.6635 57.676C35.1915 57.964 34.6675 58.108 34.0915 58.108C33.5795 58.108 33.1235 58.008 32.7235 57.808C32.3315 57.608 32.0195 57.352 31.7875 57.04V58H30.4195V49.12H31.7875V52.372ZM35.8075 54.664C35.8075 54.208 35.7115 53.816 35.5195 53.488C35.3355 53.152 35.0875 52.9 34.7755 52.732C34.4715 52.556 34.1435 52.468 33.7915 52.468C33.4475 52.468 33.1195 52.556 32.8075 52.732C32.5035 52.908 32.2555 53.164 32.0635 53.5C31.8795 53.836 31.7875 54.232 31.7875 54.688C31.7875 55.144 31.8795 55.544 32.0635 55.888C32.2555 56.224 32.5035 56.48 32.8075 56.656C33.1195 56.832 33.4475 56.92 33.7915 56.92C34.1435 56.92 34.4715 56.832 34.7755 56.656C35.0875 56.472 35.3355 56.208 35.5195 55.864C35.7115 55.52 35.8075 55.12 35.8075 54.664ZM44.6123 54.532C44.6123 54.78 44.5963 55.004 44.5643 55.204H39.5123C39.5523 55.732 39.7483 56.156 40.1003 56.476C40.4523 56.796 40.8843 56.956 41.3963 56.956C42.1323 56.956 42.6523 56.648 42.9563 56.032H44.4323C44.2323 56.64 43.8683 57.14 43.3403 57.532C42.8203 57.916 42.1723 58.108 41.3963 58.108C40.7643 58.108 40.1963 57.968 39.6923 57.688C39.1963 57.4 38.8043 57 38.5163 56.488C38.2363 55.968 38.0963 55.368 38.0963 54.688C38.0963 54.008 38.2323 53.412 38.5043 52.9C38.7843 52.38 39.1723 51.98 39.6683 51.7C40.1723 51.42 40.7483 51.28 41.3963 51.28C42.0203 51.28 42.5763 51.416 43.0643 51.688C43.5523 51.96 43.9323 52.344 44.2043 52.84C44.4763 53.328 44.6123 53.892 44.6123 54.532ZM43.1843 54.1C43.1763 53.596 42.9963 53.192 42.6443 52.888C42.2923 52.584 41.8563 52.432 41.3363 52.432C40.8643 52.432 40.4603 52.584 40.1243 52.888C39.7883 53.184 39.5883 53.588 39.5243 54.1H43.1843ZM51.8238 58.084C51.2638 58.084 50.7598 57.988 50.3118 57.796C49.8638 57.596 49.5118 57.316 49.2558 56.956C48.9998 56.596 48.8718 56.176 48.8718 55.696H50.3358C50.3678 56.056 50.5078 56.352 50.7558 56.584C51.0118 56.816 51.3678 56.932 51.8238 56.932C52.2958 56.932 52.6638 56.82 52.9278 56.596C53.1918 56.364 53.3238 56.068 53.3238 55.708C53.3238 55.428 53.2398 55.2 53.0718 55.024C52.9118 54.848 52.7078 54.712 52.4598 54.616C52.2198 54.52 51.8838 54.416 51.4518 54.304C50.9078 54.16 50.4638 54.016 50.1198 53.872C49.7838 53.72 49.4958 53.488 49.2558 53.176C49.0158 52.864 48.8958 52.448 48.8958 51.928C48.8958 51.448 49.0158 51.028 49.2558 50.668C49.4958 50.308 49.8318 50.032 50.2638 49.84C50.6958 49.648 51.1958 49.552 51.7638 49.552C52.5718 49.552 53.2318 49.756 53.7438 50.164C54.2638 50.564 54.5518 51.116 54.6078 51.82H53.0958C53.0718 51.516 52.9278 51.256 52.6638 51.04C52.3998 50.824 52.0518 50.716 51.6198 50.716C51.2278 50.716 50.9078 50.816 50.6598 51.016C50.4118 51.216 50.2878 51.504 50.2878 51.88C50.2878 52.136 50.3638 52.348 50.5158 52.516C50.6758 52.676 50.8758 52.804 51.1158 52.9C51.3558 52.996 51.6838 53.1 52.0998 53.212C52.6518 53.364 53.0998 53.516 53.4438 53.668C53.7958 53.82 54.0918 54.056 54.3318 54.376C54.5798 54.688 54.7038 55.108 54.7038 55.636C54.7038 56.06 54.5878 56.46 54.3558 56.836C54.1318 57.212 53.7998 57.516 53.3598 57.748C52.9278 57.972 52.4158 58.084 51.8238 58.084ZM59.738 51.28C60.242 51.28 60.69 51.388 61.082 51.604C61.482 51.82 61.794 52.14 62.018 52.564C62.25 52.988 62.366 53.5 62.366 54.1V58H61.01V54.304C61.01 53.712 60.862 53.26 60.566 52.948C60.27 52.628 59.866 52.468 59.354 52.468C58.842 52.468 58.434 52.628 58.13 52.948C57.834 53.26 57.686 53.712 57.686 54.304V58H56.318V49.12H57.686V52.156C57.918 51.876 58.21 51.66 58.562 51.508C58.922 51.356 59.314 51.28 59.738 51.28ZM66.9789 58.108C66.3549 58.108 65.7909 57.968 65.2869 57.688C64.7829 57.4 64.3869 57 64.0989 56.488C63.8109 55.968 63.6669 55.368 63.6669 54.688C63.6669 54.016 63.8149 53.42 64.1109 52.9C64.4069 52.38 64.8109 51.98 65.3229 51.7C65.8349 51.42 66.4069 51.28 67.0389 51.28C67.6709 51.28 68.2429 51.42 68.7549 51.7C69.2669 51.98 69.6709 52.38 69.9669 52.9C70.2629 53.42 70.4109 54.016 70.4109 54.688C70.4109 55.36 70.2589 55.956 69.9549 56.476C69.6509 56.996 69.2349 57.4 68.7069 57.688C68.1869 57.968 67.6109 58.108 66.9789 58.108ZM66.9789 56.92C67.3309 56.92 67.6589 56.836 67.9629 56.668C68.2749 56.5 68.5269 56.248 68.7189 55.912C68.9109 55.576 69.0069 55.168 69.0069 54.688C69.0069 54.208 68.9149 53.804 68.7309 53.476C68.5469 53.14 68.3029 52.888 67.9989 52.72C67.6949 52.552 67.3669 52.468 67.0149 52.468C66.6629 52.468 66.3349 52.552 66.0309 52.72C65.7349 52.888 65.4989 53.14 65.3229 53.476C65.1469 53.804 65.0589 54.208 65.0589 54.688C65.0589 55.4 65.2389 55.952 65.5989 56.344C65.9669 56.728 66.4269 56.92 66.9789 56.92ZM73.1313 52.36C73.3633 52.056 73.6793 51.8 74.0793 51.592C74.4793 51.384 74.9313 51.28 75.4353 51.28C76.0113 51.28 76.5353 51.424 77.0073 51.712C77.4873 51.992 77.8633 52.388 78.1353 52.9C78.4073 53.412 78.5433 54 78.5433 54.664C78.5433 55.328 78.4073 55.924 78.1353 56.452C77.8633 56.972 77.4873 57.38 77.0073 57.676C76.5353 57.964 76.0113 58.108 75.4353 58.108C74.9313 58.108 74.4833 58.008 74.0913 57.808C73.6993 57.6 73.3793 57.344 73.1313 57.04V61.144H71.7633V51.388H73.1313V52.36ZM77.1513 54.664C77.1513 54.208 77.0553 53.816 76.8633 53.488C76.6793 53.152 76.4313 52.9 76.1193 52.732C75.8153 52.556 75.4873 52.468 75.1353 52.468C74.7913 52.468 74.4633 52.556 74.1513 52.732C73.8473 52.908 73.5993 53.164 73.4073 53.5C73.2233 53.836 73.1313 54.232 73.1313 54.688C73.1313 55.144 73.2233 55.544 73.4073 55.888C73.5993 56.224 73.8473 56.48 74.1513 56.656C74.4633 56.832 74.7913 56.92 75.1353 56.92C75.4873 56.92 75.8153 56.832 76.1193 56.656C76.4313 56.472 76.6793 56.208 76.8633 55.864C77.0553 55.52 77.1513 55.12 77.1513 54.664Z" fill="#08068D"/>
</svg>
