<svg width="90" height="80" viewBox="0 0 90 80" fill="none" xmlns="http://www.w3.org/2000/svg">
<path d="M47 19.2695V23.4001C47 23.9601 47 24.2401 47.109 24.4541C47.2049 24.6422 47.3578 24.7952 47.546 24.8911C47.7599 25.0001 48.0399 25.0001 48.6 25.0001H52.7305M49 30H41M49 34H41M43 26H41M47 19H41.8C40.1198 19 39.2798 19 38.638 19.327C38.0735 19.6146 37.6146 20.0735 37.327 20.638C37 21.2798 37 22.1198 37 23.8V34.2C37 35.8802 37 36.7202 37.327 37.362C37.6146 37.9265 38.0735 38.3854 38.638 38.673C39.2798 39 40.1198 39 41.8 39H48.2C49.8802 39 50.7202 39 51.362 38.673C51.9265 38.3854 52.3854 37.9265 52.673 37.362C53 36.7202 53 35.8802 53 34.2V25L47 19Z" stroke="#C2CCD6" stroke-width="2" stroke-linecap="round" stroke-linejoin="round"/>
<path d="M27.9506 49.66V50.776H24.4106V53.236H27.1706V54.352H24.4106V58H23.0426V49.66H27.9506ZM28.7624 54.664C28.7624 54 28.8984 53.412 29.1704 52.9C29.4504 52.388 29.8264 51.992 30.2984 51.712C30.7784 51.424 31.3064 51.28 31.8824 51.28C32.4024 51.28 32.8544 51.384 33.2384 51.592C33.6304 51.792 33.9424 52.044 34.1744 52.348V51.388H35.5544V58H34.1744V57.016C33.9424 57.328 33.6264 57.588 33.2264 57.796C32.8264 58.004 32.3704 58.108 31.8584 58.108C31.2904 58.108 30.7704 57.964 30.2984 57.676C29.8264 57.38 29.4504 56.972 29.1704 56.452C28.8984 55.924 28.7624 55.328 28.7624 54.664ZM34.1744 54.688C34.1744 54.232 34.0784 53.836 33.8864 53.5C33.7024 53.164 33.4584 52.908 33.1544 52.732C32.8504 52.556 32.5224 52.468 32.1704 52.468C31.8184 52.468 31.4904 52.556 31.1864 52.732C30.8824 52.9 30.6344 53.152 30.4424 53.488C30.2584 53.816 30.1664 54.208 30.1664 54.664C30.1664 55.12 30.2584 55.52 30.4424 55.864C30.6344 56.208 30.8824 56.472 31.1864 56.656C31.4984 56.832 31.8264 56.92 32.1704 56.92C32.5224 56.92 32.8504 56.832 33.1544 56.656C33.4584 56.48 33.7024 56.224 33.8864 55.888C34.0784 55.544 34.1744 55.144 34.1744 54.688ZM38.9472 52.504V56.164C38.9472 56.412 39.0032 56.592 39.1152 56.704C39.2352 56.808 39.4352 56.86 39.7152 56.86H40.5552V58H39.4752C38.8592 58 38.3872 57.856 38.0592 57.568C37.7312 57.28 37.5672 56.812 37.5672 56.164V52.504H36.7872V51.388H37.5672V49.744H38.9472V51.388H40.5552V52.504H38.9472ZM47.804 51.388V58H46.436V57.22C46.22 57.492 45.936 57.708 45.584 57.868C45.24 58.02 44.872 58.096 44.48 58.096C43.96 58.096 43.492 57.988 43.076 57.772C42.668 57.556 42.344 57.236 42.104 56.812C41.872 56.388 41.756 55.876 41.756 55.276V51.388H43.112V55.072C43.112 55.664 43.26 56.12 43.556 56.44C43.852 56.752 44.256 56.908 44.768 56.908C45.28 56.908 45.684 56.752 45.98 56.44C46.284 56.12 46.436 55.664 46.436 55.072V51.388H47.804ZM50.977 52.348C51.177 52.012 51.441 51.752 51.769 51.568C52.105 51.376 52.501 51.28 52.957 51.28V52.696H52.609C52.073 52.696 51.665 52.832 51.385 53.104C51.113 53.376 50.977 53.848 50.977 54.52V58H49.609V51.388H50.977V52.348ZM53.7585 54.664C53.7585 54 53.8945 53.412 54.1665 52.9C54.4465 52.388 54.8225 51.992 55.2945 51.712C55.7745 51.424 56.3025 51.28 56.8785 51.28C57.3985 51.28 57.8505 51.384 58.2345 51.592C58.6265 51.792 58.9385 52.044 59.1705 52.348V51.388H60.5505V58H59.1705V57.016C58.9385 57.328 58.6225 57.588 58.2225 57.796C57.8225 58.004 57.3665 58.108 56.8545 58.108C56.2865 58.108 55.7665 57.964 55.2945 57.676C54.8225 57.38 54.4465 56.972 54.1665 56.452C53.8945 55.924 53.7585 55.328 53.7585 54.664ZM59.1705 54.688C59.1705 54.232 59.0745 53.836 58.8825 53.5C58.6985 53.164 58.4545 52.908 58.1505 52.732C57.8465 52.556 57.5185 52.468 57.1665 52.468C56.8145 52.468 56.4865 52.556 56.1825 52.732C55.8785 52.9 55.6305 53.152 55.4385 53.488C55.2545 53.816 55.1625 54.208 55.1625 54.664C55.1625 55.12 55.2545 55.52 55.4385 55.864C55.6305 56.208 55.8785 56.472 56.1825 56.656C56.4945 56.832 56.8225 56.92 57.1665 56.92C57.5185 56.92 57.8465 56.832 58.1505 56.656C58.4545 56.48 58.6985 56.224 58.8825 55.888C59.0745 55.544 59.1705 55.144 59.1705 54.688ZM64.7473 58.108C64.2273 58.108 63.7593 58.016 63.3433 57.832C62.9353 57.64 62.6113 57.384 62.3713 57.064C62.1313 56.736 62.0033 56.372 61.9873 55.972H63.4033C63.4273 56.252 63.5593 56.488 63.7993 56.68C64.0473 56.864 64.3553 56.956 64.7233 56.956C65.1073 56.956 65.4033 56.884 65.6113 56.74C65.8273 56.588 65.9353 56.396 65.9353 56.164C65.9353 55.916 65.8153 55.732 65.5753 55.612C65.3433 55.492 64.9713 55.36 64.4593 55.216C63.9633 55.08 63.5593 54.948 63.2473 54.82C62.9353 54.692 62.6633 54.496 62.4313 54.232C62.2073 53.968 62.0953 53.62 62.0953 53.188C62.0953 52.836 62.1993 52.516 62.4073 52.228C62.6153 51.932 62.9113 51.7 63.2953 51.532C63.6873 51.364 64.1353 51.28 64.6393 51.28C65.3913 51.28 65.9953 51.472 66.4513 51.856C66.9153 52.232 67.1633 52.748 67.1953 53.404H65.8273C65.8033 53.108 65.6833 52.872 65.4673 52.696C65.2513 52.52 64.9593 52.432 64.5913 52.432C64.2313 52.432 63.9553 52.5 63.7633 52.636C63.5713 52.772 63.4753 52.952 63.4753 53.176C63.4753 53.352 63.5393 53.5 63.6673 53.62C63.7953 53.74 63.9513 53.836 64.1353 53.908C64.3193 53.972 64.5913 54.056 64.9513 54.16C65.4313 54.288 65.8233 54.42 66.1273 54.556C66.4393 54.684 66.7073 54.876 66.9313 55.132C67.1553 55.388 67.2713 55.728 67.2793 56.152C67.2793 56.528 67.1753 56.864 66.9673 57.16C66.7593 57.456 66.4633 57.688 66.0793 57.856C65.7033 58.024 65.2593 58.108 64.7473 58.108Z" fill="#C2CCD6"/>
</svg>
