<svg width="22" height="22" viewBox="0 0 22 22" fill="none" xmlns="http://www.w3.org/2000/svg">
<g clip-path="url(#clip0_84_3968)">
<path d="M13.7499 2.25298C12.8818 1.98032 11.958 1.83333 10.9999 1.83333C5.93731 1.83333 1.83325 5.93739 1.83325 11C1.83325 16.0626 5.93731 20.1667 10.9999 20.1667C16.0625 20.1667 20.1666 16.0626 20.1666 11C20.1666 9.42762 19.7707 7.9477 19.0731 6.65449M15.5833 5.27083H15.5878M9.62497 20.0642L9.62507 18.0445C9.62507 17.9351 9.66421 17.8293 9.7354 17.7463L12.014 15.0878C12.2013 14.8693 12.1433 14.5343 11.8934 14.3916L9.27524 12.8954C9.20411 12.8548 9.14517 12.7958 9.10456 12.7246L7.39784 9.73374C7.30901 9.57808 7.13761 9.48848 6.9591 9.50438L1.89209 9.95568M19.2499 5.5C19.2499 7.52504 17.4166 9.16667 15.5833 11C13.7499 9.16667 11.9166 7.52504 11.9166 5.5C11.9166 3.47495 13.5582 1.83333 15.5833 1.83333C17.6083 1.83333 19.2499 3.47495 19.2499 5.5ZM15.8124 5.27083C15.8124 5.3974 15.7098 5.5 15.5833 5.5C15.4567 5.5 15.3541 5.3974 15.3541 5.27083C15.3541 5.14427 15.4567 5.04167 15.5833 5.04167C15.7098 5.04167 15.8124 5.14427 15.8124 5.27083Z" stroke="#3E4D5B" stroke-width="2" stroke-linecap="round" stroke-linejoin="round"/>
</g>
<defs>
<clipPath id="clip0_84_3968">
<rect width="22" height="22" fill="white"/>
</clipPath>
</defs>
</svg>
