<svg width="17" height="16" viewBox="0 0 17 16" fill="none" xmlns="http://www.w3.org/2000/svg">
<path d="M6.49992 12.3333H10.4999M4.89992 1.33334H12.0999C12.4733 1.33334 12.66 1.33334 12.8026 1.40601C12.928 1.46992 13.03 1.57191 13.0939 1.69735C13.1666 1.83996 13.1666 2.02664 13.1666 2.40001V3.78302C13.1666 4.10914 13.1666 4.2722 13.1297 4.42565C13.0971 4.5617 13.0432 4.69176 12.9701 4.81106C12.8876 4.94561 12.7723 5.06091 12.5417 5.29152L10.5875 7.24576C10.3235 7.50977 10.1915 7.64178 10.142 7.794C10.0985 7.92789 10.0985 8.07213 10.142 8.20602C10.1915 8.35824 10.3235 8.49025 10.5875 8.75426L12.5417 10.7085C12.7723 10.9391 12.8876 11.0544 12.9701 11.189C13.0432 11.3083 13.0971 11.4383 13.1297 11.5744C13.1666 11.7278 13.1666 11.8909 13.1666 12.217V13.6C13.1666 13.9734 13.1666 14.1601 13.0939 14.3027C13.03 14.4281 12.928 14.5301 12.8026 14.594C12.66 14.6667 12.4733 14.6667 12.0999 14.6667H4.89992C4.52655 14.6667 4.33987 14.6667 4.19726 14.594C4.07182 14.5301 3.96983 14.4281 3.90591 14.3027C3.83325 14.1601 3.83325 13.9734 3.83325 13.6V12.217C3.83325 11.8909 3.83325 11.7278 3.87009 11.5744C3.90275 11.4383 3.95663 11.3083 4.02973 11.189C4.11219 11.0544 4.22749 10.9391 4.45809 10.7085L6.41234 8.75426C6.67635 8.49025 6.80836 8.35824 6.85781 8.20602C6.90132 8.07213 6.90132 7.92789 6.85781 7.794C6.80836 7.64178 6.67635 7.50977 6.41234 7.24576L4.45809 5.29152C4.22749 5.06091 4.11219 4.94561 4.02973 4.81106C3.95663 4.69176 3.90275 4.5617 3.87009 4.42565C3.83325 4.2722 3.83325 4.10914 3.83325 3.78302V2.40001C3.83325 2.02664 3.83325 1.83996 3.90591 1.69735C3.96983 1.57191 4.07182 1.46992 4.19726 1.40601C4.33987 1.33334 4.52655 1.33334 4.89992 1.33334Z" stroke="#FEF3F2" stroke-width="2" stroke-linecap="round" stroke-linejoin="round"/>
</svg>
