<svg width="90" height="80" viewBox="0 0 90 80" fill="none" xmlns="http://www.w3.org/2000/svg">
<path d="M52 38V32M49 35H55M45 32H41C39.1362 32 38.2044 32 37.4693 32.3045C36.4892 32.7105 35.7105 33.4892 35.3045 34.4693C35 35.2044 35 36.1362 35 38M48.5 20.2908C49.9659 20.8841 51 22.3213 51 24C51 25.6787 49.9659 27.1159 48.5 27.7092M46.5 24C46.5 26.2091 44.7091 28 42.5 28C40.2909 28 38.5 26.2091 38.5 24C38.5 21.7909 40.2909 20 42.5 20C44.7091 20 46.5 21.7909 46.5 24Z" stroke="#C2CCD6" stroke-width="2" stroke-linecap="round" stroke-linejoin="round"/>
<path d="M14.145 49.66V58H12.777V49.66H14.145ZM19.277 51.28C19.797 51.28 20.261 51.388 20.669 51.604C21.085 51.82 21.409 52.14 21.641 52.564C21.873 52.988 21.989 53.5 21.989 54.1V58H20.633V54.304C20.633 53.712 20.485 53.26 20.189 52.948C19.893 52.628 19.489 52.468 18.977 52.468C18.465 52.468 18.057 52.628 17.753 52.948C17.457 53.26 17.309 53.712 17.309 54.304V58H15.941V51.388H17.309V52.144C17.533 51.872 17.817 51.66 18.161 51.508C18.513 51.356 18.885 51.28 19.277 51.28ZM23.278 54.664C23.278 54 23.414 53.412 23.686 52.9C23.966 52.388 24.342 51.992 24.814 51.712C25.294 51.424 25.826 51.28 26.41 51.28C26.842 51.28 27.266 51.376 27.682 51.568C28.106 51.752 28.442 52 28.69 52.312V49.12H30.07V58H28.69V57.004C28.466 57.324 28.154 57.588 27.754 57.796C27.362 58.004 26.91 58.108 26.398 58.108C25.822 58.108 25.294 57.964 24.814 57.676C24.342 57.38 23.966 56.972 23.686 56.452C23.414 55.924 23.278 55.328 23.278 54.664ZM28.69 54.688C28.69 54.232 28.594 53.836 28.402 53.5C28.218 53.164 27.974 52.908 27.67 52.732C27.366 52.556 27.038 52.468 26.686 52.468C26.334 52.468 26.006 52.556 25.702 52.732C25.398 52.9 25.15 53.152 24.958 53.488C24.774 53.816 24.682 54.208 24.682 54.664C24.682 55.12 24.774 55.52 24.958 55.864C25.15 56.208 25.398 56.472 25.702 56.656C26.014 56.832 26.342 56.92 26.686 56.92C27.038 56.92 27.366 56.832 27.67 56.656C27.974 56.48 28.218 56.224 28.402 55.888C28.594 55.544 28.69 55.144 28.69 54.688ZM32.5628 50.512C32.3148 50.512 32.1068 50.428 31.9388 50.26C31.7708 50.092 31.6868 49.884 31.6868 49.636C31.6868 49.388 31.7708 49.18 31.9388 49.012C32.1068 48.844 32.3148 48.76 32.5628 48.76C32.8028 48.76 33.0068 48.844 33.1748 49.012C33.3428 49.18 33.4268 49.388 33.4268 49.636C33.4268 49.884 33.3428 50.092 33.1748 50.26C33.0068 50.428 32.8028 50.512 32.5628 50.512ZM33.2348 51.388V58H31.8668V51.388H33.2348ZM34.5749 54.688C34.5749 54.008 34.7109 53.412 34.9829 52.9C35.2629 52.38 35.6469 51.98 36.1349 51.7C36.6229 51.42 37.1829 51.28 37.8149 51.28C38.6149 51.28 39.2749 51.472 39.7949 51.856C40.3229 52.232 40.6789 52.772 40.8629 53.476H39.3869C39.2669 53.148 39.0749 52.892 38.8109 52.708C38.5469 52.524 38.2149 52.432 37.8149 52.432C37.2549 52.432 36.8069 52.632 36.4709 53.032C36.1429 53.424 35.9789 53.976 35.9789 54.688C35.9789 55.4 36.1429 55.956 36.4709 56.356C36.8069 56.756 37.2549 56.956 37.8149 56.956C38.6069 56.956 39.1309 56.608 39.3869 55.912H40.8629C40.6709 56.584 40.3109 57.12 39.7829 57.52C39.2549 57.912 38.5989 58.108 37.8149 58.108C37.1829 58.108 36.6229 57.968 36.1349 57.688C35.6469 57.4 35.2629 57 34.9829 56.488C34.7109 55.968 34.5749 55.368 34.5749 54.688ZM41.7702 54.664C41.7702 54 41.9062 53.412 42.1782 52.9C42.4582 52.388 42.8342 51.992 43.3062 51.712C43.7862 51.424 44.3142 51.28 44.8902 51.28C45.4102 51.28 45.8622 51.384 46.2462 51.592C46.6382 51.792 46.9502 52.044 47.1822 52.348V51.388H48.5622V58H47.1822V57.016C46.9502 57.328 46.6342 57.588 46.2342 57.796C45.8342 58.004 45.3782 58.108 44.8662 58.108C44.2982 58.108 43.7782 57.964 43.3062 57.676C42.8342 57.38 42.4582 56.972 42.1782 56.452C41.9062 55.924 41.7702 55.328 41.7702 54.664ZM47.1822 54.688C47.1822 54.232 47.0862 53.836 46.8942 53.5C46.7102 53.164 46.4662 52.908 46.1622 52.732C45.8582 52.556 45.5302 52.468 45.1782 52.468C44.8262 52.468 44.4982 52.556 44.1942 52.732C43.8902 52.9 43.6422 53.152 43.4502 53.488C43.2662 53.816 43.1742 54.208 43.1742 54.664C43.1742 55.12 43.2662 55.52 43.4502 55.864C43.6422 56.208 43.8902 56.472 44.1942 56.656C44.5062 56.832 44.8342 56.92 45.1782 56.92C45.5302 56.92 45.8582 56.832 46.1622 56.656C46.4662 56.48 46.7102 56.224 46.8942 55.888C47.0862 55.544 47.1822 55.144 47.1822 54.688ZM53.143 56.956C53.935 56.956 54.459 56.608 54.715 55.912H56.191C56.015 56.52 55.699 57.02 55.243 57.412C54.795 57.796 54.231 58.02 53.551 58.084V58.576C54.015 58.576 54.391 58.684 54.679 58.9C54.967 59.124 55.111 59.436 55.111 59.836C55.111 60.236 54.967 60.552 54.679 60.784C54.391 61.024 54.027 61.144 53.587 61.144H52.003V60.28H53.311C53.535 60.28 53.703 60.248 53.815 60.184C53.927 60.12 53.983 60.004 53.983 59.836C53.983 59.668 53.927 59.552 53.815 59.488C53.703 59.424 53.535 59.392 53.311 59.392H52.651V58.072C52.107 58.008 51.627 57.828 51.211 57.532C50.795 57.228 50.471 56.836 50.239 56.356C50.015 55.868 49.903 55.312 49.903 54.688C49.903 54.008 50.039 53.412 50.311 52.9C50.591 52.38 50.975 51.98 51.463 51.7C51.951 51.42 52.511 51.28 53.143 51.28C53.943 51.28 54.603 51.472 55.123 51.856C55.651 52.232 56.007 52.772 56.191 53.476H54.715C54.595 53.148 54.403 52.892 54.139 52.708C53.875 52.524 53.543 52.432 53.143 52.432C52.583 52.432 52.135 52.632 51.799 53.032C51.471 53.424 51.307 53.976 51.307 54.688C51.307 55.4 51.471 55.956 51.799 56.356C52.135 56.756 52.583 56.956 53.143 56.956ZM60.4223 58.108C59.7983 58.108 59.2343 57.968 58.7303 57.688C58.2263 57.4 57.8303 57 57.5423 56.488C57.2543 55.968 57.1103 55.368 57.1103 54.688C57.1103 54.016 57.2583 53.42 57.5543 52.9C57.8503 52.38 58.2543 51.98 58.7663 51.7C59.2783 51.42 59.8503 51.28 60.4823 51.28C61.1143 51.28 61.6863 51.42 62.1983 51.7C62.7103 51.98 63.1143 52.38 63.4103 52.9C63.7063 53.42 63.8543 54.016 63.8543 54.688C63.8543 55.36 63.7023 55.956 63.3983 56.476C63.0943 56.996 62.6783 57.4 62.1503 57.688C61.6303 57.968 61.0543 58.108 60.4223 58.108ZM60.4223 56.92C60.7743 56.92 61.1023 56.836 61.4063 56.668C61.7183 56.5 61.9703 56.248 62.1623 55.912C62.3543 55.576 62.4503 55.168 62.4503 54.688C62.4503 54.208 62.3583 53.804 62.1743 53.476C61.9903 53.14 61.7463 52.888 61.4423 52.72C61.1383 52.552 60.8103 52.468 60.4583 52.468C60.1063 52.468 59.7783 52.552 59.4743 52.72C59.1783 52.888 58.9423 53.14 58.7663 53.476C58.5903 53.804 58.5023 54.208 58.5023 54.688C58.5023 55.4 58.6823 55.952 59.0423 56.344C59.4103 56.728 59.8703 56.92 60.4223 56.92ZM58.5263 50.596C58.5903 50.132 58.7423 49.784 58.9823 49.552C59.2223 49.312 59.5223 49.192 59.8823 49.192C60.0343 49.192 60.1663 49.216 60.2783 49.264C60.3903 49.312 60.5263 49.384 60.6863 49.48C60.8063 49.56 60.9063 49.62 60.9863 49.66C61.0743 49.7 61.1703 49.72 61.2743 49.72C61.4103 49.72 61.5223 49.68 61.6103 49.6C61.7063 49.512 61.7663 49.384 61.7903 49.216H62.5583C62.4943 49.68 62.3423 50.032 62.1023 50.272C61.8623 50.504 61.5623 50.62 61.2023 50.62C61.0503 50.62 60.9143 50.596 60.7943 50.548C60.6743 50.492 60.5423 50.416 60.3983 50.32C60.2543 50.232 60.1423 50.172 60.0623 50.14C59.9903 50.1 59.9063 50.08 59.8103 50.08C59.6743 50.08 59.5583 50.124 59.4623 50.212C59.3743 50.3 59.3183 50.428 59.2943 50.596H58.5263ZM71.2666 54.532C71.2666 54.78 71.2506 55.004 71.2186 55.204H66.1666C66.2066 55.732 66.4026 56.156 66.7546 56.476C67.1066 56.796 67.5386 56.956 68.0506 56.956C68.7866 56.956 69.3066 56.648 69.6106 56.032H71.0866C70.8866 56.64 70.5226 57.14 69.9946 57.532C69.4746 57.916 68.8266 58.108 68.0506 58.108C67.4186 58.108 66.8506 57.968 66.3466 57.688C65.8506 57.4 65.4586 57 65.1706 56.488C64.8906 55.968 64.7506 55.368 64.7506 54.688C64.7506 54.008 64.8866 53.412 65.1586 52.9C65.4386 52.38 65.8266 51.98 66.3226 51.7C66.8266 51.42 67.4026 51.28 68.0506 51.28C68.6746 51.28 69.2306 51.416 69.7186 51.688C70.2066 51.96 70.5866 52.344 70.8586 52.84C71.1306 53.328 71.2666 53.892 71.2666 54.532ZM69.8386 54.1C69.8306 53.596 69.6506 53.192 69.2986 52.888C68.9466 52.584 68.5106 52.432 67.9906 52.432C67.5186 52.432 67.1146 52.584 66.7786 52.888C66.4426 53.184 66.2426 53.588 66.1786 54.1H69.8386ZM75.0129 58.108C74.4929 58.108 74.0249 58.016 73.6089 57.832C73.2009 57.64 72.8769 57.384 72.6369 57.064C72.3969 56.736 72.2689 56.372 72.2529 55.972H73.6689C73.6929 56.252 73.8249 56.488 74.0649 56.68C74.3129 56.864 74.6209 56.956 74.9889 56.956C75.3729 56.956 75.6689 56.884 75.8769 56.74C76.0929 56.588 76.2009 56.396 76.2009 56.164C76.2009 55.916 76.0809 55.732 75.8409 55.612C75.6089 55.492 75.2369 55.36 74.7249 55.216C74.2289 55.08 73.8249 54.948 73.5129 54.82C73.2009 54.692 72.9289 54.496 72.6969 54.232C72.4729 53.968 72.3609 53.62 72.3609 53.188C72.3609 52.836 72.4649 52.516 72.6729 52.228C72.8809 51.932 73.1769 51.7 73.5609 51.532C73.9529 51.364 74.4009 51.28 74.9049 51.28C75.6569 51.28 76.2609 51.472 76.7169 51.856C77.1809 52.232 77.4289 52.748 77.4609 53.404H76.0929C76.0689 53.108 75.9489 52.872 75.7329 52.696C75.5169 52.52 75.2249 52.432 74.8569 52.432C74.4969 52.432 74.2209 52.5 74.0289 52.636C73.8369 52.772 73.7409 52.952 73.7409 53.176C73.7409 53.352 73.8049 53.5 73.9329 53.62C74.0609 53.74 74.2169 53.836 74.4009 53.908C74.5849 53.972 74.8569 54.056 75.2169 54.16C75.6969 54.288 76.0889 54.42 76.3929 54.556C76.7049 54.684 76.9729 54.876 77.1969 55.132C77.4209 55.388 77.5369 55.728 77.5449 56.152C77.5449 56.528 77.4409 56.864 77.2329 57.16C77.0249 57.456 76.7289 57.688 76.3449 57.856C75.9689 58.024 75.5249 58.108 75.0129 58.108Z" fill="#C2CCD6"/>
</svg>
