<svg width="22" height="22" viewBox="0 0 22 22" fill="none" xmlns="http://www.w3.org/2000/svg">
<path d="M14.6667 7.33336V4.12563C14.6667 3.3632 14.6667 2.98198 14.5061 2.74771C14.3657 2.54303 14.1484 2.40398 13.9038 2.36235C13.6238 2.3147 13.2776 2.47445 12.5854 2.79395L4.4541 6.54685C3.83671 6.8318 3.52802 6.97427 3.30193 7.19523C3.10205 7.39058 2.94948 7.62903 2.85588 7.89237C2.75 8.19025 2.75 8.53023 2.75 9.2102V13.75M15.125 13.2917H15.1342M2.75 10.2667L2.75 16.3167C2.75 17.3435 2.75 17.8568 2.94982 18.249C3.12559 18.594 3.40605 18.8744 3.75102 19.0502C4.14319 19.25 4.65657 19.25 5.68333 19.25H16.3167C17.3434 19.25 17.8568 19.25 18.249 19.0502C18.5939 18.8744 18.8744 18.594 19.0502 18.249C19.25 17.8568 19.25 17.3435 19.25 16.3167V10.2667C19.25 9.23993 19.25 8.72655 19.0502 8.33438C18.8744 7.98941 18.5939 7.70895 18.249 7.53318C17.8568 7.33336 17.3434 7.33336 16.3167 7.33336L5.68333 7.33336C4.65657 7.33336 4.14319 7.33336 3.75102 7.53318C3.40605 7.70895 3.12559 7.98941 2.94982 8.33438C2.75 8.72655 2.75 9.23993 2.75 10.2667ZM15.5833 13.2917C15.5833 13.5448 15.3781 13.75 15.125 13.75C14.8719 13.75 14.6667 13.5448 14.6667 13.2917C14.6667 13.0386 14.8719 12.8334 15.125 12.8334C15.3781 12.8334 15.5833 13.0386 15.5833 13.2917Z" stroke="#3E4D5B" stroke-width="2" stroke-linecap="round" stroke-linejoin="round"/>
</svg>
