<svg width="22" height="22" viewBox="0 0 22 22" fill="none" xmlns="http://www.w3.org/2000/svg">
<path d="M8 18C9.10457 18 10 18.8954 10 20C10 21.1046 9.10457 22 8 22C6.89543 22 6 21.1046 6 20C6 18.8954 6.89543 18 8 18ZM16 18C17.1046 18 18 18.8954 18 20C18 21.1046 17.1046 22 16 22C14.8954 22 14 21.1046 14 20C14 18.8954 14.8954 18 16 18ZM2.67188 0.00879669C2.80513 0.0190116 2.99066 0.0449594 3.18945 0.13575C3.41851 0.240434 3.61742 0.400804 3.76758 0.60157L3.8291 0.689461L3.90527 0.82618C3.97122 0.960784 4.00657 1.08658 4.02832 1.18458C4.05457 1.30291 4.07265 1.43923 4.08789 1.54591L4.43848 4.00001H20.0332C20.1811 4.00001 20.3567 3.99953 20.5078 4.0127C20.6478 4.02491 20.8496 4.05326 21.0605 4.15528L21.1514 4.20411L21.2627 4.27637C21.5147 4.45489 21.707 4.70776 21.8105 5.00098C21.904 5.26584 21.8941 5.50835 21.8779 5.66798C21.8626 5.81883 21.8294 5.99146 21.8018 6.13673L20.4775 13.0859C20.3922 13.5342 20.3183 13.924 20.2324 14.2432C20.1433 14.5744 20.0253 14.8977 19.8164 15.2012C19.5008 15.6596 19.0631 16.0218 18.5537 16.2461C18.2166 16.3945 17.8772 16.45 17.5352 16.4756C17.2055 16.5002 16.808 16.5 16.3516 16.5H7.79395C7.31424 16.5 6.89804 16.5011 6.55371 16.4746C6.19695 16.4472 5.84308 16.3859 5.49414 16.2256C4.96873 15.9842 4.52389 15.5965 4.21387 15.1084C4.00803 14.7843 3.90044 14.4416 3.8252 14.0918C3.75257 13.7542 3.69749 13.3416 3.63281 12.8662L2.58008 5.13477V5.1338L2.13281 2.00001H1C0.447715 2.00001 0 1.55229 0 1.00001C2.12603e-06 0.447725 0.447717 7.62939e-06 1 7.62939e-06H2.30664C2.41433 5.65223e-06 2.5512 -0.00044058 2.67188 0.00879669ZM5.61426 12.5967C5.68304 13.1023 5.72754 13.4257 5.78027 13.6709C5.83039 13.9039 5.87372 13.9911 5.90234 14.0361C6.00568 14.1988 6.15398 14.3278 6.3291 14.4082C6.37762 14.4305 6.46947 14.4622 6.70703 14.4805C6.9571 14.4997 7.28365 14.5 7.79395 14.5H16.3516C16.8375 14.5 17.1478 14.4992 17.3857 14.4815C17.6111 14.4646 17.7002 14.4361 17.748 14.415C17.9178 14.3403 18.0638 14.2201 18.1689 14.0674C18.1986 14.0243 18.2431 13.9419 18.3018 13.7236C18.3637 13.4933 18.4218 13.189 18.5127 12.7119L19.792 6.00001H4.7168L5.61426 12.5967Z" fill="#043062"/>
</svg>
