<svg width="30" height="25" viewBox="0 0 30 25" fill="none" xmlns="http://www.w3.org/2000/svg">
<path d="M30 10.6H19.9998V13.914H30V10.6Z" fill="white"/>
<path d="M26.2674 4.75356e-05L17.6069 4.99423L19.2659 7.8642L27.9263 2.87002L26.2674 4.75356e-05Z" fill="white"/>
<path d="M19.267 16.6493L17.608 19.5193L26.2685 24.5134L27.9274 21.6435L19.267 16.6493Z" fill="white"/>
<path d="M6.66638 13.9141H16.5008C16.6092 13.3784 16.6666 12.8243 16.6666 12.2568C16.6666 7.66001 12.9355 3.93332 8.3333 3.93332C3.73111 3.93332 0 7.66001 0 12.2568C0 16.8535 3.73111 20.5808 8.3333 20.5808H11.6512V17.2669H8.3333V17.2516C5.57211 17.2516 3.33319 15.0153 3.33319 12.2574C3.33319 9.49947 5.57147 7.2632 8.3333 7.2632C10.5123 7.2632 12.3609 8.65808 13.0458 10.6007H6.66702V13.9147L6.66638 13.9141Z" fill="white"/>
</svg>
