<svg width="332" height="135" viewBox="0 0 332 135" fill="none" xmlns="http://www.w3.org/2000/svg">
<g filter="url(#filter0_d_118_1909)">
<path d="M0 4C0 1.79086 1.79086 0 4 0V132C1.79086 132 0 130.209 0 128V4Z" fill="#CC7400"/>
<path d="M4 0H325C327.209 0 329 1.79086 329 4V128C329 130.209 327.209 132 325 132H4V0Z" fill="white"/>
<path d="M26.0204 27.806C25.3954 27.8045 24.9253 28.3111 24.9239 28.8971C24.9223 29.5221 25.3899 29.992 26.0149 29.9935C26.6009 29.995 27.1098 29.5275 27.1114 28.9025C27.1128 28.3166 26.6063 27.8075 26.0204 27.806ZM26.2961 26.8692C26.5696 26.8699 26.7653 26.6751 26.766 26.4016C26.7702 24.7219 29.8168 24.8467 29.8233 22.2295C29.8282 20.2373 28.0343 19.061 26.003 19.056C24.2452 19.0516 23.2669 19.7523 22.444 20.8049C22.2871 21.0389 22.3255 21.3125 22.5595 21.4693L23.0664 21.8612C23.2614 21.9789 23.5349 21.9405 23.6916 21.7455C24.2794 21.0048 24.8663 20.6156 25.9991 20.6185C27.5616 20.6223 28.2627 21.4444 28.2608 22.2256C28.2566 23.9053 25.2103 23.6634 25.2035 26.3978C25.2029 26.6712 25.4367 26.8671 25.6711 26.8677L26.2961 26.8692ZM26.0495 16.0873C30.6588 16.0988 34.4775 19.8973 34.466 24.5457C34.4543 29.2332 30.656 32.9738 26.0075 32.9623C21.3201 32.9506 17.5794 29.1913 17.591 24.5038C17.6026 19.8554 21.362 16.0757 26.0495 16.0873ZM26.0526 14.8373C20.701 14.824 16.3542 19.1883 16.341 24.5007C16.3277 29.8523 20.6529 34.199 26.0044 34.2123C31.3169 34.2255 35.7027 29.9004 35.716 24.5489C35.7292 19.2364 31.365 14.8505 26.0526 14.8373Z" fill="#CC7400"/>
<path d="M47.0836 19.352V22.616H50.9236V24.104H47.0836V27.512H51.4036V29H45.2596V17.864H51.4036V19.352H47.0836ZM57.1702 29.144C56.4769 29.144 55.8529 29.0213 55.2982 28.776C54.7542 28.52 54.3222 28.1787 54.0022 27.752C53.6822 27.3147 53.5115 26.8293 53.4902 26.296H55.3782C55.4102 26.6693 55.5862 26.984 55.9062 27.24C56.2369 27.4853 56.6475 27.608 57.1382 27.608C57.6502 27.608 58.0449 27.512 58.3222 27.32C58.6102 27.1173 58.7542 26.8613 58.7542 26.552C58.7542 26.2213 58.5942 25.976 58.2742 25.816C57.9649 25.656 57.4689 25.48 56.7862 25.288C56.1249 25.1067 55.5862 24.9307 55.1702 24.76C54.7542 24.5893 54.3915 24.328 54.0822 23.976C53.7835 23.624 53.6342 23.16 53.6342 22.584C53.6342 22.1147 53.7729 21.688 54.0502 21.304C54.3275 20.9093 54.7222 20.6 55.2342 20.376C55.7569 20.152 56.3542 20.04 57.0262 20.04C58.0289 20.04 58.8342 20.296 59.4422 20.808C60.0609 21.3093 60.3915 21.9973 60.4342 22.872H58.6102C58.5782 22.4773 58.4182 22.1627 58.1302 21.928C57.8422 21.6933 57.4529 21.576 56.9622 21.576C56.4822 21.576 56.1142 21.6667 55.8582 21.848C55.6022 22.0293 55.4742 22.2693 55.4742 22.568C55.4742 22.8027 55.5595 23 55.7302 23.16C55.9009 23.32 56.1089 23.448 56.3542 23.544C56.5995 23.6293 56.9622 23.7413 57.4422 23.88C58.0822 24.0507 58.6049 24.2267 59.0102 24.408C59.4262 24.5787 59.7835 24.8347 60.0822 25.176C60.3809 25.5173 60.5355 25.9707 60.5462 26.536C60.5462 27.0373 60.4075 27.4853 60.1302 27.88C59.8529 28.2747 59.4582 28.584 58.9462 28.808C58.4449 29.032 57.8529 29.144 57.1702 29.144ZM64.9651 21.672V26.552C64.9651 26.8827 65.0397 27.1227 65.1891 27.272C65.3491 27.4107 65.6157 27.48 65.9891 27.48H67.1091V29H65.6691C64.8477 29 64.2184 28.808 63.7811 28.424C63.3437 28.04 63.1251 27.416 63.1251 26.552V21.672H62.0851V20.184H63.1251V17.992H64.9651V20.184H67.1091V21.672H64.9651ZM68.5022 24.552C68.5022 23.6667 68.6835 22.8827 69.0462 22.2C69.4195 21.5173 69.9209 20.9893 70.5502 20.616C71.1902 20.232 71.8942 20.04 72.6622 20.04C73.3555 20.04 73.9582 20.1787 74.4702 20.456C74.9929 20.7227 75.4089 21.0587 75.7182 21.464V20.184H77.5582V29H75.7182V27.688C75.4089 28.104 74.9875 28.4507 74.4542 28.728C73.9209 29.0053 73.3129 29.144 72.6302 29.144C71.8729 29.144 71.1795 28.952 70.5502 28.568C69.9209 28.1733 69.4195 27.6293 69.0462 26.936C68.6835 26.232 68.5022 25.4373 68.5022 24.552ZM75.7182 24.584C75.7182 23.976 75.5902 23.448 75.3342 23C75.0889 22.552 74.7635 22.2107 74.3582 21.976C73.9529 21.7413 73.5155 21.624 73.0462 21.624C72.5769 21.624 72.1395 21.7413 71.7342 21.976C71.3289 22.2 70.9982 22.536 70.7422 22.984C70.4969 23.4213 70.3742 23.944 70.3742 24.552C70.3742 25.16 70.4969 25.6933 70.7422 26.152C70.9982 26.6107 71.3289 26.9627 71.7342 27.208C72.1502 27.4427 72.5875 27.56 73.0462 27.56C73.5155 27.56 73.9529 27.4427 74.3582 27.208C74.7635 26.9733 75.0889 26.632 75.3342 26.184C75.5902 25.7253 75.7182 25.192 75.7182 24.584ZM90.9459 20.04C91.6393 20.04 92.2579 20.184 92.8019 20.472C93.3566 20.76 93.7886 21.1867 94.0979 21.752C94.4179 22.3173 94.5779 23 94.5779 23.8V29H92.7699V24.072C92.7699 23.2827 92.5726 22.68 92.1779 22.264C91.7833 21.8373 91.2446 21.624 90.5619 21.624C89.8793 21.624 89.3353 21.8373 88.9299 22.264C88.5353 22.68 88.3379 23.2827 88.3379 24.072V29H86.5299V24.072C86.5299 23.2827 86.3326 22.68 85.9379 22.264C85.5433 21.8373 85.0046 21.624 84.3219 21.624C83.6393 21.624 83.0953 21.8373 82.6899 22.264C82.2953 22.68 82.0979 23.2827 82.0979 24.072V29H80.2739V20.184H82.0979V21.192C82.3966 20.8293 82.7753 20.5467 83.2339 20.344C83.6926 20.1413 84.1833 20.04 84.7059 20.04C85.4099 20.04 86.0393 20.1893 86.5939 20.488C87.1486 20.7867 87.5753 21.2187 87.8739 21.784C88.1406 21.2507 88.5566 20.8293 89.1219 20.52C89.6873 20.2 90.2953 20.04 90.9459 20.04ZM101.043 29.144C100.211 29.144 99.4589 28.9573 98.7869 28.584C98.1149 28.2 97.5869 27.6667 97.2029 26.984C96.8189 26.2907 96.6269 25.4907 96.6269 24.584C96.6269 23.688 96.8243 22.8933 97.2189 22.2C97.6136 21.5067 98.1523 20.9733 98.8349 20.6C99.5176 20.2267 100.28 20.04 101.123 20.04C101.966 20.04 102.728 20.2267 103.411 20.6C104.094 20.9733 104.632 21.5067 105.027 22.2C105.422 22.8933 105.619 23.688 105.619 24.584C105.619 25.48 105.416 26.2747 105.011 26.968C104.606 27.6613 104.051 28.2 103.347 28.584C102.654 28.9573 101.886 29.144 101.043 29.144ZM101.043 27.56C101.512 27.56 101.95 27.448 102.355 27.224C102.771 27 103.107 26.664 103.363 26.216C103.619 25.768 103.747 25.224 103.747 24.584C103.747 23.944 103.624 23.4053 103.379 22.968C103.134 22.52 102.808 22.184 102.403 21.96C101.998 21.736 101.56 21.624 101.091 21.624C100.622 21.624 100.184 21.736 99.7789 21.96C99.3843 22.184 99.0696 22.52 98.8349 22.968C98.6003 23.4053 98.4829 23.944 98.4829 24.584C98.4829 25.5333 98.7229 26.2693 99.2029 26.792C99.6936 27.304 100.307 27.56 101.043 27.56ZM110.942 29.144C110.249 29.144 109.625 29.0213 109.07 28.776C108.526 28.52 108.094 28.1787 107.774 27.752C107.454 27.3147 107.283 26.8293 107.262 26.296H109.15C109.182 26.6693 109.358 26.984 109.678 27.24C110.009 27.4853 110.419 27.608 110.91 27.608C111.422 27.608 111.817 27.512 112.094 27.32C112.382 27.1173 112.526 26.8613 112.526 26.552C112.526 26.2213 112.366 25.976 112.046 25.816C111.737 25.656 111.241 25.48 110.558 25.288C109.897 25.1067 109.358 24.9307 108.942 24.76C108.526 24.5893 108.163 24.328 107.854 23.976C107.555 23.624 107.406 23.16 107.406 22.584C107.406 22.1147 107.545 21.688 107.822 21.304C108.099 20.9093 108.494 20.6 109.006 20.376C109.529 20.152 110.126 20.04 110.798 20.04C111.801 20.04 112.606 20.296 113.214 20.808C113.833 21.3093 114.163 21.9973 114.206 22.872H112.382C112.35 22.4773 112.19 22.1627 111.902 21.928C111.614 21.6933 111.225 21.576 110.734 21.576C110.254 21.576 109.886 21.6667 109.63 21.848C109.374 22.0293 109.246 22.2693 109.246 22.568C109.246 22.8027 109.331 23 109.502 23.16C109.673 23.32 109.881 23.448 110.126 23.544C110.371 23.6293 110.734 23.7413 111.214 23.88C111.854 24.0507 112.377 24.2267 112.782 24.408C113.198 24.5787 113.555 24.8347 113.854 25.176C114.153 25.5173 114.307 25.9707 114.318 26.536C114.318 27.0373 114.179 27.4853 113.902 27.88C113.625 28.2747 113.23 28.584 112.718 28.808C112.217 29.032 111.625 29.144 110.942 29.144ZM122.909 21.48C123.219 21.0747 123.64 20.7333 124.173 20.456C124.707 20.1787 125.309 20.04 125.981 20.04C126.749 20.04 127.448 20.232 128.077 20.616C128.717 20.9893 129.219 21.5173 129.581 22.2C129.944 22.8827 130.125 23.6667 130.125 24.552C130.125 25.4373 129.944 26.232 129.581 26.936C129.219 27.6293 128.717 28.1733 128.077 28.568C127.448 28.952 126.749 29.144 125.981 29.144C125.309 29.144 124.712 29.0107 124.189 28.744C123.667 28.4667 123.24 28.1253 122.909 27.72V33.192H121.085V20.184H122.909V21.48ZM128.269 24.552C128.269 23.944 128.141 23.4213 127.885 22.984C127.64 22.536 127.309 22.2 126.893 21.976C126.488 21.7413 126.051 21.624 125.581 21.624C125.123 21.624 124.685 21.7413 124.269 21.976C123.864 22.2107 123.533 22.552 123.277 23C123.032 23.448 122.909 23.976 122.909 24.584C122.909 25.192 123.032 25.7253 123.277 26.184C123.533 26.632 123.864 26.9733 124.269 27.208C124.685 27.4427 125.123 27.56 125.581 27.56C126.051 27.56 126.488 27.4427 126.893 27.208C127.309 26.9627 127.64 26.6107 127.885 26.152C128.141 25.6933 128.269 25.16 128.269 24.552ZM134.073 21.464C134.34 21.016 134.692 20.6693 135.129 20.424C135.577 20.168 136.105 20.04 136.713 20.04V21.928H136.249C135.534 21.928 134.99 22.1093 134.617 22.472C134.254 22.8347 134.073 23.464 134.073 24.36V29H132.249V20.184H134.073V21.464ZM142.534 29.144C141.702 29.144 140.95 28.9573 140.278 28.584C139.606 28.2 139.078 27.6667 138.694 26.984C138.31 26.2907 138.118 25.4907 138.118 24.584C138.118 23.688 138.315 22.8933 138.71 22.2C139.104 21.5067 139.643 20.9733 140.326 20.6C141.008 20.2267 141.771 20.04 142.614 20.04C143.456 20.04 144.219 20.2267 144.902 20.6C145.584 20.9733 146.123 21.5067 146.518 22.2C146.912 22.8933 147.11 23.688 147.11 24.584C147.11 25.48 146.907 26.2747 146.502 26.968C146.096 27.6613 145.542 28.2 144.838 28.584C144.144 28.9573 143.376 29.144 142.534 29.144ZM142.534 27.56C143.003 27.56 143.44 27.448 143.846 27.224C144.262 27 144.598 26.664 144.854 26.216C145.11 25.768 145.238 25.224 145.238 24.584C145.238 23.944 145.115 23.4053 144.87 22.968C144.624 22.52 144.299 22.184 143.894 21.96C143.488 21.736 143.051 21.624 142.582 21.624C142.112 21.624 141.675 21.736 141.27 21.96C140.875 22.184 140.56 22.52 140.326 22.968C140.091 23.4053 139.974 23.944 139.974 24.584C139.974 25.5333 140.214 26.2693 140.694 26.792C141.184 27.304 141.798 27.56 142.534 27.56ZM148.625 24.584C148.625 23.6773 148.806 22.8827 149.169 22.2C149.542 21.5067 150.054 20.9733 150.705 20.6C151.355 20.2267 152.102 20.04 152.945 20.04C154.011 20.04 154.891 20.296 155.585 20.808C156.289 21.3093 156.763 22.0293 157.009 22.968H155.041C154.881 22.5307 154.625 22.1893 154.273 21.944C153.921 21.6987 153.478 21.576 152.945 21.576C152.198 21.576 151.601 21.8427 151.153 22.376C150.715 22.8987 150.497 23.6347 150.497 24.584C150.497 25.5333 150.715 26.2747 151.153 26.808C151.601 27.3413 152.198 27.608 152.945 27.608C154.001 27.608 154.699 27.144 155.041 26.216H157.009C156.753 27.112 156.273 27.8267 155.569 28.36C154.865 28.8827 153.99 29.144 152.945 29.144C152.102 29.144 151.355 28.9573 150.705 28.584C150.054 28.2 149.542 27.6667 149.169 26.984C148.806 26.2907 148.625 25.4907 148.625 24.584ZM167.226 24.376C167.226 24.7067 167.205 25.0053 167.162 25.272H160.426C160.48 25.976 160.741 26.5413 161.21 26.968C161.68 27.3947 162.256 27.608 162.938 27.608C163.92 27.608 164.613 27.1973 165.018 26.376H166.986C166.72 27.1867 166.234 27.8533 165.53 28.376C164.837 28.888 163.973 29.144 162.938 29.144C162.096 29.144 161.338 28.9573 160.666 28.584C160.005 28.2 159.482 27.6667 159.098 26.984C158.725 26.2907 158.538 25.4907 158.538 24.584C158.538 23.6773 158.72 22.8827 159.082 22.2C159.456 21.5067 159.973 20.9733 160.634 20.6C161.306 20.2267 162.074 20.04 162.938 20.04C163.77 20.04 164.512 20.2213 165.162 20.584C165.813 20.9467 166.32 21.4587 166.682 22.12C167.045 22.7707 167.226 23.5227 167.226 24.376ZM165.322 23.8C165.312 23.128 165.072 22.5893 164.602 22.184C164.133 21.7787 163.552 21.576 162.858 21.576C162.229 21.576 161.69 21.7787 161.242 22.184C160.794 22.5787 160.528 23.1173 160.442 23.8H165.322ZM172.541 29.144C171.848 29.144 171.224 29.0213 170.669 28.776C170.125 28.52 169.693 28.1787 169.373 27.752C169.053 27.3147 168.883 26.8293 168.861 26.296H170.749C170.781 26.6693 170.957 26.984 171.277 27.24C171.608 27.4853 172.019 27.608 172.509 27.608C173.021 27.608 173.416 27.512 173.693 27.32C173.981 27.1173 174.125 26.8613 174.125 26.552C174.125 26.2213 173.965 25.976 173.645 25.816C173.336 25.656 172.84 25.48 172.157 25.288C171.496 25.1067 170.957 24.9307 170.541 24.76C170.125 24.5893 169.763 24.328 169.453 23.976C169.155 23.624 169.005 23.16 169.005 22.584C169.005 22.1147 169.144 21.688 169.421 21.304C169.699 20.9093 170.093 20.6 170.605 20.376C171.128 20.152 171.725 20.04 172.397 20.04C173.4 20.04 174.205 20.296 174.813 20.808C175.432 21.3093 175.763 21.9973 175.805 22.872H173.981C173.949 22.4773 173.789 22.1627 173.501 21.928C173.213 21.6933 172.824 21.576 172.333 21.576C171.853 21.576 171.485 21.6667 171.229 21.848C170.973 22.0293 170.845 22.2693 170.845 22.568C170.845 22.8027 170.931 23 171.101 23.16C171.272 23.32 171.48 23.448 171.725 23.544C171.971 23.6293 172.333 23.7413 172.813 23.88C173.453 24.0507 173.976 24.2267 174.381 24.408C174.797 24.5787 175.155 24.8347 175.453 25.176C175.752 25.5173 175.907 25.9707 175.917 26.536C175.917 27.0373 175.779 27.4853 175.501 27.88C175.224 28.2747 174.829 28.584 174.317 28.808C173.816 29.032 173.224 29.144 172.541 29.144ZM181.408 29.144C180.715 29.144 180.091 29.0213 179.536 28.776C178.992 28.52 178.56 28.1787 178.24 27.752C177.92 27.3147 177.75 26.8293 177.728 26.296H179.616C179.648 26.6693 179.824 26.984 180.144 27.24C180.475 27.4853 180.886 27.608 181.376 27.608C181.888 27.608 182.283 27.512 182.56 27.32C182.848 27.1173 182.992 26.8613 182.992 26.552C182.992 26.2213 182.832 25.976 182.512 25.816C182.203 25.656 181.707 25.48 181.024 25.288C180.363 25.1067 179.824 24.9307 179.408 24.76C178.992 24.5893 178.63 24.328 178.32 23.976C178.022 23.624 177.872 23.16 177.872 22.584C177.872 22.1147 178.011 21.688 178.288 21.304C178.566 20.9093 178.96 20.6 179.472 20.376C179.995 20.152 180.592 20.04 181.264 20.04C182.267 20.04 183.072 20.296 183.68 20.808C184.299 21.3093 184.63 21.9973 184.672 22.872H182.848C182.816 22.4773 182.656 22.1627 182.368 21.928C182.08 21.6933 181.691 21.576 181.2 21.576C180.72 21.576 180.352 21.6667 180.096 21.848C179.84 22.0293 179.712 22.2693 179.712 22.568C179.712 22.8027 179.798 23 179.968 23.16C180.139 23.32 180.347 23.448 180.592 23.544C180.838 23.6293 181.2 23.7413 181.68 23.88C182.32 24.0507 182.843 24.2267 183.248 24.408C183.664 24.5787 184.022 24.8347 184.32 25.176C184.619 25.5173 184.774 25.9707 184.784 26.536C184.784 27.0373 184.646 27.4853 184.368 27.88C184.091 28.2747 183.696 28.584 183.184 28.808C182.683 29.032 182.091 29.144 181.408 29.144ZM186.467 24.552C186.467 23.6667 186.649 22.8827 187.011 22.2C187.385 21.5173 187.886 20.9893 188.515 20.616C189.155 20.232 189.859 20.04 190.627 20.04C191.321 20.04 191.923 20.1787 192.435 20.456C192.958 20.7227 193.374 21.0587 193.683 21.464V20.184H195.523V29H193.683V27.688C193.374 28.104 192.953 28.4507 192.419 28.728C191.886 29.0053 191.278 29.144 190.595 29.144C189.838 29.144 189.145 28.952 188.515 28.568C187.886 28.1733 187.385 27.6293 187.011 26.936C186.649 26.232 186.467 25.4373 186.467 24.552ZM193.683 24.584C193.683 23.976 193.555 23.448 193.299 23C193.054 22.552 192.729 22.2107 192.323 21.976C191.918 21.7413 191.481 21.624 191.011 21.624C190.542 21.624 190.105 21.7413 189.699 21.976C189.294 22.2 188.963 22.536 188.707 22.984C188.462 23.4213 188.339 23.944 188.339 24.552C188.339 25.16 188.462 25.6933 188.707 26.152C188.963 26.6107 189.294 26.9627 189.699 27.208C190.115 27.4427 190.553 27.56 191.011 27.56C191.481 27.56 191.918 27.4427 192.323 27.208C192.729 26.9733 193.054 26.632 193.299 26.184C193.555 25.7253 193.683 25.192 193.683 24.584ZM202.687 20.04C203.38 20.04 203.999 20.184 204.543 20.472C205.098 20.76 205.53 21.1867 205.839 21.752C206.148 22.3173 206.303 23 206.303 23.8V29H204.495V24.072C204.495 23.2827 204.298 22.68 203.903 22.264C203.508 21.8373 202.97 21.624 202.287 21.624C201.604 21.624 201.06 21.8373 200.655 22.264C200.26 22.68 200.063 23.2827 200.063 24.072V29H198.239V20.184H200.063V21.192C200.362 20.8293 200.74 20.5467 201.199 20.344C201.668 20.1413 202.164 20.04 202.687 20.04ZM208.342 24.552C208.342 23.6667 208.523 22.8827 208.886 22.2C209.259 21.5173 209.76 20.9893 210.39 20.616C211.03 20.232 211.739 20.04 212.518 20.04C213.094 20.04 213.659 20.168 214.214 20.424C214.779 20.6693 215.227 21 215.558 21.416V17.16H217.398V29H215.558V27.672C215.259 28.0987 214.843 28.4507 214.31 28.728C213.787 29.0053 213.184 29.144 212.502 29.144C211.734 29.144 211.03 28.952 210.39 28.568C209.76 28.1733 209.259 27.6293 208.886 26.936C208.523 26.232 208.342 25.4373 208.342 24.552ZM215.558 24.584C215.558 23.976 215.43 23.448 215.174 23C214.928 22.552 214.603 22.2107 214.198 21.976C213.792 21.7413 213.355 21.624 212.886 21.624C212.416 21.624 211.979 21.7413 211.574 21.976C211.168 22.2 210.838 22.536 210.582 22.984C210.336 23.4213 210.214 23.944 210.214 24.552C210.214 25.16 210.336 25.6933 210.582 26.152C210.838 26.6107 211.168 26.9627 211.574 27.208C211.99 27.4427 212.427 27.56 212.886 27.56C213.355 27.56 213.792 27.4427 214.198 27.208C214.603 26.9733 214.928 26.632 215.174 26.184C215.43 25.7253 215.558 25.192 215.558 24.584ZM223.937 29.144C223.105 29.144 222.353 28.9573 221.681 28.584C221.009 28.2 220.481 27.6667 220.097 26.984C219.713 26.2907 219.521 25.4907 219.521 24.584C219.521 23.688 219.719 22.8933 220.113 22.2C220.508 21.5067 221.047 20.9733 221.729 20.6C222.412 20.2267 223.175 20.04 224.017 20.04C224.86 20.04 225.623 20.2267 226.305 20.6C226.988 20.9733 227.527 21.5067 227.921 22.2C228.316 22.8933 228.513 23.688 228.513 24.584C228.513 25.48 228.311 26.2747 227.905 26.968C227.5 27.6613 226.945 28.2 226.241 28.584C225.548 28.9573 224.78 29.144 223.937 29.144ZM223.937 27.56C224.407 27.56 224.844 27.448 225.249 27.224C225.665 27 226.001 26.664 226.257 26.216C226.513 25.768 226.641 25.224 226.641 24.584C226.641 23.944 226.519 23.4053 226.273 22.968C226.028 22.52 225.703 22.184 225.297 21.96C224.892 21.736 224.455 21.624 223.985 21.624C223.516 21.624 223.079 21.736 222.673 21.96C222.279 22.184 221.964 22.52 221.729 22.968C221.495 23.4053 221.377 23.944 221.377 24.584C221.377 25.5333 221.617 26.2693 222.097 26.792C222.588 27.304 223.201 27.56 223.937 27.56ZM238.313 29.144C237.619 29.144 236.995 29.0213 236.441 28.776C235.897 28.52 235.465 28.1787 235.145 27.752C234.825 27.3147 234.654 26.8293 234.633 26.296H236.521C236.553 26.6693 236.729 26.984 237.049 27.24C237.379 27.4853 237.79 27.608 238.281 27.608C238.793 27.608 239.187 27.512 239.465 27.32C239.753 27.1173 239.897 26.8613 239.897 26.552C239.897 26.2213 239.737 25.976 239.417 25.816C239.107 25.656 238.611 25.48 237.929 25.288C237.267 25.1067 236.729 24.9307 236.313 24.76C235.897 24.5893 235.534 24.328 235.225 23.976C234.926 23.624 234.777 23.16 234.777 22.584C234.777 22.1147 234.915 21.688 235.193 21.304C235.47 20.9093 235.865 20.6 236.377 20.376C236.899 20.152 237.497 20.04 238.169 20.04C239.171 20.04 239.977 20.296 240.585 20.808C241.203 21.3093 241.534 21.9973 241.577 22.872H239.753C239.721 22.4773 239.561 22.1627 239.273 21.928C238.985 21.6933 238.595 21.576 238.105 21.576C237.625 21.576 237.257 21.6667 237.001 21.848C236.745 22.0293 236.617 22.2693 236.617 22.568C236.617 22.8027 236.702 23 236.873 23.16C237.043 23.32 237.251 23.448 237.497 23.544C237.742 23.6293 238.105 23.7413 238.585 23.88C239.225 24.0507 239.747 24.2267 240.153 24.408C240.569 24.5787 240.926 24.8347 241.225 25.176C241.523 25.5173 241.678 25.9707 241.689 26.536C241.689 27.0373 241.55 27.4853 241.273 27.88C240.995 28.2747 240.601 28.584 240.089 28.808C239.587 29.032 238.995 29.144 238.313 29.144ZM251.964 20.184V29H250.14V27.96C249.852 28.3227 249.473 28.6107 249.004 28.824C248.545 29.0267 248.054 29.128 247.532 29.128C246.838 29.128 246.214 28.984 245.66 28.696C245.116 28.408 244.684 27.9813 244.364 27.416C244.054 26.8507 243.9 26.168 243.9 25.368V20.184H245.708V25.096C245.708 25.8853 245.905 26.4933 246.3 26.92C246.694 27.336 247.233 27.544 247.916 27.544C248.598 27.544 249.137 27.336 249.532 26.92C249.937 26.4933 250.14 25.8853 250.14 25.096V20.184H251.964ZM254.082 24.552C254.082 23.6667 254.264 22.8827 254.626 22.2C255 21.5173 255.501 20.9893 256.13 20.616C256.77 20.232 257.474 20.04 258.242 20.04C258.936 20.04 259.538 20.1787 260.05 20.456C260.573 20.7227 260.989 21.0587 261.298 21.464V20.184H263.138V29H261.298V27.688C260.989 28.104 260.568 28.4507 260.034 28.728C259.501 29.0053 258.893 29.144 258.21 29.144C257.453 29.144 256.76 28.952 256.13 28.568C255.501 28.1733 255 27.6293 254.626 26.936C254.264 26.232 254.082 25.4373 254.082 24.552ZM261.298 24.584C261.298 23.976 261.17 23.448 260.914 23C260.669 22.552 260.344 22.2107 259.938 21.976C259.533 21.7413 259.096 21.624 258.626 21.624C258.157 21.624 257.72 21.7413 257.314 21.976C256.909 22.2 256.578 22.536 256.322 22.984C256.077 23.4213 255.954 23.944 255.954 24.552C255.954 25.16 256.077 25.6933 256.322 26.152C256.578 26.6107 256.909 26.9627 257.314 27.208C257.73 27.4427 258.168 27.56 258.626 27.56C259.096 27.56 259.533 27.4427 259.938 27.208C260.344 26.9733 260.669 26.632 260.914 26.184C261.17 25.7253 261.298 25.192 261.298 24.584ZM44.6516 46.584C44.6516 45.6773 44.8329 44.8827 45.1956 44.2C45.5689 43.5067 46.0809 42.9733 46.7316 42.6C47.3822 42.2267 48.1289 42.04 48.9716 42.04C50.0382 42.04 50.9182 42.296 51.6116 42.808C52.3156 43.3093 52.7902 44.0293 53.0356 44.968H51.0676C50.9076 44.5307 50.6516 44.1893 50.2996 43.944C49.9476 43.6987 49.5049 43.576 48.9716 43.576C48.2249 43.576 47.6276 43.8427 47.1796 44.376C46.7422 44.8987 46.5236 45.6347 46.5236 46.584C46.5236 47.5333 46.7422 48.2747 47.1796 48.808C47.6276 49.3413 48.2249 49.608 48.9716 49.608C50.0276 49.608 50.7262 49.144 51.0676 48.216H53.0356C52.7796 49.112 52.2996 49.8267 51.5956 50.36C50.8916 50.8827 50.0169 51.144 48.9716 51.144C48.1289 51.144 47.3822 50.9573 46.7316 50.584C46.0809 50.2 45.5689 49.6667 45.1956 48.984C44.8329 48.2907 44.6516 47.4907 44.6516 46.584ZM58.9973 51.144C58.1653 51.144 57.4133 50.9573 56.7413 50.584C56.0693 50.2 55.5413 49.6667 55.1573 48.984C54.7733 48.2907 54.5813 47.4907 54.5813 46.584C54.5813 45.688 54.7787 44.8933 55.1733 44.2C55.568 43.5067 56.1067 42.9733 56.7893 42.6C57.472 42.2267 58.2347 42.04 59.0773 42.04C59.92 42.04 60.6827 42.2267 61.3653 42.6C62.048 42.9733 62.5867 43.5067 62.9813 44.2C63.376 44.8933 63.5733 45.688 63.5733 46.584C63.5733 47.48 63.3707 48.2747 62.9653 48.968C62.56 49.6613 62.0053 50.2 61.3013 50.584C60.608 50.9573 59.84 51.144 58.9973 51.144ZM58.9973 49.56C59.4667 49.56 59.904 49.448 60.3093 49.224C60.7253 49 61.0613 48.664 61.3173 48.216C61.5733 47.768 61.7013 47.224 61.7013 46.584C61.7013 45.944 61.5787 45.4053 61.3333 44.968C61.088 44.52 60.7627 44.184 60.3573 43.96C59.952 43.736 59.5147 43.624 59.0453 43.624C58.576 43.624 58.1387 43.736 57.7333 43.96C57.3387 44.184 57.024 44.52 56.7893 44.968C56.5547 45.4053 56.4373 45.944 56.4373 46.584C56.4373 47.5333 56.6773 48.2693 57.1573 48.792C57.648 49.304 58.2613 49.56 58.9973 49.56ZM76.3684 42.04C77.0618 42.04 77.6804 42.184 78.2244 42.472C78.7791 42.76 79.2111 43.1867 79.5204 43.752C79.8404 44.3173 80.0004 45 80.0004 45.8V51H78.1924V46.072C78.1924 45.2827 77.9951 44.68 77.6004 44.264C77.2058 43.8373 76.6671 43.624 75.9844 43.624C75.3018 43.624 74.7578 43.8373 74.3524 44.264C73.9578 44.68 73.7604 45.2827 73.7604 46.072V51H71.9524V46.072C71.9524 45.2827 71.7551 44.68 71.3604 44.264C70.9658 43.8373 70.4271 43.624 69.7444 43.624C69.0618 43.624 68.5178 43.8373 68.1124 44.264C67.7178 44.68 67.5204 45.2827 67.5204 46.072V51H65.6964V42.184H67.5204V43.192C67.8191 42.8293 68.1978 42.5467 68.6564 42.344C69.1151 42.1413 69.6058 42.04 70.1284 42.04C70.8324 42.04 71.4618 42.1893 72.0164 42.488C72.5711 42.7867 72.9978 43.2187 73.2964 43.784C73.5631 43.2507 73.9791 42.8293 74.5444 42.52C75.1098 42.2 75.7178 42.04 76.3684 42.04ZM84.4654 43.48C84.7748 43.0747 85.1961 42.7333 85.7294 42.456C86.2628 42.1787 86.8654 42.04 87.5374 42.04C88.3054 42.04 89.0041 42.232 89.6334 42.616C90.2734 42.9893 90.7748 43.5173 91.1374 44.2C91.5001 44.8827 91.6814 45.6667 91.6814 46.552C91.6814 47.4373 91.5001 48.232 91.1374 48.936C90.7748 49.6293 90.2734 50.1733 89.6334 50.568C89.0041 50.952 88.3054 51.144 87.5374 51.144C86.8654 51.144 86.2681 51.0107 85.7454 50.744C85.2228 50.4667 84.7961 50.1253 84.4654 49.72V55.192H82.6414V42.184H84.4654V43.48ZM89.8254 46.552C89.8254 45.944 89.6974 45.4213 89.4414 44.984C89.1961 44.536 88.8654 44.2 88.4494 43.976C88.0441 43.7413 87.6068 43.624 87.1374 43.624C86.6788 43.624 86.2414 43.7413 85.8254 43.976C85.4201 44.2107 85.0894 44.552 84.8334 45C84.5881 45.448 84.4654 45.976 84.4654 46.584C84.4654 47.192 84.5881 47.7253 84.8334 48.184C85.0894 48.632 85.4201 48.9733 85.8254 49.208C86.2414 49.4427 86.6788 49.56 87.1374 49.56C87.6068 49.56 88.0441 49.4427 88.4494 49.208C88.8654 48.9627 89.1961 48.6107 89.4414 48.152C89.6974 47.6933 89.8254 47.16 89.8254 46.552ZM95.6292 43.464C95.8959 43.016 96.2479 42.6693 96.6852 42.424C97.1332 42.168 97.6612 42.04 98.2692 42.04V43.928H97.8052C97.0905 43.928 96.5465 44.1093 96.1732 44.472C95.8105 44.8347 95.6292 45.464 95.6292 46.36V51H93.8052V42.184H95.6292V43.464ZM99.6578 46.552C99.6578 45.6667 99.8392 44.8827 100.202 44.2C100.575 43.5173 101.076 42.9893 101.706 42.616C102.346 42.232 103.05 42.04 103.818 42.04C104.511 42.04 105.114 42.1787 105.626 42.456C106.148 42.7227 106.564 43.0587 106.874 43.464V42.184H108.714V51H106.874V49.688C106.564 50.104 106.143 50.4507 105.61 50.728C105.076 51.0053 104.468 51.144 103.786 51.144C103.028 51.144 102.335 50.952 101.706 50.568C101.076 50.1733 100.575 49.6293 100.202 48.936C99.8392 48.232 99.6578 47.4373 99.6578 46.552ZM106.874 46.584C106.874 45.976 106.746 45.448 106.49 45C106.244 44.552 105.919 44.2107 105.514 43.976C105.108 43.7413 104.671 43.624 104.202 43.624C103.732 43.624 103.295 43.7413 102.89 43.976C102.484 44.2 102.154 44.536 101.898 44.984C101.652 45.4213 101.53 45.944 101.53 46.552C101.53 47.16 101.652 47.6933 101.898 48.152C102.154 48.6107 102.484 48.9627 102.89 49.208C103.306 49.4427 103.743 49.56 104.202 49.56C104.671 49.56 105.108 49.4427 105.514 49.208C105.919 48.9733 106.244 48.632 106.49 48.184C106.746 47.7253 106.874 47.192 106.874 46.584ZM113.718 39.88L113.51 47.64H111.99L111.782 39.88H113.718ZM112.806 51.112C112.475 51.112 112.198 51 111.974 50.776C111.75 50.552 111.638 50.2747 111.638 49.944C111.638 49.6133 111.75 49.336 111.974 49.112C112.198 48.888 112.475 48.776 112.806 48.776C113.126 48.776 113.398 48.888 113.622 49.112C113.846 49.336 113.958 49.6133 113.958 49.944C113.958 50.2747 113.846 50.552 113.622 50.776C113.398 51 113.126 51.112 112.806 51.112Z" fill="#29333D"/>
<path d="M52.5576 75H51.5776L46.1596 66.768V75H45.1796V65.214H46.1596L51.5776 73.432V65.214H52.5576V75ZM54.3292 71.164C54.3292 70.38 54.4832 69.694 54.7912 69.106C55.1086 68.5087 55.5426 68.0513 56.0932 67.734C56.6532 67.4073 57.2832 67.244 57.9832 67.244C58.7112 67.244 59.3366 67.412 59.8592 67.748C60.3912 68.084 60.7739 68.5133 61.0072 69.036V67.356H61.9872V75H61.0072V73.306C60.7646 73.8287 60.3772 74.2627 59.8452 74.608C59.3226 74.944 58.6972 75.112 57.9692 75.112C57.2786 75.112 56.6532 74.9487 56.0932 74.622C55.5426 74.2953 55.1086 73.8333 54.7912 73.236C54.4832 72.6387 54.3292 71.948 54.3292 71.164ZM61.0072 71.178C61.0072 70.562 60.8812 70.0207 60.6292 69.554C60.3772 69.0873 60.0319 68.728 59.5932 68.476C59.1639 68.224 58.6879 68.098 58.1652 68.098C57.6239 68.098 57.1386 68.2193 56.7092 68.462C56.2799 68.7047 55.9392 69.0593 55.6872 69.526C55.4446 69.9833 55.3232 70.5293 55.3232 71.164C55.3232 71.7893 55.4446 72.34 55.6872 72.816C55.9392 73.2827 56.2799 73.642 56.7092 73.894C57.1386 74.1367 57.6239 74.258 58.1652 74.258C58.6879 74.258 59.1639 74.132 59.5932 73.88C60.0319 73.628 60.3772 73.2687 60.6292 72.802C60.8812 72.3353 61.0072 71.794 61.0072 71.178ZM56.5552 66.516C56.6112 66.096 56.7466 65.774 56.9612 65.55C57.1759 65.326 57.4512 65.214 57.7872 65.214C57.9552 65.214 58.0999 65.2467 58.2212 65.312C58.3426 65.368 58.4872 65.452 58.6552 65.564C58.7952 65.6667 58.9166 65.746 59.0192 65.802C59.1219 65.8487 59.2339 65.872 59.3552 65.872C59.5139 65.872 59.6492 65.8207 59.7612 65.718C59.8732 65.606 59.9432 65.4473 59.9712 65.242H60.5592C60.5219 65.6527 60.3866 65.9747 60.1532 66.208C59.9292 66.432 59.6492 66.544 59.3132 66.544C59.1359 66.544 58.9819 66.516 58.8512 66.46C58.7299 66.3947 58.5852 66.3013 58.4172 66.18C58.2866 66.0773 58.1699 66.0027 58.0672 65.956C57.9739 65.9093 57.8666 65.886 57.7452 65.886C57.4092 65.886 57.2132 66.096 57.1572 66.516H56.5552ZM67.5705 75.112C66.8518 75.112 66.2032 74.9533 65.6245 74.636C65.0552 74.3093 64.6025 73.852 64.2665 73.264C63.9398 72.6667 63.7765 71.9713 63.7765 71.178C63.7765 70.3847 63.9445 69.694 64.2805 69.106C64.6165 68.5087 65.0738 68.0513 65.6525 67.734C66.2312 67.4073 66.8798 67.244 67.5985 67.244C68.3172 67.244 68.9658 67.4073 69.5445 67.734C70.1325 68.0513 70.5898 68.5087 70.9165 69.106C71.2525 69.694 71.4205 70.3847 71.4205 71.178C71.4205 71.962 71.2525 72.6527 70.9165 73.25C70.5805 73.8473 70.1185 74.3093 69.5305 74.636C68.9425 74.9533 68.2892 75.112 67.5705 75.112ZM67.5705 74.258C68.0745 74.258 68.5412 74.146 68.9705 73.922C69.3998 73.6887 69.7452 73.3433 70.0065 72.886C70.2772 72.4193 70.4125 71.85 70.4125 71.178C70.4125 70.506 70.2818 69.9413 70.0205 69.484C69.7592 69.0173 69.4138 68.672 68.9845 68.448C68.5552 68.2147 68.0885 68.098 67.5845 68.098C67.0805 68.098 66.6138 68.2147 66.1845 68.448C65.7552 68.672 65.4098 69.0173 65.1485 69.484C64.8965 69.9413 64.7705 70.506 64.7705 71.178C64.7705 71.85 64.8965 72.4193 65.1485 72.886C65.4098 73.3433 65.7505 73.6887 66.1705 73.922C66.5998 74.146 67.0665 74.258 67.5705 74.258ZM80.0587 68.182H78.2807V75H77.3007V68.182H76.2367V67.356H77.3007V66.824C77.3007 65.9933 77.5107 65.382 77.9307 64.99C78.36 64.598 79.0507 64.402 80.0027 64.402V65.242C79.368 65.242 78.92 65.3633 78.6587 65.606C78.4067 65.8487 78.2807 66.2547 78.2807 66.824V67.356H80.0587V68.182ZM88.5174 70.786C88.5174 71.122 88.5081 71.3787 88.4894 71.556H82.1474C82.1754 72.1347 82.3154 72.6293 82.5674 73.04C82.8194 73.4507 83.1508 73.7633 83.5614 73.978C83.9721 74.1833 84.4201 74.286 84.9054 74.286C85.5401 74.286 86.0721 74.132 86.5014 73.824C86.9401 73.516 87.2294 73.1007 87.3694 72.578H88.4054C88.2188 73.3247 87.8174 73.936 87.2014 74.412C86.5948 74.8787 85.8294 75.112 84.9054 75.112C84.1868 75.112 83.5428 74.9533 82.9734 74.636C82.4041 74.3093 81.9561 73.852 81.6294 73.264C81.3121 72.6667 81.1534 71.9713 81.1534 71.178C81.1534 70.3847 81.3121 69.6893 81.6294 69.092C81.9468 68.4947 82.3901 68.0373 82.9594 67.72C83.5288 67.4027 84.1774 67.244 84.9054 67.244C85.6334 67.244 86.2681 67.4027 86.8094 67.72C87.3601 68.0373 87.7801 68.4667 88.0694 69.008C88.3681 69.54 88.5174 70.1327 88.5174 70.786ZM87.5234 70.758C87.5328 70.1887 87.4161 69.7033 87.1734 69.302C86.9401 68.9007 86.6181 68.5973 86.2074 68.392C85.7968 68.1867 85.3488 68.084 84.8634 68.084C84.1354 68.084 83.5148 68.3173 83.0014 68.784C82.4881 69.2507 82.2034 69.9087 82.1474 70.758H87.5234ZM89.8624 71.178C89.8624 70.3847 90.0211 69.694 90.3384 69.106C90.6558 68.5087 91.0944 68.0513 91.6544 67.734C92.2144 67.4073 92.8538 67.244 93.5724 67.244C94.5151 67.244 95.2898 67.4773 95.8964 67.944C96.5124 68.4107 96.9091 69.0453 97.0864 69.848H96.0364C95.9058 69.2973 95.6211 68.868 95.1824 68.56C94.7531 68.2427 94.2164 68.084 93.5724 68.084C93.0591 68.084 92.5971 68.2007 92.1864 68.434C91.7758 68.6673 91.4491 69.0173 91.2064 69.484C90.9731 69.9413 90.8564 70.506 90.8564 71.178C90.8564 71.85 90.9731 72.4193 91.2064 72.886C91.4491 73.3527 91.7758 73.7027 92.1864 73.936C92.5971 74.1693 93.0591 74.286 93.5724 74.286C94.2164 74.286 94.7531 74.132 95.1824 73.824C95.6211 73.5067 95.9058 73.068 96.0364 72.508H97.0864C96.9091 73.292 96.5124 73.922 95.8964 74.398C95.2804 74.874 94.5058 75.112 93.5724 75.112C92.8538 75.112 92.2144 74.9533 91.6544 74.636C91.0944 74.3093 90.6558 73.852 90.3384 73.264C90.0211 72.6667 89.8624 71.9713 89.8624 71.178ZM102.536 67.216C103.115 67.216 103.633 67.3373 104.09 67.58C104.557 67.8227 104.921 68.196 105.182 68.7C105.453 69.1947 105.588 69.8013 105.588 70.52V75H104.622V70.632C104.622 69.8013 104.412 69.1667 103.992 68.728C103.582 68.2893 103.017 68.07 102.298 68.07C101.561 68.07 100.973 68.3033 100.534 68.77C100.096 69.2367 99.8764 69.9227 99.8764 70.828V75H98.8964V64.64H99.8764V68.658C100.119 68.2007 100.474 67.846 100.94 67.594C101.416 67.342 101.948 67.216 102.536 67.216ZM114.672 70.786C114.672 71.122 114.662 71.3787 114.644 71.556H108.302C108.33 72.1347 108.47 72.6293 108.722 73.04C108.974 73.4507 109.305 73.7633 109.716 73.978C110.126 74.1833 110.574 74.286 111.06 74.286C111.694 74.286 112.226 74.132 112.656 73.824C113.094 73.516 113.384 73.1007 113.524 72.578H114.56C114.373 73.3247 113.972 73.936 113.356 74.412C112.749 74.8787 111.984 75.112 111.06 75.112C110.341 75.112 109.697 74.9533 109.128 74.636C108.558 74.3093 108.11 73.852 107.784 73.264C107.466 72.6667 107.308 71.9713 107.308 71.178C107.308 70.3847 107.466 69.6893 107.784 69.092C108.101 68.4947 108.544 68.0373 109.114 67.72C109.683 67.4027 110.332 67.244 111.06 67.244C111.788 67.244 112.422 67.4027 112.964 67.72C113.514 68.0373 113.934 68.4667 114.224 69.008C114.522 69.54 114.672 70.1327 114.672 70.786ZM113.678 70.758C113.687 70.1887 113.57 69.7033 113.328 69.302C113.094 68.9007 112.772 68.5973 112.362 68.392C111.951 68.1867 111.503 68.084 111.018 68.084C110.29 68.084 109.669 68.3173 109.156 68.784C108.642 69.2507 108.358 69.9087 108.302 70.758H113.678ZM123.891 67.216C124.805 67.216 125.552 67.5007 126.131 68.07C126.709 68.63 126.999 69.4467 126.999 70.52V75H126.033V70.632C126.033 69.8013 125.823 69.1667 125.403 68.728C124.992 68.2893 124.427 68.07 123.709 68.07C122.971 68.07 122.383 68.3033 121.945 68.77C121.506 69.2367 121.287 69.9227 121.287 70.828V75H120.307V67.356H121.287V68.658C121.529 68.1913 121.879 67.8367 122.337 67.594C122.794 67.342 123.312 67.216 123.891 67.216ZM136.082 70.786C136.082 71.122 136.073 71.3787 136.054 71.556H129.712C129.74 72.1347 129.88 72.6293 130.132 73.04C130.384 73.4507 130.715 73.7633 131.126 73.978C131.537 74.1833 131.985 74.286 132.47 74.286C133.105 74.286 133.637 74.132 134.066 73.824C134.505 73.516 134.794 73.1007 134.934 72.578H135.97C135.783 73.3247 135.382 73.936 134.766 74.412C134.159 74.8787 133.394 75.112 132.47 75.112C131.751 75.112 131.107 74.9533 130.538 74.636C129.969 74.3093 129.521 73.852 129.194 73.264C128.877 72.6667 128.718 71.9713 128.718 71.178C128.718 70.3847 128.877 69.6893 129.194 69.092C129.511 68.4947 129.955 68.0373 130.524 67.72C131.093 67.4027 131.742 67.244 132.47 67.244C133.198 67.244 133.833 67.4027 134.374 67.72C134.925 68.0373 135.345 68.4667 135.634 69.008C135.933 69.54 136.082 70.1327 136.082 70.786ZM135.088 70.758C135.097 70.1887 134.981 69.7033 134.738 69.302C134.505 68.9007 134.183 68.5973 133.772 68.392C133.361 68.1867 132.913 68.084 132.428 68.084C131.7 68.084 131.079 68.3173 130.566 68.784C130.053 69.2507 129.768 69.9087 129.712 70.758H135.088ZM146.975 67.216C147.871 67.216 148.599 67.5007 149.159 68.07C149.728 68.63 150.013 69.4467 150.013 70.52V75H149.047V70.632C149.047 69.8013 148.846 69.1667 148.445 68.728C148.044 68.2893 147.498 68.07 146.807 68.07C146.088 68.07 145.514 68.308 145.085 68.784C144.656 69.26 144.441 69.9507 144.441 70.856V75H143.475V70.632C143.475 69.8013 143.274 69.1667 142.873 68.728C142.472 68.2893 141.921 68.07 141.221 68.07C140.502 68.07 139.928 68.308 139.499 68.784C139.07 69.26 138.855 69.9507 138.855 70.856V75H137.875V67.356H138.855V68.672C139.098 68.196 139.443 67.8367 139.891 67.594C140.339 67.342 140.838 67.216 141.389 67.216C142.052 67.216 142.63 67.3747 143.125 67.692C143.629 68.0093 143.993 68.476 144.217 69.092C144.422 68.4853 144.772 68.0233 145.267 67.706C145.771 67.3793 146.34 67.216 146.975 67.216ZM155.583 71.164C155.583 70.38 155.737 69.694 156.045 69.106C156.362 68.5087 156.796 68.0513 157.347 67.734C157.907 67.4073 158.537 67.244 159.237 67.244C159.965 67.244 160.59 67.412 161.113 67.748C161.645 68.084 162.028 68.5133 162.261 69.036V67.356H163.241V75H162.261V73.306C162.018 73.8287 161.631 74.2627 161.099 74.608C160.576 74.944 159.951 75.112 159.223 75.112C158.532 75.112 157.907 74.9487 157.347 74.622C156.796 74.2953 156.362 73.8333 156.045 73.236C155.737 72.6387 155.583 71.948 155.583 71.164ZM162.261 71.178C162.261 70.562 162.135 70.0207 161.883 69.554C161.631 69.0873 161.286 68.728 160.847 68.476C160.418 68.224 159.942 68.098 159.419 68.098C158.878 68.098 158.392 68.2193 157.963 68.462C157.534 68.7047 157.193 69.0593 156.941 69.526C156.698 69.9833 156.577 70.5293 156.577 71.164C156.577 71.7893 156.698 72.34 156.941 72.816C157.193 73.2827 157.534 73.642 157.963 73.894C158.392 74.1367 158.878 74.258 159.419 74.258C159.942 74.258 160.418 74.132 160.847 73.88C161.286 73.628 161.631 73.2687 161.883 72.802C162.135 72.3353 162.261 71.794 162.261 71.178ZM166.752 68.182V72.928C166.752 73.3947 166.841 73.7167 167.018 73.894C167.196 74.0713 167.508 74.16 167.956 74.16H168.852V75H167.802C167.112 75 166.598 74.8413 166.262 74.524C165.926 74.1973 165.758 73.6653 165.758 72.928V68.182H164.694V67.356H165.758V65.438H166.752V67.356H168.852V68.182H166.752ZM177.091 67.356V75H176.111V73.656C175.887 74.132 175.541 74.496 175.075 74.748C174.608 75 174.085 75.126 173.507 75.126C172.592 75.126 171.845 74.846 171.267 74.286C170.688 73.7167 170.399 72.8953 170.399 71.822V67.356H171.365V71.71C171.365 72.5407 171.57 73.1753 171.981 73.614C172.401 74.0527 172.97 74.272 173.689 74.272C174.426 74.272 175.014 74.0387 175.453 73.572C175.891 73.1053 176.111 72.4193 176.111 71.514V67.356H177.091ZM178.88 71.164C178.88 70.38 179.034 69.694 179.342 69.106C179.659 68.5087 180.093 68.0513 180.644 67.734C181.204 67.4073 181.834 67.244 182.534 67.244C183.262 67.244 183.887 67.412 184.41 67.748C184.942 68.084 185.325 68.5133 185.558 69.036V67.356H186.538V75H185.558V73.306C185.315 73.8287 184.928 74.2627 184.396 74.608C183.873 74.944 183.248 75.112 182.52 75.112C181.829 75.112 181.204 74.9487 180.644 74.622C180.093 74.2953 179.659 73.8333 179.342 73.236C179.034 72.6387 178.88 71.948 178.88 71.164ZM185.558 71.178C185.558 70.562 185.432 70.0207 185.18 69.554C184.928 69.0873 184.583 68.728 184.144 68.476C183.715 68.224 183.239 68.098 182.716 68.098C182.175 68.098 181.689 68.2193 181.26 68.462C180.831 68.7047 180.49 69.0593 180.238 69.526C179.995 69.9833 179.874 70.5293 179.874 71.164C179.874 71.7893 179.995 72.34 180.238 72.816C180.49 73.2827 180.831 73.642 181.26 73.894C181.689 74.1367 182.175 74.258 182.716 74.258C183.239 74.258 183.715 74.132 184.144 73.88C184.583 73.628 184.928 73.2687 185.18 72.802C185.432 72.3353 185.558 71.794 185.558 71.178ZM189.755 64.64V75H188.775V64.64H189.755ZM192.464 65.914C192.268 65.914 192.1 65.844 191.96 65.704C191.82 65.564 191.75 65.3913 191.75 65.186C191.75 64.9807 191.82 64.8127 191.96 64.682C192.1 64.542 192.268 64.472 192.464 64.472C192.66 64.472 192.828 64.542 192.968 64.682C193.108 64.8127 193.178 64.9807 193.178 65.186C193.178 65.3913 193.108 65.564 192.968 65.704C192.828 65.844 192.66 65.914 192.464 65.914ZM192.954 67.356V75H191.974V67.356H192.954ZM195.692 74.188H199.696V75H194.572V74.188L198.506 68.168H194.642V67.356H199.626V68.168L195.692 74.188ZM208.269 70.786C208.269 71.122 208.26 71.3787 208.241 71.556H201.899C201.927 72.1347 202.067 72.6293 202.319 73.04C202.571 73.4507 202.903 73.7633 203.313 73.978C203.724 74.1833 204.172 74.286 204.657 74.286C205.292 74.286 205.824 74.132 206.253 73.824C206.692 73.516 206.981 73.1007 207.121 72.578H208.157C207.971 73.3247 207.569 73.936 206.953 74.412C206.347 74.8787 205.581 75.112 204.657 75.112C203.939 75.112 203.295 74.9533 202.725 74.636C202.156 74.3093 201.708 73.852 201.381 73.264C201.064 72.6667 200.905 71.9713 200.905 71.178C200.905 70.3847 201.064 69.6893 201.381 69.092C201.699 68.4947 202.142 68.0373 202.711 67.72C203.281 67.4027 203.929 67.244 204.657 67.244C205.385 67.244 206.02 67.4027 206.561 67.72C207.112 68.0373 207.532 68.4667 207.821 69.008C208.12 69.54 208.269 70.1327 208.269 70.786ZM207.275 70.758C207.285 70.1887 207.168 69.7033 206.925 69.302C206.692 68.9007 206.37 68.5973 205.959 68.392C205.549 68.1867 205.101 68.084 204.615 68.084C203.887 68.084 203.267 68.3173 202.753 68.784C202.24 69.2507 201.955 69.9087 201.899 70.758H207.275ZM220.82 70.786C220.82 71.122 220.811 71.3787 220.792 71.556H214.45C214.478 72.1347 214.618 72.6293 214.87 73.04C215.122 73.4507 215.454 73.7633 215.864 73.978C216.275 74.1833 216.723 74.286 217.208 74.286C217.843 74.286 218.375 74.132 218.804 73.824C219.243 73.516 219.532 73.1007 219.672 72.578H220.708C220.522 73.3247 220.12 73.936 219.504 74.412C218.898 74.8787 218.132 75.112 217.208 75.112C216.49 75.112 215.846 74.9533 215.276 74.636C214.707 74.3093 214.259 73.852 213.932 73.264C213.615 72.6667 213.456 71.9713 213.456 71.178C213.456 70.3847 213.615 69.6893 213.932 69.092C214.25 68.4947 214.693 68.0373 215.262 67.72C215.832 67.4027 216.48 67.244 217.208 67.244C217.936 67.244 218.571 67.4027 219.112 67.72C219.663 68.0373 220.083 68.4667 220.372 69.008C220.671 69.54 220.82 70.1327 220.82 70.786ZM219.826 70.758C219.836 70.1887 219.719 69.7033 219.476 69.302C219.243 68.9007 218.921 68.5973 218.51 68.392C218.1 68.1867 217.652 68.084 217.166 68.084C216.438 68.084 215.818 68.3173 215.304 68.784C214.791 69.2507 214.506 69.9087 214.45 70.758H219.826ZM225.245 75.112C224.368 75.112 223.649 74.9113 223.089 74.51C222.538 74.0993 222.23 73.544 222.165 72.844H223.173C223.22 73.2733 223.42 73.6233 223.775 73.894C224.139 74.1553 224.624 74.286 225.231 74.286C225.763 74.286 226.178 74.16 226.477 73.908C226.785 73.656 226.939 73.3433 226.939 72.97C226.939 72.7087 226.855 72.494 226.687 72.326C226.519 72.158 226.304 72.0273 226.043 71.934C225.791 71.8313 225.446 71.724 225.007 71.612C224.438 71.4627 223.976 71.3133 223.621 71.164C223.266 71.0147 222.963 70.7953 222.711 70.506C222.468 70.2073 222.347 69.8107 222.347 69.316C222.347 68.9427 222.459 68.5973 222.683 68.28C222.907 67.9627 223.224 67.7107 223.635 67.524C224.046 67.3373 224.512 67.244 225.035 67.244C225.856 67.244 226.519 67.454 227.023 67.874C227.527 68.2847 227.798 68.854 227.835 69.582H226.855C226.827 69.134 226.65 68.7747 226.323 68.504C226.006 68.224 225.567 68.084 225.007 68.084C224.512 68.084 224.111 68.2007 223.803 68.434C223.495 68.6673 223.341 68.9567 223.341 69.302C223.341 69.6007 223.43 69.848 223.607 70.044C223.794 70.2307 224.022 70.38 224.293 70.492C224.564 70.5947 224.928 70.7113 225.385 70.842C225.936 70.9913 226.374 71.136 226.701 71.276C227.028 71.416 227.308 71.6213 227.541 71.892C227.774 72.1627 227.896 72.522 227.905 72.97C227.905 73.3807 227.793 73.7493 227.569 74.076C227.345 74.3933 227.032 74.6453 226.631 74.832C226.23 75.0187 225.768 75.112 225.245 75.112ZM231.024 68.182V72.928C231.024 73.3947 231.113 73.7167 231.29 73.894C231.467 74.0713 231.78 74.16 232.228 74.16H233.124V75H232.074C231.383 75 230.87 74.8413 230.534 74.524C230.198 74.1973 230.03 73.6653 230.03 72.928V68.182H228.966V67.356H230.03V65.438H231.024V67.356H233.124V68.182H231.024ZM234.292 71.164C234.292 70.38 234.446 69.694 234.754 69.106C235.071 68.5087 235.505 68.0513 236.056 67.734C236.616 67.4073 237.246 67.244 237.946 67.244C238.674 67.244 239.299 67.412 239.822 67.748C240.354 68.084 240.737 68.5133 240.97 69.036V67.356H241.95V75H240.97V73.306C240.727 73.8287 240.34 74.2627 239.808 74.608C239.285 74.944 238.66 75.112 237.932 75.112C237.241 75.112 236.616 74.9487 236.056 74.622C235.505 74.2953 235.071 73.8333 234.754 73.236C234.446 72.6387 234.292 71.948 234.292 71.164ZM240.97 71.178C240.97 70.562 240.844 70.0207 240.592 69.554C240.34 69.0873 239.995 68.728 239.556 68.476C239.127 68.224 238.651 68.098 238.128 68.098C237.587 68.098 237.101 68.2193 236.672 68.462C236.243 68.7047 235.902 69.0593 235.65 69.526C235.407 69.9833 235.286 70.5293 235.286 71.164C235.286 71.7893 235.407 72.34 235.65 72.816C235.902 73.2827 236.243 73.642 236.672 73.894C237.101 74.1367 237.587 74.258 238.128 74.258C238.651 74.258 239.127 74.132 239.556 73.88C239.995 73.628 240.34 73.2687 240.592 72.802C240.844 72.3353 240.97 71.794 240.97 71.178ZM46.1456 89.036C46.3882 88.5227 46.7709 88.098 47.2936 87.762C47.8256 87.4167 48.4556 87.244 49.1836 87.244C49.8742 87.244 50.4949 87.4073 51.0456 87.734C51.6056 88.0513 52.0396 88.5087 52.3476 89.106C52.6649 89.694 52.8236 90.38 52.8236 91.164C52.8236 91.948 52.6649 92.6387 52.3476 93.236C52.0396 93.8333 51.6056 94.2953 51.0456 94.622C50.4949 94.9487 49.8742 95.112 49.1836 95.112C48.4649 95.112 47.8396 94.944 47.3076 94.608C46.7756 94.2627 46.3882 93.8333 46.1456 93.32V98.612H45.1796V87.356H46.1456V89.036ZM51.8296 91.164C51.8296 90.5293 51.7036 89.9833 51.4516 89.526C51.2089 89.0593 50.8729 88.7047 50.4436 88.462C50.0142 88.2193 49.5289 88.098 48.9876 88.098C48.4649 88.098 47.9842 88.224 47.5456 88.476C47.1162 88.728 46.7756 89.0873 46.5236 89.554C46.2716 90.0207 46.1456 90.562 46.1456 91.178C46.1456 91.794 46.2716 92.3353 46.5236 92.802C46.7756 93.2687 47.1162 93.628 47.5456 93.88C47.9842 94.132 48.4649 94.258 48.9876 94.258C49.5289 94.258 50.0142 94.1367 50.4436 93.894C50.8729 93.642 51.2089 93.2827 51.4516 92.816C51.7036 92.34 51.8296 91.7893 51.8296 91.164ZM54.1788 91.164C54.1788 90.38 54.3328 89.694 54.6408 89.106C54.9582 88.5087 55.3922 88.0513 55.9428 87.734C56.5028 87.4073 57.1328 87.244 57.8328 87.244C58.5608 87.244 59.1862 87.412 59.7088 87.748C60.2408 88.084 60.6235 88.5133 60.8568 89.036V87.356H61.8368V95H60.8568V93.306C60.6142 93.8287 60.2268 94.2627 59.6948 94.608C59.1722 94.944 58.5468 95.112 57.8188 95.112C57.1282 95.112 56.5028 94.9487 55.9428 94.622C55.3922 94.2953 54.9582 93.8333 54.6408 93.236C54.3328 92.6387 54.1788 91.948 54.1788 91.164ZM60.8568 91.178C60.8568 90.562 60.7308 90.0207 60.4788 89.554C60.2268 89.0873 59.8815 88.728 59.4428 88.476C59.0135 88.224 58.5375 88.098 58.0148 88.098C57.4735 88.098 56.9882 88.2193 56.5588 88.462C56.1295 88.7047 55.7888 89.0593 55.5368 89.526C55.2942 89.9833 55.1728 90.5293 55.1728 91.164C55.1728 91.7893 55.2942 92.34 55.5368 92.816C55.7888 93.2827 56.1295 93.642 56.5588 93.894C56.9882 94.1367 57.4735 94.258 58.0148 94.258C58.5375 94.258 59.0135 94.132 59.4428 93.88C59.8815 93.628 60.2268 93.2687 60.4788 92.802C60.7308 92.3353 60.8568 91.794 60.8568 91.178ZM59.5408 85.102L56.6708 86.768V86.012L59.5408 84.22V85.102ZM67.2801 87.244C67.9988 87.244 68.6241 87.412 69.1561 87.748C69.6881 88.084 70.0708 88.5087 70.3041 89.022V87.356H71.2841V95.196C71.2841 95.896 71.1301 96.5167 70.8221 97.058C70.5234 97.5993 70.1034 98.0147 69.5621 98.304C69.0208 98.6027 68.4048 98.752 67.7141 98.752C66.7341 98.752 65.9174 98.5187 65.2641 98.052C64.6201 97.5853 64.2188 96.9507 64.0601 96.148H65.0261C65.1941 96.68 65.5114 97.1047 65.9781 97.422C66.4541 97.7393 67.0328 97.898 67.7141 97.898C68.2088 97.898 68.6521 97.7907 69.0441 97.576C69.4361 97.3707 69.7441 97.0627 69.9681 96.652C70.1921 96.2413 70.3041 95.756 70.3041 95.196V93.306C70.0614 93.8287 69.6741 94.2627 69.1421 94.608C68.6194 94.944 67.9988 95.112 67.2801 95.112C66.5801 95.112 65.9501 94.9487 65.3901 94.622C64.8394 94.2953 64.4054 93.8333 64.0881 93.236C63.7801 92.6387 63.6261 91.948 63.6261 91.164C63.6261 90.38 63.7801 89.694 64.0881 89.106C64.4054 88.5087 64.8394 88.0513 65.3901 87.734C65.9501 87.4073 66.5801 87.244 67.2801 87.244ZM70.3041 91.178C70.3041 90.562 70.1781 90.0207 69.9261 89.554C69.6741 89.0873 69.3288 88.728 68.8901 88.476C68.4608 88.224 67.9848 88.098 67.4621 88.098C66.9208 88.098 66.4354 88.2193 66.0061 88.462C65.5768 88.7047 65.2361 89.0593 64.9841 89.526C64.7414 89.9833 64.6201 90.5293 64.6201 91.164C64.6201 91.7893 64.7414 92.34 64.9841 92.816C65.2361 93.2827 65.5768 93.642 66.0061 93.894C66.4354 94.1367 66.9208 94.258 67.4621 94.258C67.9848 94.258 68.4608 94.132 68.8901 93.88C69.3288 93.628 69.6741 93.2687 69.9261 92.802C70.1781 92.3353 70.3041 91.794 70.3041 91.178ZM74.0114 85.914C73.8154 85.914 73.6474 85.844 73.5074 85.704C73.3674 85.564 73.2974 85.3913 73.2974 85.186C73.2974 84.9807 73.3674 84.8127 73.5074 84.682C73.6474 84.542 73.8154 84.472 74.0114 84.472C74.2074 84.472 74.3754 84.542 74.5154 84.682C74.6554 84.8127 74.7254 84.9807 74.7254 85.186C74.7254 85.3913 74.6554 85.564 74.5154 85.704C74.3754 85.844 74.2074 85.914 74.0114 85.914ZM74.5014 87.356V95H73.5214V87.356H74.5014ZM80.3046 87.216C81.2193 87.216 81.9659 87.5007 82.5446 88.07C83.1233 88.63 83.4126 89.4467 83.4126 90.52V95H82.4466V90.632C82.4466 89.8013 82.2366 89.1667 81.8166 88.728C81.4059 88.2893 80.8413 88.07 80.1226 88.07C79.3853 88.07 78.7973 88.3033 78.3586 88.77C77.9199 89.2367 77.7006 89.9227 77.7006 90.828V95H76.7206V87.356H77.7006V88.658C77.9433 88.1913 78.2933 87.8367 78.7506 87.594C79.2079 87.342 79.7259 87.216 80.3046 87.216ZM85.132 91.164C85.132 90.38 85.286 89.694 85.594 89.106C85.9113 88.5087 86.3453 88.0513 86.896 87.734C87.456 87.4073 88.086 87.244 88.786 87.244C89.514 87.244 90.1393 87.412 90.662 87.748C91.194 88.084 91.5766 88.5133 91.81 89.036V87.356H92.79V95H91.81V93.306C91.5673 93.8287 91.18 94.2627 90.648 94.608C90.1253 94.944 89.5 95.112 88.772 95.112C88.0813 95.112 87.456 94.9487 86.896 94.622C86.3453 94.2953 85.9113 93.8333 85.594 93.236C85.286 92.6387 85.132 91.948 85.132 91.164ZM91.81 91.178C91.81 90.562 91.684 90.0207 91.432 89.554C91.18 89.0873 90.8346 88.728 90.396 88.476C89.9666 88.224 89.4906 88.098 88.968 88.098C88.4266 88.098 87.9413 88.2193 87.512 88.462C87.0826 88.7047 86.742 89.0593 86.49 89.526C86.2473 89.9833 86.126 90.5293 86.126 91.164C86.126 91.7893 86.2473 92.34 86.49 92.816C86.742 93.2827 87.0826 93.642 87.512 93.894C87.9413 94.1367 88.4266 94.258 88.968 94.258C89.4906 94.258 89.9666 94.132 90.396 93.88C90.8346 93.628 91.18 93.2687 91.432 92.802C91.684 92.3353 91.81 91.794 91.81 91.178ZM95.1952 95.07C94.9899 95.07 94.8172 95 94.6772 94.86C94.5466 94.72 94.4812 94.5473 94.4812 94.342C94.4812 94.1367 94.5466 93.9687 94.6772 93.838C94.8172 93.698 94.9899 93.628 95.1952 93.628C95.3912 93.628 95.5546 93.698 95.6852 93.838C95.8252 93.9687 95.8952 94.1367 95.8952 94.342C95.8952 94.5473 95.8252 94.72 95.6852 94.86C95.5546 95 95.3912 95.07 95.1952 95.07ZM107.082 92.676H102.63L101.776 95H100.74L104.31 85.34H105.416L108.972 95H107.936L107.082 92.676ZM106.788 91.864L104.856 86.572L102.924 91.864H106.788ZM113.751 87.244C114.469 87.244 115.095 87.412 115.627 87.748C116.159 88.084 116.541 88.5087 116.775 89.022V87.356H117.755V95.196C117.755 95.896 117.601 96.5167 117.293 97.058C116.994 97.5993 116.574 98.0147 116.033 98.304C115.491 98.6027 114.875 98.752 114.185 98.752C113.205 98.752 112.388 98.5187 111.735 98.052C111.091 97.5853 110.689 96.9507 110.531 96.148H111.497C111.665 96.68 111.982 97.1047 112.449 97.422C112.925 97.7393 113.503 97.898 114.185 97.898C114.679 97.898 115.123 97.7907 115.515 97.576C115.907 97.3707 116.215 97.0627 116.439 96.652C116.663 96.2413 116.775 95.756 116.775 95.196V93.306C116.532 93.8287 116.145 94.2627 115.613 94.608C115.09 94.944 114.469 95.112 113.751 95.112C113.051 95.112 112.421 94.9487 111.861 94.622C111.31 94.2953 110.876 93.8333 110.559 93.236C110.251 92.6387 110.097 91.948 110.097 91.164C110.097 90.38 110.251 89.694 110.559 89.106C110.876 88.5087 111.31 88.0513 111.861 87.734C112.421 87.4073 113.051 87.244 113.751 87.244ZM116.775 91.178C116.775 90.562 116.649 90.0207 116.397 89.554C116.145 89.0873 115.799 88.728 115.361 88.476C114.931 88.224 114.455 88.098 113.933 88.098C113.391 88.098 112.906 88.2193 112.477 88.462C112.047 88.7047 111.707 89.0593 111.455 89.526C111.212 89.9833 111.091 90.5293 111.091 91.164C111.091 91.7893 111.212 92.34 111.455 92.816C111.707 93.2827 112.047 93.642 112.477 93.894C112.906 94.1367 113.391 94.258 113.933 94.258C114.455 94.258 114.931 94.132 115.361 93.88C115.799 93.628 116.145 93.2687 116.397 92.802C116.649 92.3353 116.775 91.794 116.775 91.178ZM126.614 87.356V95H125.634V93.656C125.41 94.132 125.065 94.496 124.598 94.748C124.131 95 123.609 95.126 123.03 95.126C122.115 95.126 121.369 94.846 120.79 94.286C120.211 93.7167 119.922 92.8953 119.922 91.822V87.356H120.888V91.71C120.888 92.5407 121.093 93.1753 121.504 93.614C121.924 94.0527 122.493 94.272 123.212 94.272C123.949 94.272 124.537 94.0387 124.976 93.572C125.415 93.1053 125.634 92.4193 125.634 91.514V87.356H126.614ZM128.403 91.164C128.403 90.38 128.557 89.694 128.865 89.106C129.183 88.5087 129.617 88.0513 130.167 87.734C130.727 87.4073 131.357 87.244 132.057 87.244C132.785 87.244 133.411 87.412 133.933 87.748C134.465 88.084 134.848 88.5133 135.081 89.036V87.356H136.061V95H135.081V93.306C134.839 93.8287 134.451 94.2627 133.919 94.608C133.397 94.944 132.771 95.112 132.043 95.112C131.353 95.112 130.727 94.9487 130.167 94.622C129.617 94.2953 129.183 93.8333 128.865 93.236C128.557 92.6387 128.403 91.948 128.403 91.164ZM135.081 91.178C135.081 90.562 134.955 90.0207 134.703 89.554C134.451 89.0873 134.106 88.728 133.667 88.476C133.238 88.224 132.762 88.098 132.239 88.098C131.698 88.098 131.213 88.2193 130.783 88.462C130.354 88.7047 130.013 89.0593 129.761 89.526C129.519 89.9833 129.397 90.5293 129.397 91.164C129.397 91.7893 129.519 92.34 129.761 92.816C130.013 93.2827 130.354 93.642 130.783 93.894C131.213 94.1367 131.698 94.258 132.239 94.258C132.762 94.258 133.238 94.132 133.667 93.88C134.106 93.628 134.451 93.2687 134.703 92.802C134.955 92.3353 135.081 91.794 135.081 91.178ZM139.279 88.714C139.493 88.238 139.82 87.8693 140.259 87.608C140.707 87.3467 141.253 87.216 141.897 87.216V88.238H141.631C140.921 88.238 140.352 88.4293 139.923 88.812C139.493 89.1947 139.279 89.834 139.279 90.73V95H138.299V87.356H139.279V88.714ZM142.923 91.164C142.923 90.38 143.082 89.694 143.399 89.106C143.716 88.5087 144.15 88.0513 144.701 87.734C145.261 87.4073 145.891 87.244 146.591 87.244C147.263 87.244 147.87 87.4073 148.411 87.734C148.952 88.0607 149.349 88.4853 149.601 89.008V84.64H150.581V95H149.601V93.292C149.368 93.824 148.985 94.2627 148.453 94.608C147.921 94.944 147.296 95.112 146.577 95.112C145.877 95.112 145.247 94.9487 144.687 94.622C144.136 94.2953 143.702 93.8333 143.385 93.236C143.077 92.6387 142.923 91.948 142.923 91.164ZM149.601 91.178C149.601 90.562 149.475 90.0207 149.223 89.554C148.971 89.0873 148.626 88.728 148.187 88.476C147.758 88.224 147.282 88.098 146.759 88.098C146.218 88.098 145.732 88.2193 145.303 88.462C144.874 88.7047 144.533 89.0593 144.281 89.526C144.038 89.9833 143.917 90.5293 143.917 91.164C143.917 91.7893 144.038 92.34 144.281 92.816C144.533 93.2827 144.874 93.642 145.303 93.894C145.732 94.1367 146.218 94.258 146.759 94.258C147.282 94.258 147.758 94.132 148.187 93.88C148.626 93.628 148.971 93.2687 149.223 92.802C149.475 92.3353 149.601 91.794 149.601 91.178ZM159.734 90.786C159.734 91.122 159.725 91.3787 159.706 91.556H153.364C153.392 92.1347 153.532 92.6293 153.784 93.04C154.036 93.4507 154.368 93.7633 154.778 93.978C155.189 94.1833 155.637 94.286 156.122 94.286C156.757 94.286 157.289 94.132 157.718 93.824C158.157 93.516 158.446 93.1007 158.586 92.578H159.622C159.436 93.3247 159.034 93.936 158.418 94.412C157.812 94.8787 157.046 95.112 156.122 95.112C155.404 95.112 154.76 94.9533 154.19 94.636C153.621 94.3093 153.173 93.852 152.846 93.264C152.529 92.6667 152.37 91.9713 152.37 91.178C152.37 90.3847 152.529 89.6893 152.846 89.092C153.164 88.4947 153.607 88.0373 154.176 87.72C154.746 87.4027 155.394 87.244 156.122 87.244C156.85 87.244 157.485 87.4027 158.026 87.72C158.577 88.0373 158.997 88.4667 159.286 89.008C159.585 89.54 159.734 90.1327 159.734 90.786ZM158.74 90.758C158.75 90.1887 158.633 89.7033 158.39 89.302C158.157 88.9007 157.835 88.5973 157.424 88.392C157.014 88.1867 156.566 88.084 156.08 88.084C155.352 88.084 154.732 88.3173 154.218 88.784C153.705 89.2507 153.42 89.9087 153.364 90.758H158.74ZM164.921 91.164C164.921 90.38 165.075 89.694 165.383 89.106C165.7 88.5087 166.134 88.0513 166.685 87.734C167.245 87.4073 167.875 87.244 168.575 87.244C169.303 87.244 169.928 87.412 170.451 87.748C170.983 88.084 171.366 88.5133 171.599 89.036V87.356H172.579V95H171.599V93.306C171.356 93.8287 170.969 94.2627 170.437 94.608C169.914 94.944 169.289 95.112 168.561 95.112C167.87 95.112 167.245 94.9487 166.685 94.622C166.134 94.2953 165.7 93.8333 165.383 93.236C165.075 92.6387 164.921 91.948 164.921 91.164ZM171.599 91.178C171.599 90.562 171.473 90.0207 171.221 89.554C170.969 89.0873 170.624 88.728 170.185 88.476C169.756 88.224 169.28 88.098 168.757 88.098C168.216 88.098 167.73 88.2193 167.301 88.462C166.872 88.7047 166.531 89.0593 166.279 89.526C166.036 89.9833 165.915 90.5293 165.915 91.164C165.915 91.7893 166.036 92.34 166.279 92.816C166.531 93.2827 166.872 93.642 167.301 93.894C167.73 94.1367 168.216 94.258 168.757 94.258C169.28 94.258 169.756 94.132 170.185 93.88C170.624 93.628 170.969 93.2687 171.221 92.802C171.473 92.3353 171.599 91.794 171.599 91.178ZM175.796 84.64V95H174.816V84.64H175.796ZM181.222 87.244C181.94 87.244 182.566 87.412 183.098 87.748C183.63 88.084 184.012 88.5087 184.246 89.022V87.356H185.226V95.196C185.226 95.896 185.072 96.5167 184.764 97.058C184.465 97.5993 184.045 98.0147 183.504 98.304C182.962 98.6027 182.346 98.752 181.656 98.752C180.676 98.752 179.859 98.5187 179.206 98.052C178.562 97.5853 178.16 96.9507 178.002 96.148H178.968C179.136 96.68 179.453 97.1047 179.92 97.422C180.396 97.7393 180.974 97.898 181.656 97.898C182.15 97.898 182.594 97.7907 182.986 97.576C183.378 97.3707 183.686 97.0627 183.91 96.652C184.134 96.2413 184.246 95.756 184.246 95.196V93.306C184.003 93.8287 183.616 94.2627 183.084 94.608C182.561 94.944 181.94 95.112 181.222 95.112C180.522 95.112 179.892 94.9487 179.332 94.622C178.781 94.2953 178.347 93.8333 178.03 93.236C177.722 92.6387 177.568 91.948 177.568 91.164C177.568 90.38 177.722 89.694 178.03 89.106C178.347 88.5087 178.781 88.0513 179.332 87.734C179.892 87.4073 180.522 87.244 181.222 87.244ZM184.246 91.178C184.246 90.562 184.12 90.0207 183.868 89.554C183.616 89.0873 183.27 88.728 182.832 88.476C182.402 88.224 181.926 88.098 181.404 88.098C180.862 88.098 180.377 88.2193 179.948 88.462C179.518 88.7047 179.178 89.0593 178.926 89.526C178.683 89.9833 178.562 90.5293 178.562 91.164C178.562 91.7893 178.683 92.34 178.926 92.816C179.178 93.2827 179.518 93.642 179.948 93.894C180.377 94.1367 180.862 94.258 181.404 94.258C181.926 94.258 182.402 94.132 182.832 93.88C183.27 93.628 183.616 93.2687 183.868 92.802C184.12 92.3353 184.246 91.794 184.246 91.178ZM194.085 87.356V95H193.105V93.656C192.881 94.132 192.535 94.496 192.069 94.748C191.602 95 191.079 95.126 190.501 95.126C189.586 95.126 188.839 94.846 188.261 94.286C187.682 93.7167 187.393 92.8953 187.393 91.822V87.356H188.359V91.71C188.359 92.5407 188.564 93.1753 188.975 93.614C189.395 94.0527 189.964 94.272 190.683 94.272C191.42 94.272 192.008 94.0387 192.447 93.572C192.885 93.1053 193.105 92.4193 193.105 91.514V87.356H194.085ZM199.906 87.216C200.821 87.216 201.567 87.5007 202.146 88.07C202.725 88.63 203.014 89.4467 203.014 90.52V95H202.048V90.632C202.048 89.8013 201.838 89.1667 201.418 88.728C201.007 88.2893 200.443 88.07 199.724 88.07C198.987 88.07 198.399 88.3033 197.96 88.77C197.521 89.2367 197.302 89.9227 197.302 90.828V95H196.322V87.356H197.302V88.658C197.545 88.1913 197.895 87.8367 198.352 87.594C198.809 87.342 199.327 87.216 199.906 87.216ZM207.814 95.112C206.936 95.112 206.218 94.9113 205.658 94.51C205.107 94.0993 204.799 93.544 204.734 92.844H205.742C205.788 93.2733 205.989 93.6233 206.344 93.894C206.708 94.1553 207.193 94.286 207.8 94.286C208.332 94.286 208.747 94.16 209.046 93.908C209.354 93.656 209.508 93.3433 209.508 92.97C209.508 92.7087 209.424 92.494 209.256 92.326C209.088 92.158 208.873 92.0273 208.612 91.934C208.36 91.8313 208.014 91.724 207.576 91.612C207.006 91.4627 206.544 91.3133 206.19 91.164C205.835 91.0147 205.532 90.7953 205.28 90.506C205.037 90.2073 204.916 89.8107 204.916 89.316C204.916 88.9427 205.028 88.5973 205.252 88.28C205.476 87.9627 205.793 87.7107 206.204 87.524C206.614 87.3373 207.081 87.244 207.604 87.244C208.425 87.244 209.088 87.454 209.592 87.874C210.096 88.2847 210.366 88.854 210.404 89.582H209.424C209.396 89.134 209.218 88.7747 208.892 88.504C208.574 88.224 208.136 88.084 207.576 88.084C207.081 88.084 206.68 88.2007 206.372 88.434C206.064 88.6673 205.91 88.9567 205.91 89.302C205.91 89.6007 205.998 89.848 206.176 90.044C206.362 90.2307 206.591 90.38 206.862 90.492C207.132 90.5947 207.496 90.7113 207.954 90.842C208.504 90.9913 208.943 91.136 209.27 91.276C209.596 91.416 209.876 91.6213 210.11 91.892C210.343 92.1627 210.464 92.522 210.474 92.97C210.474 93.3807 210.362 93.7493 210.138 94.076C209.914 94.3933 209.601 94.6453 209.2 94.832C208.798 95.0187 208.336 95.112 207.814 95.112ZM218.792 95.112C217.915 95.112 217.196 94.9113 216.636 94.51C216.085 94.0993 215.777 93.544 215.712 92.844H216.72C216.767 93.2733 216.967 93.6233 217.322 93.894C217.686 94.1553 218.171 94.286 218.778 94.286C219.31 94.286 219.725 94.16 220.024 93.908C220.332 93.656 220.486 93.3433 220.486 92.97C220.486 92.7087 220.402 92.494 220.234 92.326C220.066 92.158 219.851 92.0273 219.59 91.934C219.338 91.8313 218.993 91.724 218.554 91.612C217.985 91.4627 217.523 91.3133 217.168 91.164C216.813 91.0147 216.51 90.7953 216.258 90.506C216.015 90.2073 215.894 89.8107 215.894 89.316C215.894 88.9427 216.006 88.5973 216.23 88.28C216.454 87.9627 216.771 87.7107 217.182 87.524C217.593 87.3373 218.059 87.244 218.582 87.244C219.403 87.244 220.066 87.454 220.57 87.874C221.074 88.2847 221.345 88.854 221.382 89.582H220.402C220.374 89.134 220.197 88.7747 219.87 88.504C219.553 88.224 219.114 88.084 218.554 88.084C218.059 88.084 217.658 88.2007 217.35 88.434C217.042 88.6673 216.888 88.9567 216.888 89.302C216.888 89.6007 216.977 89.848 217.154 90.044C217.341 90.2307 217.569 90.38 217.84 90.492C218.111 90.5947 218.475 90.7113 218.932 90.842C219.483 90.9913 219.921 91.136 220.248 91.276C220.575 91.416 220.855 91.6213 221.088 91.892C221.321 92.1627 221.443 92.522 221.452 92.97C221.452 93.3807 221.34 93.7493 221.116 94.076C220.892 94.3933 220.579 94.6453 220.178 94.832C219.777 95.0187 219.315 95.112 218.792 95.112ZM230.213 90.786C230.213 91.122 230.203 91.3787 230.185 91.556H223.843C223.871 92.1347 224.011 92.6293 224.263 93.04C224.515 93.4507 224.846 93.7633 225.257 93.978C225.667 94.1833 226.115 94.286 226.601 94.286C227.235 94.286 227.767 94.132 228.197 93.824C228.635 93.516 228.925 93.1007 229.065 92.578H230.101C229.914 93.3247 229.513 93.936 228.897 94.412C228.29 94.8787 227.525 95.112 226.601 95.112C225.882 95.112 225.238 94.9533 224.669 94.636C224.099 94.3093 223.651 93.852 223.325 93.264C223.007 92.6667 222.849 91.9713 222.849 91.178C222.849 90.3847 223.007 89.6893 223.325 89.092C223.642 88.4947 224.085 88.0373 224.655 87.72C225.224 87.4027 225.873 87.244 226.601 87.244C227.329 87.244 227.963 87.4027 228.505 87.72C229.055 88.0373 229.475 88.4667 229.765 89.008C230.063 89.54 230.213 90.1327 230.213 90.786ZM229.219 90.758C229.228 90.1887 229.111 89.7033 228.869 89.302C228.635 88.9007 228.313 88.5973 227.903 88.392C227.492 88.1867 227.044 88.084 226.559 88.084C225.831 88.084 225.21 88.3173 224.697 88.784C224.183 89.2507 223.899 89.9087 223.843 90.758H229.219ZM235.212 87.244C235.93 87.244 236.556 87.412 237.088 87.748C237.62 88.084 238.002 88.5087 238.236 89.022V87.356H239.216V95.196C239.216 95.896 239.062 96.5167 238.754 97.058C238.455 97.5993 238.035 98.0147 237.494 98.304C236.952 98.6027 236.336 98.752 235.646 98.752C234.666 98.752 233.849 98.5187 233.196 98.052C232.552 97.5853 232.15 96.9507 231.992 96.148H232.958C233.126 96.68 233.443 97.1047 233.91 97.422C234.386 97.7393 234.964 97.898 235.646 97.898C236.14 97.898 236.584 97.7907 236.976 97.576C237.368 97.3707 237.676 97.0627 237.9 96.652C238.124 96.2413 238.236 95.756 238.236 95.196V93.306C237.993 93.8287 237.606 94.2627 237.074 94.608C236.551 94.944 235.93 95.112 235.212 95.112C234.512 95.112 233.882 94.9487 233.322 94.622C232.771 94.2953 232.337 93.8333 232.02 93.236C231.712 92.6387 231.558 91.948 231.558 91.164C231.558 90.38 231.712 89.694 232.02 89.106C232.337 88.5087 232.771 88.0513 233.322 87.734C233.882 87.4073 234.512 87.244 235.212 87.244ZM238.236 91.178C238.236 90.562 238.11 90.0207 237.858 89.554C237.606 89.0873 237.26 88.728 236.822 88.476C236.392 88.224 235.916 88.098 235.394 88.098C234.852 88.098 234.367 88.2193 233.938 88.462C233.508 88.7047 233.168 89.0593 232.916 89.526C232.673 89.9833 232.552 90.5293 232.552 91.164C232.552 91.7893 232.673 92.34 232.916 92.816C233.168 93.2827 233.508 93.642 233.938 93.894C234.367 94.1367 234.852 94.258 235.394 94.258C235.916 94.258 236.392 94.132 236.822 93.88C237.26 93.628 237.606 93.2687 237.858 92.802C238.11 92.3353 238.236 91.794 238.236 91.178ZM248.075 87.356V95H247.095V93.656C246.871 94.132 246.526 94.496 246.059 94.748C245.592 95 245.07 95.126 244.491 95.126C243.576 95.126 242.83 94.846 242.251 94.286C241.672 93.7167 241.383 92.8953 241.383 91.822V87.356H242.349V91.71C242.349 92.5407 242.554 93.1753 242.965 93.614C243.385 94.0527 243.954 94.272 244.673 94.272C245.41 94.272 245.998 94.0387 246.437 93.572C246.876 93.1053 247.095 92.4193 247.095 91.514V87.356H248.075ZM253.896 87.216C254.811 87.216 255.558 87.5007 256.136 88.07C256.715 88.63 257.004 89.4467 257.004 90.52V95H256.038V90.632C256.038 89.8013 255.828 89.1667 255.408 88.728C254.998 88.2893 254.433 88.07 253.714 88.07C252.977 88.07 252.389 88.3033 251.95 88.77C251.512 89.2367 251.292 89.9227 251.292 90.828V95H250.312V87.356H251.292V88.658C251.535 88.1913 251.885 87.8367 252.342 87.594C252.8 87.342 253.318 87.216 253.896 87.216ZM258.724 91.164C258.724 90.38 258.882 89.694 259.2 89.106C259.517 88.5087 259.951 88.0513 260.502 87.734C261.062 87.4073 261.692 87.244 262.392 87.244C263.064 87.244 263.67 87.4073 264.212 87.734C264.753 88.0607 265.15 88.4853 265.402 89.008V84.64H266.382V95H265.402V93.292C265.168 93.824 264.786 94.2627 264.254 94.608C263.722 94.944 263.096 95.112 262.378 95.112C261.678 95.112 261.048 94.9487 260.488 94.622C259.937 94.2953 259.503 93.8333 259.186 93.236C258.878 92.6387 258.724 91.948 258.724 91.164ZM265.402 91.178C265.402 90.562 265.276 90.0207 265.024 89.554C264.772 89.0873 264.426 88.728 263.988 88.476C263.558 88.224 263.082 88.098 262.56 88.098C262.018 88.098 261.533 88.2193 261.104 88.462C260.674 88.7047 260.334 89.0593 260.082 89.526C259.839 89.9833 259.718 90.5293 259.718 91.164C259.718 91.7893 259.839 92.34 260.082 92.816C260.334 93.2827 260.674 93.642 261.104 93.894C261.533 94.1367 262.018 94.258 262.56 94.258C263.082 94.258 263.558 94.132 263.988 93.88C264.426 93.628 264.772 93.2687 265.024 92.802C265.276 92.3353 265.402 91.794 265.402 91.178ZM271.965 95.112C271.246 95.112 270.598 94.9533 270.019 94.636C269.45 94.3093 268.997 93.852 268.661 93.264C268.334 92.6667 268.171 91.9713 268.171 91.178C268.171 90.3847 268.339 89.694 268.675 89.106C269.011 88.5087 269.468 88.0513 270.047 87.734C270.626 87.4073 271.274 87.244 271.993 87.244C272.712 87.244 273.36 87.4073 273.939 87.734C274.527 88.0513 274.984 88.5087 275.311 89.106C275.647 89.694 275.815 90.3847 275.815 91.178C275.815 91.962 275.647 92.6527 275.311 93.25C274.975 93.8473 274.513 94.3093 273.925 94.636C273.337 94.9533 272.684 95.112 271.965 95.112ZM271.965 94.258C272.469 94.258 272.936 94.146 273.365 93.922C273.794 93.6887 274.14 93.3433 274.401 92.886C274.672 92.4193 274.807 91.85 274.807 91.178C274.807 90.506 274.676 89.9413 274.415 89.484C274.154 89.0173 273.808 88.672 273.379 88.448C272.95 88.2147 272.483 88.098 271.979 88.098C271.475 88.098 271.008 88.2147 270.579 88.448C270.15 88.672 269.804 89.0173 269.543 89.484C269.291 89.9413 269.165 90.506 269.165 91.178C269.165 91.85 269.291 92.4193 269.543 92.886C269.804 93.3433 270.145 93.6887 270.565 93.922C270.994 94.146 271.461 94.258 271.965 94.258ZM280.233 95.112C279.356 95.112 278.637 94.9113 278.077 94.51C277.527 94.0993 277.219 93.544 277.153 92.844H278.161C278.208 93.2733 278.409 93.6233 278.763 93.894C279.127 94.1553 279.613 94.286 280.219 94.286C280.751 94.286 281.167 94.16 281.465 93.908C281.773 93.656 281.927 93.3433 281.927 92.97C281.927 92.7087 281.843 92.494 281.675 92.326C281.507 92.158 281.293 92.0273 281.031 91.934C280.779 91.8313 280.434 91.724 279.995 91.612C279.426 91.4627 278.964 91.3133 278.609 91.164C278.255 91.0147 277.951 90.7953 277.699 90.506C277.457 90.2073 277.335 89.8107 277.335 89.316C277.335 88.9427 277.447 88.5973 277.671 88.28C277.895 87.9627 278.213 87.7107 278.623 87.524C279.034 87.3373 279.501 87.244 280.023 87.244C280.845 87.244 281.507 87.454 282.011 87.874C282.515 88.2847 282.786 88.854 282.823 89.582H281.843C281.815 89.134 281.638 88.7747 281.311 88.504C280.994 88.224 280.555 88.084 279.995 88.084C279.501 88.084 279.099 88.2007 278.791 88.434C278.483 88.6673 278.329 88.9567 278.329 89.302C278.329 89.6007 278.418 89.848 278.595 90.044C278.782 90.2307 279.011 90.38 279.281 90.492C279.552 90.5947 279.916 90.7113 280.373 90.842C280.924 90.9913 281.363 91.136 281.689 91.276C282.016 91.416 282.296 91.6213 282.529 91.892C282.763 92.1627 282.884 92.522 282.893 92.97C282.893 93.3807 282.781 93.7493 282.557 94.076C282.333 94.3933 282.021 94.6453 281.619 94.832C281.218 95.0187 280.756 95.112 280.233 95.112ZM46.1456 109.036C46.3882 108.523 46.7709 108.098 47.2936 107.762C47.8256 107.417 48.4556 107.244 49.1836 107.244C49.8742 107.244 50.4949 107.407 51.0456 107.734C51.6056 108.051 52.0396 108.509 52.3476 109.106C52.6649 109.694 52.8236 110.38 52.8236 111.164C52.8236 111.948 52.6649 112.639 52.3476 113.236C52.0396 113.833 51.6056 114.295 51.0456 114.622C50.4949 114.949 49.8742 115.112 49.1836 115.112C48.4649 115.112 47.8396 114.944 47.3076 114.608C46.7756 114.263 46.3882 113.833 46.1456 113.32V118.612H45.1796V107.356H46.1456V109.036ZM51.8296 111.164C51.8296 110.529 51.7036 109.983 51.4516 109.526C51.2089 109.059 50.8729 108.705 50.4436 108.462C50.0142 108.219 49.5289 108.098 48.9876 108.098C48.4649 108.098 47.9842 108.224 47.5456 108.476C47.1162 108.728 46.7756 109.087 46.5236 109.554C46.2716 110.021 46.1456 110.562 46.1456 111.178C46.1456 111.794 46.2716 112.335 46.5236 112.802C46.7756 113.269 47.1162 113.628 47.5456 113.88C47.9842 114.132 48.4649 114.258 48.9876 114.258C49.5289 114.258 50.0142 114.137 50.4436 113.894C50.8729 113.642 51.2089 113.283 51.4516 112.816C51.7036 112.34 51.8296 111.789 51.8296 111.164ZM54.1788 111.164C54.1788 110.38 54.3328 109.694 54.6408 109.106C54.9582 108.509 55.3922 108.051 55.9428 107.734C56.5028 107.407 57.1328 107.244 57.8328 107.244C58.5608 107.244 59.1862 107.412 59.7088 107.748C60.2408 108.084 60.6235 108.513 60.8568 109.036V107.356H61.8368V115H60.8568V113.306C60.6142 113.829 60.2268 114.263 59.6948 114.608C59.1722 114.944 58.5468 115.112 57.8188 115.112C57.1282 115.112 56.5028 114.949 55.9428 114.622C55.3922 114.295 54.9582 113.833 54.6408 113.236C54.3328 112.639 54.1788 111.948 54.1788 111.164ZM60.8568 111.178C60.8568 110.562 60.7308 110.021 60.4788 109.554C60.2268 109.087 59.8815 108.728 59.4428 108.476C59.0135 108.224 58.5375 108.098 58.0148 108.098C57.4735 108.098 56.9882 108.219 56.5588 108.462C56.1295 108.705 55.7888 109.059 55.5368 109.526C55.2942 109.983 55.1728 110.529 55.1728 111.164C55.1728 111.789 55.2942 112.34 55.5368 112.816C55.7888 113.283 56.1295 113.642 56.5588 113.894C56.9882 114.137 57.4735 114.258 58.0148 114.258C58.5375 114.258 59.0135 114.132 59.4428 113.88C59.8815 113.628 60.2268 113.269 60.4788 112.802C60.7308 112.335 60.8568 111.794 60.8568 111.178ZM65.0541 108.714C65.2688 108.238 65.5954 107.869 66.0341 107.608C66.4821 107.347 67.0281 107.216 67.6721 107.216V108.238H67.4061C66.6968 108.238 66.1274 108.429 65.6981 108.812C65.2688 109.195 65.0541 109.834 65.0541 110.73V115H64.0741V107.356H65.0541V108.714ZM68.6984 111.164C68.6984 110.38 68.8524 109.694 69.1604 109.106C69.4777 108.509 69.9117 108.051 70.4624 107.734C71.0224 107.407 71.6524 107.244 72.3524 107.244C73.0804 107.244 73.7057 107.412 74.2284 107.748C74.7604 108.084 75.143 108.513 75.3764 109.036V107.356H76.3564V115H75.3764V113.306C75.1337 113.829 74.7464 114.263 74.2144 114.608C73.6917 114.944 73.0664 115.112 72.3384 115.112C71.6477 115.112 71.0224 114.949 70.4624 114.622C69.9117 114.295 69.4777 113.833 69.1604 113.236C68.8524 112.639 68.6984 111.948 68.6984 111.164ZM75.3764 111.178C75.3764 110.562 75.2504 110.021 74.9984 109.554C74.7464 109.087 74.401 108.728 73.9624 108.476C73.533 108.224 73.057 108.098 72.5344 108.098C71.993 108.098 71.5077 108.219 71.0784 108.462C70.649 108.705 70.3084 109.059 70.0564 109.526C69.8137 109.983 69.6924 110.529 69.6924 111.164C69.6924 111.789 69.8137 112.34 70.0564 112.816C70.3084 113.283 70.649 113.642 71.0784 113.894C71.5077 114.137 71.993 114.258 72.5344 114.258C73.057 114.258 73.533 114.132 73.9624 113.88C74.401 113.628 74.7464 113.269 74.9984 112.802C75.2504 112.335 75.3764 111.794 75.3764 111.178ZM85.0674 115.112C84.1901 115.112 83.4714 114.911 82.9114 114.51C82.3608 114.099 82.0528 113.544 81.9874 112.844H82.9954C83.0421 113.273 83.2428 113.623 83.5974 113.894C83.9614 114.155 84.4468 114.286 85.0534 114.286C85.5854 114.286 86.0008 114.16 86.2994 113.908C86.6074 113.656 86.7614 113.343 86.7614 112.97C86.7614 112.709 86.6774 112.494 86.5094 112.326C86.3414 112.158 86.1268 112.027 85.8654 111.934C85.6134 111.831 85.2681 111.724 84.8294 111.612C84.2601 111.463 83.7981 111.313 83.4434 111.164C83.0888 111.015 82.7854 110.795 82.5334 110.506C82.2908 110.207 82.1694 109.811 82.1694 109.316C82.1694 108.943 82.2814 108.597 82.5054 108.28C82.7294 107.963 83.0468 107.711 83.4574 107.524C83.8681 107.337 84.3348 107.244 84.8574 107.244C85.6788 107.244 86.3414 107.454 86.8454 107.874C87.3494 108.285 87.6201 108.854 87.6574 109.582H86.6774C86.6494 109.134 86.4721 108.775 86.1454 108.504C85.8281 108.224 85.3894 108.084 84.8294 108.084C84.3348 108.084 83.9334 108.201 83.6254 108.434C83.3174 108.667 83.1634 108.957 83.1634 109.302C83.1634 109.601 83.2521 109.848 83.4294 110.044C83.6161 110.231 83.8448 110.38 84.1154 110.492C84.3861 110.595 84.7501 110.711 85.2074 110.842C85.7581 110.991 86.1968 111.136 86.5234 111.276C86.8501 111.416 87.1301 111.621 87.3634 111.892C87.5968 112.163 87.7181 112.522 87.7274 112.97C87.7274 113.381 87.6154 113.749 87.3914 114.076C87.1674 114.393 86.8548 114.645 86.4534 114.832C86.0521 115.019 85.5901 115.112 85.0674 115.112ZM96.4881 110.786C96.4881 111.122 96.4788 111.379 96.4601 111.556H90.1181C90.1461 112.135 90.2861 112.629 90.5381 113.04C90.7901 113.451 91.1215 113.763 91.5321 113.978C91.9428 114.183 92.3908 114.286 92.8761 114.286C93.5108 114.286 94.0428 114.132 94.4721 113.824C94.9108 113.516 95.2001 113.101 95.3401 112.578H96.3761C96.1895 113.325 95.7881 113.936 95.1721 114.412C94.5655 114.879 93.8001 115.112 92.8761 115.112C92.1575 115.112 91.5135 114.953 90.9441 114.636C90.3748 114.309 89.9268 113.852 89.6001 113.264C89.2828 112.667 89.1241 111.971 89.1241 111.178C89.1241 110.385 89.2828 109.689 89.6001 109.092C89.9175 108.495 90.3608 108.037 90.9301 107.72C91.4995 107.403 92.1481 107.244 92.8761 107.244C93.6041 107.244 94.2388 107.403 94.7801 107.72C95.3308 108.037 95.7508 108.467 96.0401 109.008C96.3388 109.54 96.4881 110.133 96.4881 110.786ZM95.4941 110.758C95.5035 110.189 95.3868 109.703 95.1441 109.302C94.9108 108.901 94.5888 108.597 94.1781 108.392C93.7675 108.187 93.3195 108.084 92.8341 108.084C92.1061 108.084 91.4855 108.317 90.9721 108.784C90.4588 109.251 90.1741 109.909 90.1181 110.758H95.4941ZM99.2611 108.714C99.4758 108.238 99.8025 107.869 100.241 107.608C100.689 107.347 101.235 107.216 101.879 107.216V108.238H101.613C100.904 108.238 100.334 108.429 99.9051 108.812C99.4758 109.195 99.2611 109.834 99.2611 110.73V115H98.2811V107.356H99.2611V108.714ZM108.175 108.714C108.39 108.238 108.717 107.869 109.155 107.608C109.603 107.347 110.149 107.216 110.793 107.216V108.238H110.527C109.818 108.238 109.249 108.429 108.819 108.812C108.39 109.195 108.175 109.834 108.175 110.73V115H107.195V107.356H108.175V108.714ZM119.183 110.786C119.183 111.122 119.174 111.379 119.155 111.556H112.813C112.841 112.135 112.981 112.629 113.233 113.04C113.485 113.451 113.817 113.763 114.227 113.978C114.638 114.183 115.086 114.286 115.571 114.286C116.206 114.286 116.738 114.132 117.167 113.824C117.606 113.516 117.895 113.101 118.035 112.578H119.071C118.885 113.325 118.483 113.936 117.867 114.412C117.261 114.879 116.495 115.112 115.571 115.112C114.853 115.112 114.209 114.953 113.639 114.636C113.07 114.309 112.622 113.852 112.295 113.264C111.978 112.667 111.819 111.971 111.819 111.178C111.819 110.385 111.978 109.689 112.295 109.092C112.613 108.495 113.056 108.037 113.625 107.72C114.195 107.403 114.843 107.244 115.571 107.244C116.299 107.244 116.934 107.403 117.475 107.72C118.026 108.037 118.446 108.467 118.735 109.008C119.034 109.54 119.183 110.133 119.183 110.786ZM118.189 110.758C118.199 110.189 118.082 109.703 117.839 109.302C117.606 108.901 117.284 108.597 116.873 108.392C116.463 108.187 116.015 108.084 115.529 108.084C114.801 108.084 114.181 108.317 113.667 108.784C113.154 109.251 112.869 109.909 112.813 110.758H118.189ZM120.528 111.164C120.528 110.38 120.687 109.694 121.004 109.106C121.322 108.509 121.756 108.051 122.306 107.734C122.866 107.407 123.496 107.244 124.196 107.244C124.868 107.244 125.475 107.407 126.016 107.734C126.558 108.061 126.954 108.485 127.206 109.008V104.64H128.186V115H127.206V113.292C126.973 113.824 126.59 114.263 126.058 114.608C125.526 114.944 124.901 115.112 124.182 115.112C123.482 115.112 122.852 114.949 122.292 114.622C121.742 114.295 121.308 113.833 120.99 113.236C120.682 112.639 120.528 111.948 120.528 111.164ZM127.206 111.178C127.206 110.562 127.08 110.021 126.828 109.554C126.576 109.087 126.231 108.728 125.792 108.476C125.363 108.224 124.887 108.098 124.364 108.098C123.823 108.098 123.338 108.219 122.908 108.462C122.479 108.705 122.138 109.059 121.886 109.526C121.644 109.983 121.522 110.529 121.522 111.164C121.522 111.789 121.644 112.34 121.886 112.816C122.138 113.283 122.479 113.642 122.908 113.894C123.338 114.137 123.823 114.258 124.364 114.258C124.887 114.258 125.363 114.132 125.792 113.88C126.231 113.628 126.576 113.269 126.828 112.802C127.08 112.335 127.206 111.794 127.206 111.178ZM130.914 105.914C130.718 105.914 130.55 105.844 130.41 105.704C130.27 105.564 130.2 105.391 130.2 105.186C130.2 104.981 130.27 104.813 130.41 104.682C130.55 104.542 130.718 104.472 130.914 104.472C131.11 104.472 131.278 104.542 131.418 104.682C131.558 104.813 131.628 104.981 131.628 105.186C131.628 105.391 131.558 105.564 131.418 105.704C131.278 105.844 131.11 105.914 130.914 105.914ZM131.404 107.356V115H130.424V107.356H131.404ZM134.603 108.714C134.818 108.238 135.144 107.869 135.583 107.608C136.031 107.347 136.577 107.216 137.221 107.216V108.238H136.955C136.246 108.238 135.676 108.429 135.247 108.812C134.818 109.195 134.603 109.834 134.603 110.73V115H133.623V107.356H134.603V108.714ZM145.611 110.786C145.611 111.122 145.602 111.379 145.583 111.556H139.241C139.269 112.135 139.409 112.629 139.661 113.04C139.913 113.451 140.245 113.763 140.655 113.978C141.066 114.183 141.514 114.286 141.999 114.286C142.634 114.286 143.166 114.132 143.595 113.824C144.034 113.516 144.323 113.101 144.463 112.578H145.499C145.313 113.325 144.911 113.936 144.295 114.412C143.689 114.879 142.923 115.112 141.999 115.112C141.281 115.112 140.637 114.953 140.067 114.636C139.498 114.309 139.05 113.852 138.723 113.264C138.406 112.667 138.247 111.971 138.247 111.178C138.247 110.385 138.406 109.689 138.723 109.092C139.041 108.495 139.484 108.037 140.053 107.72C140.623 107.403 141.271 107.244 141.999 107.244C142.727 107.244 143.362 107.403 143.903 107.72C144.454 108.037 144.874 108.467 145.163 109.008C145.462 109.54 145.611 110.133 145.611 110.786ZM144.617 110.758C144.627 110.189 144.51 109.703 144.267 109.302C144.034 108.901 143.712 108.597 143.301 108.392C142.891 108.187 142.443 108.084 141.957 108.084C141.229 108.084 140.609 108.317 140.095 108.784C139.582 109.251 139.297 109.909 139.241 110.758H144.617ZM146.956 111.178C146.956 110.385 147.115 109.694 147.432 109.106C147.75 108.509 148.188 108.051 148.748 107.734C149.308 107.407 149.948 107.244 150.666 107.244C151.609 107.244 152.384 107.477 152.99 107.944C153.606 108.411 154.003 109.045 154.18 109.848H153.13C153 109.297 152.715 108.868 152.276 108.56C151.847 108.243 151.31 108.084 150.666 108.084C150.153 108.084 149.691 108.201 149.28 108.434C148.87 108.667 148.543 109.017 148.3 109.484C148.067 109.941 147.95 110.506 147.95 111.178C147.95 111.85 148.067 112.419 148.3 112.886C148.543 113.353 148.87 113.703 149.28 113.936C149.691 114.169 150.153 114.286 150.666 114.286C151.31 114.286 151.847 114.132 152.276 113.824C152.715 113.507 153 113.068 153.13 112.508H154.18C154.003 113.292 153.606 113.922 152.99 114.398C152.374 114.874 151.6 115.112 150.666 115.112C149.948 115.112 149.308 114.953 148.748 114.636C148.188 114.309 147.75 113.852 147.432 113.264C147.115 112.667 146.956 111.971 146.956 111.178ZM156.48 105.914C156.284 105.914 156.116 105.844 155.976 105.704C155.836 105.564 155.766 105.391 155.766 105.186C155.766 104.981 155.836 104.813 155.976 104.682C156.116 104.542 156.284 104.472 156.48 104.472C156.676 104.472 156.844 104.542 156.984 104.682C157.124 104.813 157.194 104.981 157.194 105.186C157.194 105.391 157.124 105.564 156.984 105.704C156.844 105.844 156.676 105.914 156.48 105.914ZM156.97 107.356V115H155.99V107.356H156.97ZM162.535 115.112C161.817 115.112 161.168 114.953 160.589 114.636C160.02 114.309 159.567 113.852 159.231 113.264C158.905 112.667 158.741 111.971 158.741 111.178C158.741 110.385 158.909 109.694 159.245 109.106C159.581 108.509 160.039 108.051 160.617 107.734C161.196 107.407 161.845 107.244 162.563 107.244C163.282 107.244 163.931 107.407 164.509 107.734C165.097 108.051 165.555 108.509 165.881 109.106C166.217 109.694 166.385 110.385 166.385 111.178C166.385 111.962 166.217 112.653 165.881 113.25C165.545 113.847 165.083 114.309 164.495 114.636C163.907 114.953 163.254 115.112 162.535 115.112ZM162.535 114.258C163.039 114.258 163.506 114.146 163.935 113.922C164.365 113.689 164.71 113.343 164.971 112.886C165.242 112.419 165.377 111.85 165.377 111.178C165.377 110.506 165.247 109.941 164.985 109.484C164.724 109.017 164.379 108.672 163.949 108.448C163.52 108.215 163.053 108.098 162.549 108.098C162.045 108.098 161.579 108.215 161.149 108.448C160.72 108.672 160.375 109.017 160.113 109.484C159.861 109.941 159.735 110.506 159.735 111.178C159.735 111.85 159.861 112.419 160.113 112.886C160.375 113.343 160.715 113.689 161.135 113.922C161.565 114.146 162.031 114.258 162.535 114.258ZM171.756 107.216C172.67 107.216 173.417 107.501 173.996 108.07C174.574 108.63 174.864 109.447 174.864 110.52V115H173.898V110.632C173.898 109.801 173.688 109.167 173.268 108.728C172.857 108.289 172.292 108.07 171.574 108.07C170.836 108.07 170.248 108.303 169.81 108.77C169.371 109.237 169.152 109.923 169.152 110.828V115H168.172V107.356H169.152V108.658C169.394 108.191 169.744 107.837 170.202 107.594C170.659 107.342 171.177 107.216 171.756 107.216ZM176.583 111.164C176.583 110.38 176.737 109.694 177.045 109.106C177.362 108.509 177.796 108.051 178.347 107.734C178.907 107.407 179.537 107.244 180.237 107.244C180.965 107.244 181.59 107.412 182.113 107.748C182.645 108.084 183.028 108.513 183.261 109.036V107.356H184.241V115H183.261V113.306C183.018 113.829 182.631 114.263 182.099 114.608C181.576 114.944 180.951 115.112 180.223 115.112C179.532 115.112 178.907 114.949 178.347 114.622C177.796 114.295 177.362 113.833 177.045 113.236C176.737 112.639 176.583 111.948 176.583 111.164ZM183.261 111.178C183.261 110.562 183.135 110.021 182.883 109.554C182.631 109.087 182.286 108.728 181.847 108.476C181.418 108.224 180.942 108.098 180.419 108.098C179.878 108.098 179.392 108.219 178.963 108.462C178.534 108.705 178.193 109.059 177.941 109.526C177.698 109.983 177.577 110.529 177.577 111.164C177.577 111.789 177.698 112.34 177.941 112.816C178.193 113.283 178.534 113.642 178.963 113.894C179.392 114.137 179.878 114.258 180.419 114.258C180.942 114.258 181.418 114.132 181.847 113.88C182.286 113.628 182.631 113.269 182.883 112.802C183.135 112.335 183.261 111.794 183.261 111.178ZM186.03 111.164C186.03 110.38 186.189 109.694 186.506 109.106C186.824 108.509 187.258 108.051 187.808 107.734C188.368 107.407 188.998 107.244 189.698 107.244C190.37 107.244 190.977 107.407 191.518 107.734C192.06 108.061 192.456 108.485 192.708 109.008V104.64H193.688V115H192.708V113.292C192.475 113.824 192.092 114.263 191.56 114.608C191.028 114.944 190.403 115.112 189.684 115.112C188.984 115.112 188.354 114.949 187.794 114.622C187.244 114.295 186.81 113.833 186.492 113.236C186.184 112.639 186.03 111.948 186.03 111.164ZM192.708 111.178C192.708 110.562 192.582 110.021 192.33 109.554C192.078 109.087 191.733 108.728 191.294 108.476C190.865 108.224 190.389 108.098 189.866 108.098C189.325 108.098 188.84 108.219 188.41 108.462C187.981 108.705 187.64 109.059 187.388 109.526C187.146 109.983 187.024 110.529 187.024 111.164C187.024 111.789 187.146 112.34 187.388 112.816C187.64 113.283 187.981 113.642 188.41 113.894C188.84 114.137 189.325 114.258 189.866 114.258C190.389 114.258 190.865 114.132 191.294 113.88C191.733 113.628 192.078 113.269 192.33 112.802C192.582 112.335 192.708 111.794 192.708 111.178ZM199.272 115.112C198.553 115.112 197.904 114.953 197.326 114.636C196.756 114.309 196.304 113.852 195.968 113.264C195.641 112.667 195.478 111.971 195.478 111.178C195.478 110.385 195.646 109.694 195.982 109.106C196.318 108.509 196.775 108.051 197.354 107.734C197.932 107.407 198.581 107.244 199.3 107.244C200.018 107.244 200.667 107.407 201.246 107.734C201.834 108.051 202.291 108.509 202.618 109.106C202.954 109.694 203.122 110.385 203.122 111.178C203.122 111.962 202.954 112.653 202.618 113.25C202.282 113.847 201.82 114.309 201.232 114.636C200.644 114.953 199.99 115.112 199.272 115.112ZM199.272 114.258C199.776 114.258 200.242 114.146 200.672 113.922C201.101 113.689 201.446 113.343 201.708 112.886C201.978 112.419 202.114 111.85 202.114 111.178C202.114 110.506 201.983 109.941 201.722 109.484C201.46 109.017 201.115 108.672 200.686 108.448C200.256 108.215 199.79 108.098 199.286 108.098C198.782 108.098 198.315 108.215 197.886 108.448C197.456 108.672 197.111 109.017 196.85 109.484C196.598 109.941 196.472 110.506 196.472 111.178C196.472 111.85 196.598 112.419 196.85 112.886C197.111 113.343 197.452 113.689 197.872 113.922C198.301 114.146 198.768 114.258 199.272 114.258ZM205.076 115.07C204.871 115.07 204.698 115 204.558 114.86C204.427 114.72 204.362 114.547 204.362 114.342C204.362 114.137 204.427 113.969 204.558 113.838C204.698 113.698 204.871 113.628 205.076 113.628C205.272 113.628 205.435 113.698 205.566 113.838C205.706 113.969 205.776 114.137 205.776 114.342C205.776 114.547 205.706 114.72 205.566 114.86C205.435 115 205.272 115.07 205.076 115.07Z" fill="#29333D"/>
<path d="M313.006 22.0149L316.233 18.8354L316.891 18.1808C316.985 18.0873 316.985 17.9311 316.892 17.8058L316.206 17.1166C316.081 17.0226 315.925 17.0222 315.831 17.1157L311.978 20.9811L308.112 17.0965C308.019 17.0025 307.863 17.0022 307.737 17.0956L307.048 17.7814C306.954 17.9062 306.954 18.0624 307.047 18.1564L310.913 22.0097L307.028 25.8751C306.934 25.9686 306.934 26.1249 307.027 26.2501L307.713 26.9393C307.838 27.0334 307.994 27.0338 308.088 26.9402L311.973 23.0749L315.152 26.3015L315.807 26.9594C315.9 27.0534 316.056 27.0538 316.182 26.9603L316.871 26.2746C316.965 26.1498 316.965 25.9935 316.872 25.8996L313.006 22.0149Z" fill="#29333D"/>
</g>
<defs>
<filter id="filter0_d_118_1909" x="0" y="0" width="331.5" height="135" filterUnits="userSpaceOnUse" color-interpolation-filters="sRGB">
<feFlood flood-opacity="0" result="BackgroundImageFix"/>
<feColorMatrix in="SourceAlpha" type="matrix" values="0 0 0 0 0 0 0 0 0 0 0 0 0 0 0 0 0 0 127 0" result="hardAlpha"/>
<feOffset dx="2.5" dy="3"/>
<feComposite in2="hardAlpha" operator="out"/>
<feColorMatrix type="matrix" values="0 0 0 0 0.160784 0 0 0 0 0.2 0 0 0 0 0.239216 0 0 0 0.25 0"/>
<feBlend mode="normal" in2="BackgroundImageFix" result="effect1_dropShadow_118_1909"/>
<feBlend mode="normal" in="SourceGraphic" in2="effect1_dropShadow_118_1909" result="shape"/>
</filter>
</defs>
</svg>
