<svg width="22" height="20" viewBox="0 0 22 20" fill="none" xmlns="http://www.w3.org/2000/svg">
<path fill-rule="evenodd" clip-rule="evenodd" d="M2.50496 1.55106C5.19247 -0.745206 8.65236 -0.325294 10.9923 1.72001C13.3295 -0.326564 16.7531 -0.716509 19.4708 1.54227C22.4443 4.01374 22.8015 8.22861 20.5118 11.1751C19.6393 12.2978 17.9365 13.9848 16.2999 15.5296C14.6441 17.0924 12.9915 18.5689 12.1768 19.2903C12.0979 19.3602 11.9962 19.4521 11.8985 19.5257C11.7891 19.6081 11.6317 19.7101 11.422 19.7727C11.1431 19.8559 10.8434 19.8559 10.5645 19.7727C10.3548 19.7102 10.1974 19.6081 10.088 19.5257C9.99034 19.4521 9.8886 19.3602 9.80965 19.2903C8.99499 18.5689 7.34236 17.0924 5.6866 15.5296C4.05003 13.9849 2.3472 12.2978 1.47469 11.1751C-0.823792 8.21729 -0.40165 4.03467 2.50496 1.55106ZM10.2335 3.78739C8.52847 1.79409 5.81833 1.35133 3.80476 3.07157C1.70145 4.86868 1.41795 7.84353 3.05379 9.94852C3.81697 10.9305 5.40696 12.5155 7.05965 14.0755C8.60223 15.5315 10.1461 16.9144 10.9932 17.6663C11.8404 16.9144 13.3842 15.5315 14.9268 14.0755C16.5795 12.5155 18.1695 10.9305 18.9327 9.94852C20.5774 7.83217 20.3151 4.84458 18.1925 3.08036C16.1255 1.36242 13.4505 1.80283 11.753 3.78739C11.563 4.00934 11.2854 4.13699 10.9932 4.137C10.7011 4.137 10.4235 4.00932 10.2335 3.78739Z" fill="#F04438"/>
</svg>
