<svg width="162" height="53" viewBox="0 0 162 53" fill="none" xmlns="http://www.w3.org/2000/svg">
<path d="M162 20.8154H143.814V26.7311H162V20.8154Z" fill="#0762C7"/>
<path d="M155.212 1.8936L139.463 10.8086L142.48 15.9317L158.229 7.01671L155.212 1.8936Z" fill="#26D07C"/>
<path d="M142.481 31.6132L139.464 36.7363L155.213 45.6513L158.23 40.5282L142.481 31.6132Z" fill="#FF9E1B"/>
<path d="M54.8849 24.9589C54.8849 29.243 51.3433 32.7153 46.9738 32.7153C42.6042 32.7153 39.0627 29.243 39.0627 24.9589V8.91504H33.0291V24.9589C33.0291 32.5106 39.2726 38.6321 46.9749 38.6321C54.6773 38.6321 60.9197 32.5106 60.9197 24.9589V8.91504H54.886V24.9589H54.8849Z" fill="#08068D"/>
<path d="M15.1542 8.915H9.1206V14.8307H15.1542V14.858C20.1767 14.858 24.247 18.8499 24.247 23.773C24.247 28.6961 20.1755 32.688 15.1542 32.688C10.133 32.688 6.06146 28.6972 6.06146 23.773H6.03363V0H0V23.773C0 31.9785 6.78508 38.6309 15.1542 38.6309C23.5234 38.6309 30.3085 31.9785 30.3085 23.773C30.3085 15.5674 23.5245 8.915 15.1542 8.915Z" fill="#08068D"/>
<path d="M89.6904 8.915H83.6567V14.8307H89.6904V14.858C94.7116 14.858 98.7831 18.8499 98.7831 23.773C98.7831 28.6961 94.7128 32.688 89.6904 32.688C84.6679 32.688 80.5976 28.6972 80.5976 23.773H80.5698V0H74.5361V23.773C74.5361 31.9785 81.3212 38.6309 89.6904 38.6309C98.0595 38.6309 104.845 31.9785 104.845 23.773C104.845 15.5674 98.0595 8.915 89.6904 8.915Z" fill="#08068D"/>
<path d="M70.7441 0H64.7104V37.4587H70.7441V0Z" fill="#08068D"/>
<path d="M119.567 26.7314H137.452C137.649 25.7752 137.753 24.786 137.753 23.773C137.753 15.5675 130.968 8.91504 122.599 8.91504C114.23 8.91504 107.445 15.5675 107.445 23.773C107.445 31.9785 114.23 38.631 122.599 38.631H128.632V32.7153H122.599V32.688C117.578 32.688 113.506 28.6961 113.506 23.773C113.506 18.8499 117.576 14.858 122.599 14.858C126.561 14.858 129.923 17.348 131.169 20.8146H119.569V26.7303L119.567 26.7314Z" fill="#08068D"/>
<path d="M2.31233 50.497C1.48666 50.497 0.71666 50.2628 0 49.7943L0.35833 49.1872C1.01005 49.5988 1.66525 49.8046 2.32393 49.8046C2.71473 49.8046 3.03131 49.7216 3.27368 49.5544C3.51604 49.3884 3.6378 49.1735 3.6378 48.9109C3.6378 48.6483 3.53112 48.4607 3.31774 48.3254C3.10437 48.1912 2.73676 48.0843 2.21492 48.0059C0.861616 47.8069 0.184383 47.3066 0.184383 46.5051C0.184383 46.0651 0.378044 45.7069 0.765365 45.4306C1.15269 45.1532 1.65365 45.0156 2.26942 45.0156C2.98608 45.0156 3.62969 45.1862 4.20255 45.5261L3.9196 46.1435C3.36993 45.8388 2.81562 45.6853 2.25899 45.6853C1.86123 45.6853 1.54813 45.7569 1.31968 45.8991C1.09123 46.0412 0.97758 46.2356 0.97758 46.4846C0.97758 46.712 1.08195 46.895 1.29184 47.0338C1.5029 47.1713 1.83804 47.2771 2.30189 47.3476C3.08349 47.4681 3.63549 47.6477 3.95787 47.8853C4.28025 48.123 4.44144 48.4686 4.44144 48.9234C4.44144 49.3782 4.24546 49.7716 3.85466 50.0626C3.46386 50.3537 2.95014 50.4992 2.31349 50.4992" fill="#08068D"/>
<path d="M7.97951 50.4434C7.27676 50.4434 6.72361 50.2273 6.31774 49.7942C5.91186 49.361 5.71008 48.7766 5.71008 48.0375V45.0996H6.51256V48.0159C6.51256 48.5549 6.65403 48.9755 6.93583 49.278C7.21878 49.5793 7.61306 49.7305 8.11982 49.7305C8.62659 49.7305 9.04058 49.5599 9.36296 49.2189C9.68418 48.8778 9.84653 48.4525 9.84653 47.942V45.1007H10.649V50.3592H9.89988C9.89988 49.9192 9.90799 49.5929 9.92191 49.3803H9.88944C9.72941 49.7134 9.48009 49.9749 9.14031 50.1625C8.80053 50.3501 8.41321 50.4445 7.97835 50.4445" fill="#08068D"/>
<path d="M14.2752 45.0146C15.0568 45.0146 15.676 45.1784 16.1318 45.5047C16.5875 45.831 16.8159 46.3415 16.8159 47.0373V50.3584H16.0993C16.0993 49.89 16.1074 49.5421 16.1213 49.3147H16.0993C15.9253 49.6626 15.6493 49.9377 15.2701 50.1401C14.8898 50.3425 14.4758 50.4437 14.0258 50.4437C13.4321 50.4437 12.9381 50.297 12.5438 50.0014C12.1495 49.7069 11.9524 49.2931 11.9524 48.761C11.9524 48.2289 12.1588 47.8014 12.5705 47.5001C12.9822 47.1988 13.5005 47.0476 14.1232 47.0476C14.8469 47.0476 15.4766 47.1931 16.0123 47.4842V47.0373C16.0123 46.5905 15.8534 46.2574 15.5345 46.0368C15.2156 45.8173 14.7819 45.7071 14.2323 45.7071C13.7104 45.7071 13.1573 45.8321 12.5705 46.08L12.3536 45.441C12.9972 45.1568 13.6374 45.0146 14.2752 45.0146ZM14.1557 49.7729C14.6555 49.7729 15.0834 49.6273 15.4418 49.3363C15.8001 49.0452 15.9961 48.6552 16.0332 48.1652C15.5044 47.8537 14.9106 47.6968 14.252 47.6968C13.8113 47.6968 13.4507 47.7889 13.1723 47.973C12.8929 48.1572 12.7537 48.4131 12.7537 48.7394C12.7537 49.0657 12.8894 49.3113 13.1607 49.4955C13.4321 49.6796 13.7638 49.7717 14.1546 49.7717" fill="#08068D"/>
<path d="M21.3212 52.8599V45.1H22.1248C22.1248 45.3058 22.1097 45.664 22.0807 46.1745H22.1028C22.2257 45.8482 22.4808 45.5696 22.8681 45.3388C23.2555 45.108 23.7019 44.9932 24.2087 44.9932C24.9833 44.9932 25.62 45.2467 26.1198 45.7538C26.6184 46.2609 26.8677 46.9192 26.8677 47.7276C26.8677 48.536 26.6161 49.2045 26.1128 49.7082C25.6095 50.2119 24.9717 50.4643 24.1971 50.4643C23.6973 50.4643 23.2589 50.3506 22.8832 50.1232C22.5063 49.8969 22.25 49.6195 22.112 49.2932H22.09C22.112 49.5911 22.1225 50.0174 22.1225 50.5711V52.8599H21.3188H21.3212ZM24.0788 49.7412C24.6656 49.7412 25.1434 49.557 25.5121 49.1875C25.882 48.8191 26.0664 48.3359 26.0664 47.7401C26.0664 47.1443 25.882 46.6486 25.5121 46.2768C25.1434 45.905 24.6725 45.7185 24.1008 45.7185C23.5291 45.7185 23.0386 45.9027 22.6733 46.2723C22.308 46.6418 22.1248 47.1238 22.1248 47.7196C22.1248 48.3154 22.308 48.8111 22.6733 49.1829C23.0386 49.5558 23.5071 49.7412 24.0788 49.7412Z" fill="#08068D"/>
<path d="M28.2373 50.3584V45.0999H28.998C28.998 45.5536 28.9899 45.8913 28.976 46.1107H28.998C29.121 45.8048 29.3366 45.5468 29.644 45.3341C29.9513 45.1204 30.3107 45.0146 30.7247 45.0146C30.9775 45.0146 31.2234 45.0544 31.4623 45.1318L31.2338 45.8344C31.0819 45.7776 30.8941 45.7491 30.6702 45.7491C30.1994 45.7491 29.8109 45.9242 29.5025 46.2756C29.1952 46.6269 29.0421 47.076 29.0421 47.6217V50.3573H28.2385L28.2373 50.3584Z" fill="#08068D"/>
<path d="M34.8821 50.4653C34.0785 50.4653 33.4175 50.2118 32.9003 49.7047C32.382 49.1976 32.1245 48.5427 32.1245 47.7412C32.1245 46.9396 32.3889 46.2722 32.9166 45.7617C33.4442 45.2512 34.1179 44.9954 34.9355 44.9954C35.753 44.9954 36.4013 45.2489 36.9231 45.756C37.4438 46.2631 37.7047 46.918 37.7047 47.7195C37.7047 48.5211 37.4392 49.1885 36.9069 49.7002C36.3758 50.2107 35.6997 50.4665 34.8821 50.4665M34.9042 49.7536C35.4759 49.7536 35.9513 49.5637 36.3317 49.184C36.7121 48.8042 36.9022 48.3244 36.9022 47.7423C36.9022 47.1602 36.7132 46.669 36.3375 46.2892C35.9618 45.9095 35.4875 45.7196 34.9146 45.7196C34.3418 45.7196 33.8698 45.9072 33.4929 46.2836C33.1172 46.6599 32.9281 47.1386 32.9281 47.7207C32.9281 48.3028 33.1172 48.7963 33.4929 49.1794C33.8686 49.5626 34.3394 49.7547 34.9042 49.7547M34.3719 44.2938L35.1744 42.9102H36.152L35.1315 44.2938H34.3707H34.3719Z" fill="#08068D"/>
<path d="M41.3307 47.6225L43.3392 50.3581H42.3616L41.689 49.3996C41.1973 48.6833 40.9144 48.2649 40.8425 48.1444H40.8204C40.7045 48.3354 40.4192 48.755 39.9635 49.3996L39.2897 50.3581H38.3237L40.3102 47.6328L38.4536 45.0996H39.4416L40.2012 46.207C40.4772 46.5834 40.6836 46.8847 40.8204 47.112H40.8425C40.9863 46.871 41.1927 46.5652 41.4617 46.1968L42.2213 45.1007H43.1873L41.3318 47.6237L41.3307 47.6225Z" fill="#08068D"/>
<path d="M44.7612 44.0678C44.5942 44.0678 44.4574 44.0167 44.3484 43.9132C44.2394 43.8109 44.186 43.6779 44.186 43.5141C44.186 43.3504 44.2394 43.2162 44.3484 43.1094C44.4574 43.0025 44.5942 42.9502 44.7612 42.9502C44.9282 42.9502 45.0766 43.0036 45.1845 43.1094C45.2935 43.2162 45.348 43.3504 45.348 43.5141C45.348 43.6779 45.2935 43.8109 45.1845 43.9132C45.0766 44.0167 44.9352 44.0678 44.7612 44.0678ZM44.3704 45.1002H45.1729V50.3587H44.3704V45.1002Z" fill="#08068D"/>
<path d="M53.2613 45.0146C53.935 45.0146 54.4615 45.2159 54.8407 45.6161C55.2199 46.0175 55.4101 46.5541 55.4101 47.2283V50.3573H54.6076V47.3238C54.6076 46.8338 54.4824 46.4461 54.2331 46.1584C53.9837 45.8708 53.6266 45.7275 53.1639 45.7275C52.7012 45.7275 52.322 45.8833 52.0286 46.196C51.7364 46.5086 51.5891 46.902 51.5891 47.3773V50.3584H50.7854V47.3466C50.7854 46.8429 50.6567 46.4472 50.4004 46.1596C50.1442 45.8719 49.7835 45.7287 49.3208 45.7287C48.8581 45.7287 48.4917 45.8833 48.2018 46.1914C47.913 46.4995 47.7681 46.8963 47.7681 47.3784V50.3596H46.9656V45.1011H47.7251C47.7251 45.491 47.7031 45.839 47.6602 46.1437H47.6822C47.7982 45.7957 48.0185 45.5217 48.3444 45.3194C48.6691 45.117 49.0355 45.0158 49.4403 45.0158C50.3877 45.0158 51.0035 45.4137 51.2864 46.2085C51.4673 45.8117 51.7352 45.5126 52.09 45.3148C52.4449 45.1158 52.8345 45.0169 53.2613 45.0169" fill="#08068D"/>
<path d="M58.939 45.0146C59.7206 45.0146 60.3398 45.1784 60.7956 45.5047C61.2513 45.831 61.4798 46.3415 61.4798 47.0373V50.3584H60.7631C60.7631 49.89 60.7712 49.5421 60.7851 49.3147H60.7631C60.5891 49.6626 60.3132 49.9377 59.934 50.1401C59.5536 50.3425 59.1396 50.4437 58.6897 50.4437C58.0959 50.4437 57.6019 50.297 57.2076 50.0014C56.8134 49.7069 56.6162 49.2931 56.6162 48.761C56.6162 48.2289 56.8226 47.8014 57.2343 47.5001C57.6471 47.1988 58.1643 47.0476 58.7871 47.0476C59.5107 47.0476 60.1404 47.1931 60.6761 47.4842V47.0373C60.6761 46.5905 60.5173 46.2574 60.1983 46.0368C59.8794 45.8173 59.4457 45.7071 58.8961 45.7071C58.3742 45.7071 57.8211 45.8321 57.2343 46.08L57.0174 45.441C57.661 45.1568 58.3012 45.0146 58.939 45.0146ZM58.8195 49.7729C59.3193 49.7729 59.7472 49.6273 60.1056 49.3363C60.4639 49.0452 60.6599 48.6552 60.697 48.1652C60.1682 47.8537 59.5745 47.6968 58.9158 47.6968C58.4751 47.6968 58.1145 47.7889 57.8362 47.973C57.5567 48.1572 57.4175 48.4131 57.4175 48.7394C57.4175 49.0657 57.5532 49.3113 57.8246 49.4955C58.0959 49.6796 58.4276 49.7717 58.8184 49.7717" fill="#08068D"/>
<path d="M70.8274 47.6014C70.8274 47.6867 70.8193 47.8288 70.8054 48.0277H66.386C66.4219 48.5598 66.6156 48.9828 66.9669 49.2943C67.3183 49.607 67.7648 49.7628 68.3075 49.7628C69.0311 49.7628 69.6399 49.5365 70.1316 49.0817L70.5549 49.6138C69.9971 50.1812 69.2445 50.4654 68.2971 50.4654C67.4865 50.4654 66.8313 50.2141 66.3315 49.7093C65.8328 49.2056 65.5835 48.5451 65.5835 47.7287C65.5835 46.9124 65.8363 46.2711 66.3431 45.7595C66.8498 45.249 67.5016 44.9932 68.2982 44.9932C69.0949 44.9932 69.6782 45.2206 70.1374 45.6742C70.5978 46.1279 70.8274 46.7703 70.8274 47.6002M68.2658 45.6947C67.7659 45.6947 67.3473 45.8436 67.0122 46.1415C66.6747 46.4394 66.4706 46.8476 66.3987 47.366H70.0794C70.0574 46.8271 69.8881 46.4132 69.5692 46.1256C69.2503 45.8379 68.8166 45.6947 68.2669 45.6947" fill="#08068D"/>
<path d="M72.1079 50.3584V45.0999H72.8686C72.8686 45.4126 72.8582 45.7594 72.8362 46.1425H72.8686C73.0275 45.7878 73.285 45.5115 73.6386 45.3125C73.9935 45.1136 74.4017 45.0146 74.8655 45.0146C75.5892 45.0146 76.1458 45.2204 76.5378 45.632C76.9286 46.0436 77.1234 46.6223 77.1234 47.367V50.3584H76.3209V47.4307C76.3209 46.8918 76.1852 46.4722 75.9139 46.1744C75.6425 45.8765 75.2459 45.7275 74.7252 45.7275C74.2045 45.7275 73.7627 45.8981 73.4218 46.2392C73.082 46.5803 72.9115 47.0055 72.9115 47.516V50.3584H72.1091H72.1079Z" fill="#08068D"/>
<path d="M83.6707 47.6014C83.6707 47.6867 83.6626 47.8288 83.6487 48.0277H79.2304C79.2664 48.5598 79.4601 48.9828 79.8114 49.2943C80.1628 49.607 80.6093 49.7628 81.152 49.7628C81.8756 49.7628 82.4833 49.5365 82.9761 49.0817L83.3994 49.6138C82.8416 50.1812 82.089 50.4654 81.1415 50.4654C80.331 50.4654 79.6758 50.2141 79.1759 49.7093C78.6773 49.2056 78.428 48.5451 78.428 47.7287C78.428 46.9124 78.6808 46.2711 79.1875 45.7595C79.6943 45.249 80.346 44.9932 81.1427 44.9932C81.9394 44.9932 82.5227 45.2206 82.9819 45.6742C83.4423 46.1279 83.6719 46.7703 83.6719 47.6002M81.1091 45.6947C80.6093 45.6947 80.1918 45.8436 79.8555 46.1415C79.5192 46.4394 79.3139 46.8476 79.2421 47.366H82.9228C82.9007 46.8271 82.7303 46.4132 82.4125 46.1256C82.0936 45.8379 81.6599 45.6947 81.1102 45.6947" fill="#08068D"/>
<path d="M84.9521 50.3584V45.0999H85.7129C85.7129 45.5536 85.7048 45.8913 85.6908 46.1107H85.7129C85.8346 45.8048 86.0503 45.5468 86.3588 45.3341C86.6661 45.1204 87.0268 45.0146 87.4396 45.0146C87.6924 45.0146 87.9394 45.0544 88.1783 45.1318L87.9498 45.8344C87.7979 45.7776 87.6101 45.7491 87.3851 45.7491C86.9154 45.7491 86.5258 45.9242 86.2185 46.2756C85.9112 46.6269 85.7569 47.076 85.7569 47.6217V50.3573H84.9545L84.9521 50.3584Z" fill="#08068D"/>
<path d="M91.7046 52.9983C90.785 52.9983 89.9605 52.7925 89.2287 52.3809L89.5442 51.7203C90.2898 52.0819 91.0053 52.2638 91.6942 52.2638C92.2577 52.2638 92.7054 52.116 93.0347 51.8215C93.364 51.527 93.5357 51.1166 93.5507 50.5924C93.5728 49.9682 93.5902 49.535 93.6041 49.294H93.582C93.4383 49.6351 93.1785 49.9137 92.8062 50.1297C92.434 50.3457 92.0049 50.4549 91.5202 50.4549C90.7316 50.4549 90.088 50.2013 89.5882 49.6942C89.0884 49.1871 88.8391 48.5356 88.8391 47.7409C88.8391 46.9462 89.0873 46.2719 89.5824 45.7614C90.0788 45.2498 90.72 44.9951 91.5098 44.9951C92.0015 44.9951 92.4386 45.1065 92.8225 45.3305C93.2052 45.5545 93.4661 45.8399 93.6041 46.1878H93.6261C93.6122 45.9468 93.6041 45.5841 93.6041 45.102H94.3636V50.4344C94.3636 51.236 94.1282 51.8647 93.6574 52.3184C93.1878 52.772 92.536 52.9994 91.7034 52.9994M91.6049 49.7317C92.1986 49.7317 92.674 49.5476 93.0324 49.178C93.3907 48.8097 93.5705 48.323 93.5705 47.7193C93.5705 47.1156 93.3872 46.6403 93.0219 46.2719C92.6567 45.9036 92.1847 45.7182 91.606 45.7182C91.0274 45.7182 90.5554 45.9047 90.1889 46.2776C89.8236 46.6505 89.6404 47.1315 89.6404 47.7193C89.6404 48.3071 89.8236 48.7915 90.1889 49.1678C90.5542 49.5441 91.0262 49.7317 91.606 49.7317" fill="#08068D"/>
<path d="M96.5461 44.0678C96.3791 44.0678 96.2423 44.0167 96.1333 43.9132C96.0243 43.8109 95.9709 43.6779 95.9709 43.5141C95.9709 43.3504 96.0243 43.2162 96.1333 43.1094C96.2423 43.0025 96.3791 42.9502 96.5461 42.9502C96.7131 42.9502 96.8616 43.0036 96.9694 43.1094C97.0784 43.2162 97.1329 43.3504 97.1329 43.5141C97.1329 43.6779 97.0784 43.8109 96.9694 43.9132C96.8616 44.0167 96.7201 44.0678 96.5461 44.0678ZM96.1553 45.1002H96.9578V50.3587H96.1553V45.1002Z" fill="#08068D"/>
<path d="M100.585 45.0146C101.367 45.0146 101.986 45.1784 102.442 45.5047C102.898 45.831 103.126 46.3415 103.126 47.0373V50.3584H102.409C102.409 49.89 102.416 49.5421 102.431 49.3147H102.409C102.235 49.6626 101.958 49.9377 101.579 50.1401C101.2 50.3425 100.785 50.4437 100.336 50.4437C99.7422 50.4437 99.2482 50.297 98.8539 50.0014C98.4584 49.7069 98.2625 49.2931 98.2625 48.761C98.2625 48.2289 98.4689 47.8014 98.8805 47.5001C99.2934 47.1988 99.8106 47.0476 100.433 47.0476C101.157 47.0476 101.787 47.1931 102.321 47.4842V47.0373C102.321 46.5905 102.162 46.2574 101.843 46.0368C101.525 45.8173 101.091 45.7071 100.541 45.7071C100.019 45.7071 99.4662 45.8321 98.8794 46.08L98.6625 45.441C99.3073 45.1568 99.9474 45.0146 100.584 45.0146M100.465 49.7729C100.964 49.7729 101.393 49.6273 101.751 49.3363C102.109 49.0452 102.306 48.6552 102.342 48.1652C101.814 47.8537 101.221 47.6968 100.562 47.6968C100.12 47.6968 99.7607 47.7889 99.4812 47.973C99.2029 48.1572 99.0638 48.4131 99.0638 48.7394C99.0638 49.0657 99.1983 49.3113 99.4708 49.4955C99.7422 49.6796 100.074 49.7717 100.465 49.7717" fill="#08068D"/>
</svg>
