<svg width="19" height="19" viewBox="0 0 19 19" fill="none" xmlns="http://www.w3.org/2000/svg">
<path fill-rule="evenodd" clip-rule="evenodd" d="M9.18164 0C14.2524 0.000224888 18.3632 4.11088 18.3633 9.18164C18.3632 14.2524 14.2524 18.3631 9.18164 18.3633C4.1108 18.3632 9.59635e-05 14.2525 0 9.18164C9.59039e-05 4.1108 4.1108 9.59039e-05 9.18164 0ZM9.18164 2C5.21537 2.0001 2.0001 5.21537 2 9.18164C2.0001 13.1479 5.21537 16.3632 9.18164 16.3633C13.1478 16.3631 16.3632 13.1478 16.3633 9.18164C16.3632 5.21545 13.1478 2.00022 9.18164 2ZM9.18164 9.81836C10.4797 9.81847 11.501 10.3378 12.1738 10.8271C12.512 11.0732 12.7738 11.3197 12.9531 11.5068C13.0431 11.6007 13.1138 11.6814 13.1641 11.7412C13.1891 11.7711 13.2095 11.7964 13.2246 11.8154C13.232 11.8248 13.2382 11.8334 13.2432 11.8398C13.2456 11.843 13.2482 11.8462 13.25 11.8486C13.2506 11.8495 13.2514 11.8508 13.252 11.8516L13.2539 11.8535C13.2537 11.8542 13.2356 11.8679 12.5205 12.4043L13.2549 11.8545C13.5858 12.2962 13.4962 12.9236 13.0547 13.2549C12.613 13.5861 11.9857 13.4952 11.6543 13.0537C11.65 13.0483 11.642 13.0394 11.6318 13.0273C11.6071 12.9978 11.5655 12.9499 11.5088 12.8906C11.3942 12.7711 11.2209 12.6081 10.9971 12.4453C10.5451 12.1166 9.92865 11.8185 9.18164 11.8184C8.43463 11.8184 7.81822 12.1166 7.36621 12.4453C7.14234 12.6082 6.96906 12.7711 6.85449 12.8906C6.79769 12.9499 6.75625 12.9978 6.73145 13.0273C6.7193 13.0418 6.71088 13.0518 6.70703 13.0566L6.70508 13.0596C6.37292 13.4967 5.74964 13.5842 5.30957 13.2549C4.86774 12.9235 4.778 12.2963 5.10938 11.8545L5.90918 12.4541C5.16926 11.8992 5.11336 11.8569 5.10938 11.8535H5.11035L5.11133 11.8516C5.11209 11.8506 5.11339 11.8498 5.11426 11.8486C5.11607 11.8462 5.11771 11.843 5.12012 11.8398C5.12515 11.8333 5.13211 11.8249 5.13965 11.8154C5.15476 11.7963 5.17513 11.7711 5.2002 11.7412C5.25047 11.6813 5.3212 11.6007 5.41113 11.5068C5.59053 11.3197 5.85223 11.0731 6.19043 10.8271C6.86334 10.3379 7.88381 9.81841 9.18164 9.81836ZM11.6562 13.0566C11.6575 13.0582 11.6589 13.0593 11.6592 13.0596L11.6572 13.0586L11.6562 13.0566L11.6553 13.0557V13.0547L11.6562 13.0566ZM6.87109 5.3252C7.58156 5.39743 8.13672 5.99801 8.13672 6.72754C8.13648 7.50533 7.5053 8.13635 6.72754 8.13672C5.99794 8.13672 5.39733 7.58166 5.3252 6.87109L5.31836 6.72754L5.3252 6.58301C5.39743 5.87254 5.99801 5.31836 6.72754 5.31836L6.87109 5.3252ZM11.7803 5.3252C12.4907 5.39747 13.0459 5.99804 13.0459 6.72754C13.0457 7.5053 12.4144 8.1363 11.6367 8.13672C10.9071 8.13672 10.3065 7.58166 10.2344 6.87109L10.2275 6.72754L10.2344 6.58301C10.3066 5.87255 10.9072 5.31836 11.6367 5.31836L11.7803 5.3252Z" fill="white"/>
</svg>
