<svg width="21" height="14" viewBox="0 0 21 14" fill="none" xmlns="http://www.w3.org/2000/svg">
<path d="M20.1275 6.30772C20.1975 6.44852 20.2321 6.65954 20.2318 6.80016C20.2313 6.97594 20.1956 7.18679 20.125 7.32724C18.2173 11.0491 14.4142 13.5357 10.1252 13.5251C5.80099 13.5143 2.01032 11.0088 0.121144 7.27757C0.0511808 7.13677 0.0165485 6.92575 0.0168977 6.78512C0.0173342 6.60934 0.0530141 6.39849 0.123676 6.25804C2.03136 2.5362 5.83451 0.014391 10.1587 0.0251293C14.4478 0.0357802 18.2383 2.57645 20.1275 6.30772ZM10.1294 11.8376C12.9067 11.8445 15.1975 9.60017 15.2044 6.82284L15.2044 6.78768C15.2113 4.01034 12.9319 1.71952 10.1545 1.71262C7.34203 1.70564 5.08637 3.9852 5.07947 6.76254C5.07249 9.57503 7.31689 11.8306 10.1294 11.8376ZM10.1503 3.40012C12.0136 3.40475 13.5216 4.92021 13.5169 6.78349C13.5123 8.64676 11.9968 10.1547 10.1336 10.1501C8.2703 10.1455 6.76234 8.63 6.76696 6.76673C6.76758 6.52063 6.80369 6.134 6.87462 5.88809C7.12027 6.06448 7.57695 6.20624 7.89336 6.20702C8.80742 6.20929 9.58269 5.47293 9.58496 4.55887C9.58574 4.24247 9.4111 3.785 9.23593 3.53847C9.48219 3.46877 9.869 3.43458 10.1503 3.40012Z" fill="#C2CCD6"/>
</svg>
