<svg width="16" height="19" viewBox="0 0 16 19" fill="none" xmlns="http://www.w3.org/2000/svg">
<path d="M11.0234 10.1523C13.625 10.1587 15.7642 12.3086 15.7577 14.9102L15.7541 16.3516C15.7518 17.3008 14.9765 18.0371 14.0625 18.0349L1.6875 18.0041C0.738286 18.0018 0.00183991 17.2617 0.00419709 16.3124L0.0077765 14.871C0.0142369 12.2695 2.12893 10.1302 4.73049 10.1367C5.75001 10.1392 6.20565 10.7028 7.89314 10.707C9.54548 10.7111 10.0039 10.1498 11.0234 10.1523ZM14.6292 16.3488L14.6327 14.9074C14.6377 12.9035 13.0245 11.2823 11.0206 11.2773C10.3527 11.2756 9.64815 11.8364 7.89035 11.832C6.09738 11.8276 5.43081 11.2634 4.72769 11.2617C2.72379 11.2567 1.13775 12.8699 1.13277 14.8738L1.12919 16.3152C1.12841 16.6316 1.37389 16.8783 1.6903 16.8791L14.0653 16.9099C14.3465 16.9106 14.6284 16.6652 14.6292 16.3488ZM7.89733 9.01952C5.40125 9.01332 3.40232 7.00445 3.40852 4.50836C3.41463 2.04743 5.4236 0.0133504 7.91968 0.0195489C10.3806 0.0256601 12.4146 2.06978 12.4085 4.53071C12.4023 7.0268 10.3583 9.02563 7.89733 9.01952ZM7.91689 1.14455C6.05361 1.13992 4.53806 2.68303 4.53352 4.51115C4.52889 6.37443 6.03685 7.8899 7.90013 7.89452C9.72824 7.89906 11.2789 6.39119 11.2835 4.52792C11.288 2.6998 9.74501 1.14909 7.91689 1.14455Z" fill="#C2CCD6"/>
</svg>
