<svg width="100" height="29" viewBox="0 0 100 29" fill="none" xmlns="http://www.w3.org/2000/svg">
<path d="M99.9991 13.0918H88.7734V16.8123H99.9991V13.0918Z" fill="#0762C7"/>
<path d="M95.8096 1.18947L86.0879 6.79639L87.9501 10.0185L97.6718 4.41156L95.8096 1.18947Z" fill="#26D07C"/>
<path d="M87.952 19.8833L86.0897 23.1054L95.8114 28.7124L97.6736 25.4903L87.952 19.8833Z" fill="#FF9E1B"/>
<path d="M33.8798 15.6975C33.8798 18.3919 31.6929 20.5757 28.9964 20.5757C26.2999 20.5757 24.113 18.3919 24.113 15.6975V5.60702H20.3885V15.6975C20.3885 20.447 24.2426 24.297 28.9971 24.297C33.7517 24.297 37.605 20.447 37.605 15.6975V5.60702H33.8805V15.6975H33.8798Z" fill="#08068D"/>
<path d="M9.35447 5.60693H5.63001V9.32748H9.35447V9.34464C12.4547 9.34464 14.9673 11.8553 14.9673 14.9516C14.9673 18.0478 12.454 20.5585 9.35447 20.5585C6.25493 20.5585 3.74165 18.0486 3.74165 14.9516H3.72447V5.72205e-06H0V14.9516C0 20.1123 4.18832 24.2962 9.35447 24.2962C14.5206 24.2962 18.7097 20.1123 18.7097 14.9516C18.7097 9.79085 14.5213 5.60693 9.35447 5.60693Z" fill="#08068D"/>
<path d="M55.3642 5.60693H51.6398V9.32748H55.3642V9.34464C58.4638 9.34464 60.9771 11.8553 60.9771 14.9516C60.9771 18.0479 58.4645 20.5585 55.3642 20.5585C52.264 20.5585 49.7514 18.0486 49.7514 14.9516H49.7342V1.14441e-05H46.0098V14.9516C46.0098 20.1123 50.1981 24.2962 55.3642 24.2962C60.5304 24.2962 64.7187 20.1123 64.7187 14.9516C64.7187 9.79085 60.5304 5.60693 55.3642 5.60693Z" fill="#08068D"/>
<path d="M43.6698 0H39.9453V23.5589H43.6698V0Z" fill="#08068D"/>
<path d="M73.8075 16.8122H84.847C84.9687 16.2108 85.0332 15.5887 85.0332 14.9516C85.0332 9.79085 80.8448 5.60693 75.6787 5.60693C70.5125 5.60693 66.3242 9.79085 66.3242 14.9516C66.3242 20.1123 70.5125 24.2962 75.6787 24.2962H79.4032V20.5756H75.6787V20.5585C72.5784 20.5585 70.0659 18.0479 70.0659 14.9516C70.0659 11.8553 72.5784 9.34464 75.6787 9.34464C78.1247 9.34464 80.1999 10.9107 80.9687 13.0909H73.8082V16.8115L73.8075 16.8122Z" fill="#08068D"/>
</svg>
