<svg width="100" height="29" viewBox="0 0 100 29" fill="none" xmlns="http://www.w3.org/2000/svg">
<path d="M100 13.0275H88.7744V16.7298H100V13.0275Z" fill="#0762C7"/>
<path d="M95.8098 1.18519L86.0881 6.76465L87.9504 9.97096L97.672 4.3915L95.8098 1.18519Z" fill="#26D07C"/>
<path d="M87.9518 19.7856L86.0896 22.9919L95.8113 28.5714L97.6735 25.3651L87.9518 19.7856Z" fill="#FF9E1B"/>
<path d="M33.8794 15.6205C33.8794 18.3017 31.6933 20.4749 28.996 20.4749C26.2988 20.4749 24.1126 18.3017 24.1126 15.6205V5.57947H20.3882V15.6205C20.3882 20.3468 24.2422 24.1779 28.9968 24.1779C33.7513 24.1779 37.6046 20.3468 37.6046 15.6205V5.57947H33.8801V15.6205H33.8794Z" fill="#08068D"/>
<path d="M9.35446 5.57947H5.63V9.2818H9.35446V9.29887C12.4547 9.29887 14.9673 11.7972 14.9673 14.8783C14.9673 17.9595 12.454 20.4578 9.35446 20.4578C6.25492 20.4578 3.74164 17.9602 3.74164 14.8783H3.72446V0H0V14.8783C0 20.0138 4.18832 24.1772 9.35446 24.1772C14.5206 24.1772 18.7089 20.0138 18.7089 14.8783C18.7089 9.7429 14.5213 5.57947 9.35446 5.57947Z" fill="#08068D"/>
<path d="M55.3645 5.57947H51.64V9.2818H55.3645V9.29887C58.464 9.29887 60.9773 11.7972 60.9773 14.8783C60.9773 17.9595 58.4647 20.4578 55.3645 20.4578C52.2642 20.4578 49.7517 17.9602 49.7517 14.8783H49.7345V0H46.01V14.8783C46.01 20.0138 50.1983 24.1772 55.3645 24.1772C60.5306 24.1772 64.7189 20.0138 64.7189 14.8783C64.7189 9.7429 60.5306 5.57947 55.3645 5.57947Z" fill="#08068D"/>
<path d="M43.6693 0H39.9448V23.4436H43.6693V0Z" fill="#08068D"/>
<path d="M73.807 16.7299H84.8465C84.9682 16.1314 85.0327 15.5124 85.0327 14.8783C85.0327 9.7429 80.8443 5.57947 75.6782 5.57947C70.512 5.57947 66.3237 9.7429 66.3237 14.8783C66.3237 20.0138 70.512 24.1779 75.6782 24.1779H79.4027V20.4756H75.6782V20.4585C72.5786 20.4585 70.0654 17.9602 70.0654 14.8791C70.0654 11.7979 72.5779 9.29959 75.6782 9.29959C78.1242 9.29959 80.1994 10.8579 80.9682 13.0275H73.8077V16.7299H73.807Z" fill="#08068D"/>
</svg>
