<svg width="30" height="26" viewBox="0 0 30 26" fill="none" xmlns="http://www.w3.org/2000/svg">
<path d="M30 11.3433H19.9998V14.6573H30V11.3433Z" fill="white"/>
<path d="M26.2674 0.743334L17.6069 5.73752L19.2659 8.60749L27.9263 3.61331L26.2674 0.743334Z" fill="white"/>
<path d="M19.2671 17.3926L17.6082 20.2626L26.2686 25.2568L27.9275 22.3868L19.2671 17.3926Z" fill="white"/>
<path d="M6.66638 14.6573H16.5008C16.6092 14.1217 16.6666 13.5675 16.6666 13C16.6666 8.4033 12.9355 4.67661 8.3333 4.67661C3.73111 4.67661 0 8.4033 0 13C0 17.5968 3.73111 21.3241 8.3333 21.3241H11.6512V18.0101H8.3333V17.9949C5.57211 17.9949 3.33319 15.7586 3.33319 13.0007C3.33319 10.2428 5.57147 8.00649 8.3333 8.00649C10.5123 8.00649 12.3609 9.40137 13.0458 11.344H6.66702V14.658L6.66638 14.6573Z" fill="white"/>
</svg>
