<svg width="17" height="16" viewBox="0 0 17 16" fill="none" xmlns="http://www.w3.org/2000/svg">
<path d="M8.02169 2.3022C8.17534 1.99091 8.25217 1.83526 8.35647 1.78553C8.44722 1.74227 8.55264 1.74227 8.64339 1.78553C8.74769 1.83526 8.82452 1.99091 8.97817 2.3022L10.436 5.25551C10.4813 5.34741 10.504 5.39336 10.5372 5.42904C10.5665 5.46063 10.6017 5.48622 10.6408 5.5044C10.685 5.52494 10.7357 5.53235 10.8371 5.54717L14.0979 6.02379C14.4413 6.07398 14.613 6.09908 14.6924 6.18295C14.7616 6.25592 14.7941 6.35619 14.7809 6.45584C14.7658 6.57038 14.6415 6.69144 14.3929 6.93358L12.0342 9.23093C11.9607 9.30255 11.9239 9.33836 11.9002 9.38096C11.8792 9.41869 11.8657 9.46013 11.8605 9.50299C11.8547 9.5514 11.8633 9.60199 11.8807 9.70315L12.4372 12.9481C12.4959 13.2903 12.5253 13.4614 12.4701 13.563C12.4221 13.6513 12.3368 13.7133 12.238 13.7316C12.1243 13.7527 11.9707 13.6719 11.6633 13.5103L8.74817 11.9772C8.65734 11.9294 8.61193 11.9056 8.56408 11.8962C8.52172 11.8879 8.47814 11.8879 8.43578 11.8962C8.38793 11.9056 8.34252 11.9294 8.25169 11.9772L5.33653 13.5103C5.0292 13.6719 4.87553 13.7527 4.7619 13.7316C4.66304 13.7133 4.57773 13.6513 4.52974 13.563C4.47459 13.4614 4.50394 13.2903 4.56264 12.9481L5.11918 9.70315C5.13653 9.60199 5.1452 9.5514 5.13933 9.50299C5.13413 9.46013 5.12066 9.41869 5.09966 9.38096C5.07593 9.33836 5.03917 9.30255 4.96564 9.23093L2.60696 6.93358C2.35836 6.69144 2.23406 6.57038 2.21894 6.45584C2.20578 6.35619 2.23829 6.25592 2.30742 6.18295C2.38688 6.09908 2.55857 6.07398 2.90195 6.02379L6.16279 5.54717C6.2642 5.53235 6.31491 5.52494 6.35906 5.5044C6.39816 5.48622 6.43336 5.46063 6.46271 5.42904C6.49586 5.39336 6.51854 5.34741 6.5639 5.25551L8.02169 2.3022Z" stroke="#E9FBF2" stroke-width="2" stroke-linecap="round" stroke-linejoin="round"/>
</svg>
