<svg width="393" height="491" viewBox="0 0 393 491" fill="none" xmlns="http://www.w3.org/2000/svg">
<path d="M355.966 54.1616L355.966 50.4712C355.966 22.996 374.254 1.00057 396.344 1.00046L399.221 1.00046L399.221 8.4194L396.344 8.4194C377.055 8.41952 361.689 27.4757 361.689 50.4712L361.689 54.1616L355.966 54.1616ZM18.5049 54.1616L15.6602 54.1616L15.6602 46.7416L18.5049 46.7416C37.7936 46.7416 53.1611 27.6863 53.1612 4.69085L53.1612 1.00042L58.8838 1.00042L58.8838 4.69085C58.8837 32.166 40.5944 54.1616 18.5049 54.1616ZM133.741 54.1616L130.897 54.1616L130.897 46.7416L133.741 46.7416C153.03 46.7416 168.397 27.6863 168.398 4.69086L168.398 1.00043L174.12 1.00043L174.12 4.69086C174.12 32.166 155.831 54.1616 133.741 54.1616ZM93.3633 99.9418L93.3633 92.5219L286.687 92.5219L286.687 99.9419L93.3633 99.9418ZM-21.8408 145.722L-21.8408 138.302L21.3828 138.302L21.3828 145.722L-21.8408 145.722ZM393.53 237.245L393.53 138.302L399.253 138.302L399.253 237.245L393.53 237.245ZM129.601 187.774L133.773 182.684L175.447 233.515L171.274 238.605L129.601 187.774ZM243.463 191.502L243.463 184.082L286.687 184.082L286.687 191.502L243.463 191.502ZM53.0654 282.87L53.0655 229.669L58.7881 229.669L58.7881 282.87L53.0654 282.87ZM205.962 374.546L205.962 275.605L211.685 275.605L211.685 374.546L205.962 374.546ZM92.0684 370.857L133.742 320.025L137.915 325.115L96.2412 375.946L92.0684 370.857ZM-22 328.611L-22 321.192L21.2237 321.192L21.2236 328.611L-22 328.611ZM318.496 328.805L318.496 321.385L361.72 321.385L361.72 328.805L318.496 328.805ZM168.238 466.03L168.238 412.83L173.961 412.83L173.961 466.03L168.238 466.03ZM318.496 420.327L318.496 412.907L399.253 412.907L399.253 420.327L318.496 420.327ZM208.807 511.849L205.962 511.849L205.962 504.429L208.807 504.429C228.095 504.429 243.463 485.374 243.463 462.378L243.463 458.688L249.186 458.688L249.186 462.378C249.185 489.853 230.896 511.849 208.807 511.849ZM-19.0273 557.59L-21.873 557.59L-21.873 550.17L-19.0273 550.17C0.261278 550.17 15.6279 531.115 15.6279 508.12L15.6279 504.429L21.3506 504.429L21.3506 508.12C21.3506 535.595 3.06216 557.59 -19.0273 557.59Z" stroke="url(#paint0_linear_404_2528)" stroke-width="2"/>
<defs>
<linearGradient id="paint0_linear_404_2528" x1="188.658" y1="158.778" x2="188.658" y2="496.732" gradientUnits="userSpaceOnUse">
<stop stop-color="white"/>
<stop offset="1" stop-color="white" stop-opacity="0"/>
</linearGradient>
</defs>
</svg>
