<svg width="22" height="22" viewBox="0 0 22 22" fill="none" xmlns="http://www.w3.org/2000/svg">
<path d="M20.1666 9.16671H1.83325M1.83325 7.51671L1.83325 14.4834C1.83325 15.5101 1.83325 16.0235 2.03307 16.4157C2.20884 16.7607 2.48931 17.0411 2.83427 17.2169C3.22644 17.4167 3.73982 17.4167 4.76658 17.4167L17.2333 17.4167C18.26 17.4167 18.7734 17.4167 19.1656 17.2169C19.5105 17.0411 19.791 16.7607 19.9668 16.4157C20.1666 16.0235 20.1666 15.5101 20.1666 14.4834V7.51671C20.1666 6.48995 20.1666 5.97656 19.9668 5.58439C19.791 5.23943 19.5105 4.95896 19.1656 4.7832C18.7734 4.58338 18.26 4.58338 17.2333 4.58338L4.76659 4.58337C3.73982 4.58337 3.22644 4.58337 2.83427 4.7832C2.48931 4.95896 2.20884 5.23943 2.03307 5.58439C1.83325 5.97656 1.83325 6.48994 1.83325 7.51671Z" stroke="#3E4D5B" stroke-width="2" stroke-linecap="round" stroke-linejoin="round"/>
</svg>
